<?xml version="1.0" encoding="UTF-8" standalone="no"?>
<svg
   xmlns:dc="http://purl.org/dc/elements/1.1/"
   xmlns:cc="http://creativecommons.org/ns#"
   xmlns:rdf="http://www.w3.org/1999/02/22-rdf-syntax-ns#"
   xmlns:svg="http://www.w3.org/2000/svg"
   xmlns="http://www.w3.org/2000/svg"
   xmlns:xlink="http://www.w3.org/1999/xlink"
   xmlns:sodipodi="http://sodipodi.sourceforge.net/DTD/sodipodi-0.dtd"
   xmlns:inkscape="http://www.inkscape.org/namespaces/inkscape"
   width="264.6301mm"
   height="52.975246mm"
   viewBox="0 0 264.6301 52.975246"
   version="1.1"
   id="svg944"
   sodipodi:docname="dropi.svg"
   inkscape:version="1.0 (4035a4fb49, 2020-05-01)">
  <title
     id="title853">Dropi Wash</title>
  <sodipodi:namedview
     inkscape:document-rotation="0"
     pagecolor="#ffffff"
     bordercolor="#666666"
     borderopacity="1"
     objecttolerance="10"
     gridtolerance="10"
     guidetolerance="10"
     inkscape:pageopacity="0"
     inkscape:pageshadow="2"
     inkscape:window-width="1918"
     inkscape:window-height="2054"
     id="namedview28"
     showgrid="false"
     inkscape:zoom="4.1025243"
     inkscape:cx="464.66153"
     inkscape:cy="313.99636"
     inkscape:window-x="0"
     inkscape:window-y="0"
     inkscape:window-maximized="0"
     inkscape:current-layer="svg944" />
  <defs
     id="defs938">
    <radialGradient
       gradientUnits="userSpaceOnUse"
       gradientTransform="matrix(1,0,0,1.6016949,0,-45.367403)"
       r="11.8"
       fy="75.399353"
       fx="134.22211"
       cy="75.399353"
       cx="134.22211"
       id="radialGradient1436"
       xlink:href="#radialGradient1301" />
    <radialGradient
       id="radialGradient1301"
       cx="4.9243999"
       cy="812.25763"
       r="2.0156"
       gradientTransform="matrix(4.1561,0,0,-6.0971,-183.4513,5111.1011)"
       gradientUnits="userSpaceOnUse">
      <stop
         offset="0"
         style="stop-color:#FFFFFF"
         id="stop1297" />
      <stop
         offset="1"
         style="stop-color:#FFFFFF;stop-opacity:0"
         id="stop1299" />
    </radialGradient>
    <radialGradient
       r="2.0156"
       cy="812.25763"
       cx="4.9243999"
       gradientTransform="matrix(4.1561,0,0,-6.0971,113.6708,4991.7004)"
       gradientUnits="userSpaceOnUse"
       id="radialGradient1438"
       xlink:href="#radialGradient1327" />
    <radialGradient
       id="radialGradient1327"
       cx="-3063.0005"
       cy="46457.09"
       r="2.8906"
       gradientTransform="matrix(0.09778378,-0.0314469,-0.01689566,-0.182,1213.6948,8438.2109)"
       gradientUnits="userSpaceOnUse">
      <stop
         offset="0"
         style="stop-color:#FFFFFF"
         id="stop1323" />
      <stop
         offset="1"
         style="stop-color:#FFFFFF;stop-opacity:0"
         id="stop1325" />
    </radialGradient>
    <radialGradient
       r="2.8906"
       cy="46457.09"
       cx="-3063.0005"
       gradientTransform="matrix(0.17783837,0.00310327,0.08094574,-0.13395839,-3372.653,6589.4456)"
       gradientUnits="userSpaceOnUse"
       id="radialGradient1135"
       xlink:href="#ellipse2641_1_" />
    <radialGradient
       r="2.0156"
       cy="49327.691"
       cx="-2315.6289"
       gradientTransform="matrix(0.17909229,0.00498699,0.07330513,-0.12541427,-3342.1283,6537.5158)"
       gradientUnits="userSpaceOnUse"
       id="radialGradient1137"
       xlink:href="#ellipse2643_1_" />
    <radialGradient
       r="2.8906"
       cy="29183.807"
       cx="-6259.2109"
       gradientTransform="matrix(0.22769643,-0.01123426,0.21898511,-0.26700463,-5109.4352,8076.7893)"
       gradientUnits="userSpaceOnUse"
       id="radialGradient1139"
       xlink:href="#ellipse2649_1_" />
    <radialGradient
       r="2.0156"
       cy="35898.184"
       cx="1898.124"
       gradientTransform="matrix(0.31454843,0.0141898,0.10487682,-0.19268924,-4484.6037,7219.9397)"
       gradientUnits="userSpaceOnUse"
       id="radialGradient1141"
       xlink:href="#ellipse2651_1_" />
  </defs>
  <metadata
     id="metadata941">
    <rdf:RDF>
      <cc:Work
         rdf:about="">
        <dc:format>image/svg+xml</dc:format>
        <dc:type
           rdf:resource="http://purl.org/dc/dcmitype/StillImage" />
        <dc:title>Dropi Wash</dc:title>
        <dc:date>05-2020</dc:date>
        <dc:creator>
          <cc:Agent>
            <dc:title>Marco Oliveera</dc:title>
          </cc:Agent>
        </dc:creator>
      </cc:Work>
    </rdf:RDF>
  </metadata>
  <g
     id="g1391"
     transform="matrix(0.36183952,0,0,0.36183952,-79.242855,-31.948488)"
     style="opacity:1;mix-blend-mode:normal;fill:#014e84;fill-opacity:1">
    <path
       id="path1381"
       class="st14"
       d="m 219,98.3 c 0.7,0 2.4,0 5.1,-0.1 2.7,0 5.7,-0.1 9.2,-0.1 3.5,0 7.1,0 10.8,-0.1 3.7,0 7.1,-0.1 10,-0.1 8.9,0 16.6,1.3 23.1,3.9 6.5,2.6 11.8,6.2 16,10.9 4.2,4.7 7.3,10.2 9.3,16.6 2,6.4 3,13.5 3,21.2 0,7.9 -1,15 -3.1,21.3 -2,6.3 -5.2,11.6 -9.4,16 -4.3,4.4 -9.6,7.8 -16.1,10.1 -6.5,2.3 -14.2,3.5 -23.1,3.5 -3,0 -5.8,0 -8.3,-0.1 -2.5,-0.1 -5.1,-0.1 -7.7,-0.1 -2.6,0 -5.4,0 -8.3,-0.1 -2.9,-0.1 -6.3,-0.1 -10.2,-0.1 V 98.3 Z m 29.9,17.4 c -0.9,0.1 -2.3,0.1 -3.9,0.1 v 67.9 c 1.4,0.1 2.6,0.2 3.6,0.2 1,0 2.5,0 4.4,0 4.6,0 8.5,-0.8 11.6,-2.3 3.1,-1.5 5.6,-3.7 7.5,-6.5 1.9,-2.8 3.3,-6.3 4.1,-10.4 0.8,-4.1 1.3,-8.7 1.3,-13.8 0,-23.5 -8.1,-35.2 -24.4,-35.2 -1.9,-0.1 -3.3,-0.1 -4.2,0 z"
       style="fill:#014e84;fill-opacity:1" />
    <path
       id="path1383"
       class="st14"
       d="m 352.7,147.6 c -1.4,0.6 -2.7,1.5 -3.9,2.8 -1.3,1.3 -2.3,2.9 -3.1,4.9 -0.8,2 -1.3,4.3 -1.3,7.1 v 38.7 h -24.9 v -39.5 c 0,-6.1 -0.4,-11.1 -1.3,-15.1 -0.9,-4 -1.9,-7.3 -3.1,-9.8 -1.3,-2.8 -2.7,-5.1 -4.2,-6.8 l 20,-6.1 c 0.8,1 1.7,2.2 2.7,3.5 0.7,1.1 1.5,2.5 2.4,4.3 0.8,1.7 1.5,3.7 2,5.9 2.6,-4.9 5.7,-8.4 9.4,-10.5 3.7,-2.1 7.9,-3.2 12.8,-3.2 2.2,0 4.2,0.2 5.9,0.5 1.7,0.4 3.2,0.7 4.3,1.1 l -6.5,22.9 c -0.7,-0.4 -1.7,-0.8 -2.9,-1.1 -1.2,-0.4 -2.7,-0.5 -4.5,-0.5 -1.2,0 -2.5,0.3 -3.8,0.9 z"
       style="fill:#014e84;fill-opacity:1" />
    <path
       id="path1385"
       class="st14"
       d="m 434.9,133.7 c 5.7,6.9 8.6,16.4 8.6,28.6 0,5.8 -0.8,11.1 -2.3,16 -1.5,4.9 -3.8,9.2 -6.9,12.8 -3.1,3.6 -7,6.4 -11.6,8.5 -4.7,2.1 -10.1,3.1 -16.3,3.1 -6.3,0 -11.7,-0.9 -16.3,-2.7 -4.6,-1.8 -8.3,-4.3 -11.2,-7.7 -2.9,-3.3 -5,-7.4 -6.5,-12.2 -1.4,-4.8 -2.1,-10.2 -2.1,-16.2 0,-5.8 0.8,-11.1 2.3,-16.1 1.5,-5 3.8,-9.2 6.9,-12.8 3.1,-3.6 7,-6.4 11.6,-8.5 4.7,-2.1 10.2,-3.1 16.4,-3.1 12.6,-0.1 21.7,3.4 27.4,10.3 z m -33.4,9.3 c -1.3,1.1 -2.2,2.5 -2.9,4.4 -0.7,1.9 -1.2,4.1 -1.4,6.6 -0.3,2.5 -0.4,5.3 -0.4,8.2 0,3 0.2,5.9 0.5,8.7 0.3,2.7 0.9,5.1 1.7,7.1 0.8,2 1.9,3.6 3.4,4.8 1.5,1.2 3.3,1.7 5.5,1.7 1.9,0 3.5,-0.6 4.7,-1.7 1.3,-1.1 2.2,-2.6 2.9,-4.5 0.7,-1.9 1.2,-4.1 1.4,-6.6 0.3,-2.5 0.4,-5.2 0.4,-8.1 0,-3.1 -0.2,-6.1 -0.5,-8.7 -0.3,-2.7 -0.9,-5 -1.7,-7.1 -0.8,-2 -1.9,-3.6 -3.4,-4.8 -1.5,-1.2 -3.3,-1.7 -5.5,-1.7 -1.9,0.1 -3.5,0.6 -4.7,1.7 z"
       style="fill:#014e84;fill-opacity:1" />
    <path
       id="path1387"
       class="st14"
       d="m 453.4,234.7 v -73.1 c 0,-6.1 -0.4,-11.1 -1.3,-15.1 -0.9,-4 -1.9,-7.3 -3.1,-9.8 -1.3,-2.8 -2.7,-5.1 -4.2,-6.8 l 20,-6.1 c 1.3,1.2 2.4,2.7 3.5,4.4 0.8,1.4 1.7,3.2 2.5,5.4 0.8,2.2 1.5,4.7 1.9,7.5 2,-5.8 4.7,-10.1 8.3,-13 3.5,-2.9 8.1,-4.3 13.8,-4.3 4.9,0 9.3,0.9 13,2.7 3.7,1.8 6.8,4.4 9.3,7.7 2.5,3.3 4.3,7.3 5.5,11.9 1.2,4.7 1.8,9.9 1.8,15.6 0,5.7 -0.9,11 -2.8,15.9 -1.9,4.9 -4.5,9.2 -7.9,12.8 -3.4,3.6 -7.4,6.4 -12,8.5 -4.6,2.1 -9.6,3.1 -15,3.1 -2.9,0 -5.7,-0.3 -8.2,-0.9 v 29.5 z m 31.9,-91.4 c -1.4,1.3 -2.7,2.9 -3.7,5 -1.1,2.1 -1.9,4.5 -2.4,7.3 -0.6,2.8 -0.9,5.7 -0.9,8.7 v 19 c 0.7,0.2 1.7,0.4 3,0.7 1.3,0.3 2.4,0.4 3.5,0.4 2.5,0 4.6,-0.5 6.3,-1.6 1.7,-1.1 3,-2.5 4,-4.4 1,-1.9 1.7,-4.1 2.1,-6.7 0.4,-2.6 0.6,-5.4 0.6,-8.4 0,-2.8 -0.1,-5.6 -0.2,-8.2 -0.1,-2.6 -0.4,-5 -1,-7 -0.6,-2 -1.4,-3.6 -2.4,-4.9 -1.1,-1.2 -2.5,-1.8 -4.4,-1.8 -1.6,0 -3.1,0.6 -4.5,1.9 z"
       style="fill:#014e84;fill-opacity:1" />
    <path
       id="path1389"
       class="st14"
       d="m 553.7,92 c 2.3,2.5 3.5,5.7 3.5,9.6 0,4 -1.2,7.2 -3.5,9.9 -2.4,2.6 -5.9,4 -10.6,4 -4.4,0 -7.8,-1.3 -10.2,-3.9 -2.4,-2.6 -3.5,-5.6 -3.5,-9.2 0,-4 1.2,-7.4 3.6,-10.1 2.4,-2.7 6,-4 10.7,-4 4.3,-0.1 7.7,1.2 10,3.7 z m -17.3,105.2 c -3.7,-3 -5.5,-7.2 -5.5,-12.7 v -59.7 h 24.9 v 52.9 c 0,2.3 0.4,3.9 1.1,4.7 0.7,0.8 1.8,1.2 3.3,1.2 0.8,0 1.7,-0.1 2.5,-0.2 0.8,-0.2 1.4,-0.3 1.6,-0.4 l 2.2,15 c -0.1,0.1 -0.6,0.3 -1.4,0.7 -0.8,0.4 -1.9,0.8 -3.3,1.2 -1.4,0.5 -3,0.9 -4.9,1.2 -1.9,0.3 -3.9,0.5 -6,0.5 -6,0.1 -10.9,-1.4 -14.5,-4.4 z"
       style="fill:#014e84;fill-opacity:1" />
  </g>
  <g
     id="g1121"
     transform="matrix(0.54035313,0,0,0.62781519,19.000939,-114.91416)"
     style="opacity:0.993;fill:#33aaff;fill-opacity:1;stroke:#ffffff;stroke-opacity:1">
    <path
       id="path119"
       class="st15"
       d="m 252.2,231.6 c 0.1,-0.7 0.3,-1.7 0.6,-3.1 0.3,-1.4 0.6,-2.7 1,-4 -0.5,0.6 -1,1.3 -1.6,2 -0.6,0.7 -1.2,1.4 -1.8,2 -0.6,0.7 -1.1,1.3 -1.6,1.8 -0.5,0.5 -0.9,0.9 -1.2,1.2 l -23.5,23.9 c -0.4,0.4 -0.8,0.6 -1.3,0.6 h -11.3 c -1.2,0 -2,-1 -1.8,-2.2 l 8,-47.7 c 0.2,-0.9 0.9,-1.6 1.8,-1.6 H 234 c 1.2,0 2.1,1.1 1.8,2.3 l -6.2,24.4 c -0.3,0.9 -0.6,2 -1,3.5 -0.4,1.4 -0.8,2.7 -1.1,3.9 0.4,-0.5 0.9,-1.1 1.4,-1.8 0.6,-0.7 1.2,-1.4 1.7,-2.1 0.6,-0.7 1.1,-1.3 1.7,-2 0.6,-0.6 1,-1.1 1.3,-1.5 l 24,-26.1 c 0.4,-0.4 0.9,-0.6 1.4,-0.6 h 13 c 1.2,0 2.1,1.1 1.8,2.3 l -6,25.3 c -0.1,0.4 -0.2,0.8 -0.4,1.4 -0.1,0.6 -0.3,1.2 -0.5,1.8 -0.2,0.6 -0.3,1.3 -0.6,2 -0.2,0.7 -0.4,1.3 -0.6,1.9 0.5,-0.6 1,-1.2 1.6,-1.9 0.6,-0.7 1.2,-1.4 1.8,-2 0.6,-0.7 1.2,-1.3 1.7,-1.9 0.5,-0.6 0.9,-1 1.2,-1.3 l 25.2,-27.5 c 0.4,-0.5 1.1,-0.7 1.7,-0.6 l 10.5,-1 c 1.5,0.3 2.1,2.1 1,3.2 l -47.1,49.2 c -0.3,0.3 -0.8,0.5 -1.3,0.5 h -12 c -1.2,0 -2,-1.1 -1.8,-2.2 z"
       style="fill:#33aaff;fill-opacity:1;stroke:#ffffff;stroke-opacity:1" />
    <path
       id="path121"
       class="st15"
       d="m 302.3,256.7 c -2.8,0 -5,-0.4 -6.6,-1.2 -1.7,-0.8 -2.9,-1.8 -3.6,-3.1 -0.8,-1.3 -1.2,-2.7 -1.3,-4.2 -0.1,-1.6 0.1,-3.1 0.6,-4.7 1.1,-3.7 2.8,-7.1 5.1,-10.3 2.3,-3.2 5.1,-5.9 8.5,-8.3 3.4,-2.4 7.2,-4.2 11.5,-5.5 4.3,-1.3 9,-2 14.1,-2 2.4,0 4.5,0.1 6.4,0.4 1.8,0.3 3.5,0.7 5.3,1.3 0.2,0.1 0.3,0.1 0.5,0.1 l 5.3,0.2 c 1.4,0.1 2.2,1.6 1.5,2.8 l -8.1,14.1 c -0.7,1.2 -1.4,2.4 -1.9,3.5 -0.5,1.1 -0.9,2.1 -1.2,3 -0.7,2.2 -0.8,4 -0.6,5.5 0.2,0.9 0.4,1.8 0.8,2.7 0.5,1.1 -0.1,2.3 -1.2,2.6 l -11.5,3 c -0.8,0.2 -1.6,-0.1 -2,-0.7 -0.4,-0.6 -0.8,-1.4 -1,-2.2 -0.4,-1.3 -0.3,-2.7 0.1,-4.2 0.2,-0.6 0.4,-1.3 0.7,-2.1 0.3,-0.8 0.6,-1.7 1.1,-2.7 l -2.1,2.2 c -3.4,3.5 -6.8,6.1 -10.2,7.5 -3.3,1.6 -6.8,2.3 -10.2,2.3 z m 8,-9.1 c 1.1,0 2.4,-0.6 4,-1.7 1.6,-1.1 3.2,-2.6 4.9,-4.3 1.7,-1.7 3.3,-3.7 4.9,-5.7 1.6,-2.1 3,-4 4.2,-5.9 l 0.6,-0.9 c 0.8,-1.2 -0.1,-2.9 -1.6,-2.9 v 0 c -2.5,0 -4.8,0.7 -6.9,2 -2,1.3 -3.8,2.9 -5.4,4.7 -1.5,1.8 -2.8,3.8 -3.8,5.8 -1,2 -1.7,3.7 -2.1,5 -0.3,1.1 -0.4,2 -0.3,2.8 0,0.8 0.5,1.1 1.5,1.1 z"
       style="fill:#33aaff;fill-opacity:1;stroke:#ffffff;stroke-opacity:1" />
    <path
       id="path123"
       class="st15"
       d="m 383.1,217.1 c 5,0 8.6,0.8 10.8,2.3 1.7,1.2 2.7,3 2.8,5.3 0.1,0.9 -0.5,1.8 -1.5,2 l -11.9,2.7 c -0.1,-0.5 -0.1,-0.9 -0.1,-1.3 0,-0.4 -0.1,-0.8 -0.3,-1.2 -0.2,-0.4 -0.5,-0.6 -0.9,-0.8 -0.4,-0.2 -1.1,-0.3 -2,-0.3 -1.5,0 -2.5,0.3 -3.2,1 -0.7,0.6 -1.1,1.2 -1.3,1.8 -0.3,1 -0.1,1.8 0.7,2.3 0.7,0.6 1.4,1.1 2.1,1.4 l 2.5,1.2 c 1.1,0.6 2.2,1.1 3.2,1.7 1,0.6 1.8,1.2 2.5,2 0.7,0.8 1.1,1.8 1.3,2.9 0.2,1.1 0.1,2.5 -0.4,4.2 -0.5,1.7 -1.5,3.4 -2.9,4.9 -1.4,1.5 -3.2,2.9 -5.4,4.1 -2.2,1.2 -4.8,2.1 -7.8,2.8 -3,0.7 -6.3,1 -9.9,1 -2.4,0 -4.7,-0.2 -6.9,-0.7 -2.2,-0.5 -4.2,-1 -5.9,-1.5 -1,-0.3 -2,-0.7 -3,-1 -1.3,-0.5 -1.6,-2.2 -0.6,-3.1 l 6.3,-5.8 c 0.6,-0.5 1.5,-0.7 2.2,-0.3 0.9,0.5 1.9,1 2.8,1.4 1.1,0.6 2.3,1.1 3.6,1.5 1.3,0.4 2.6,0.6 3.7,0.6 1.9,0 3.4,-0.3 4.4,-0.8 1,-0.5 1.7,-1.2 2,-2.1 0.3,-1 0.2,-1.9 -0.3,-2.5 -0.5,-0.6 -1.5,-1.2 -2.8,-1.8 l -3.2,-1.3 c -0.9,-0.3 -1.7,-0.7 -2.5,-1.2 -0.8,-0.5 -1.5,-1.2 -2.1,-2 -0.6,-0.8 -1,-1.8 -1.2,-3 -0.2,-1.2 0,-2.6 0.5,-4.2 0.5,-1.7 1.5,-3.3 2.8,-4.8 1.4,-1.5 3.1,-2.7 5.2,-3.8 2.1,-1.1 4.6,-1.9 7.5,-2.5 2.5,-0.8 5.7,-1.1 9.2,-1.1 z"
       style="fill:#33aaff;fill-opacity:1;stroke:#ffffff;stroke-opacity:1" />
    <path
       id="path125"
       class="st15"
       d="m 421.6,204.3 c 8.2,-3.2 25.6,-19.7 19.9,-9.6 -1.1,2.5 -3.6,7.6 -3.9,8.1 l -5.2,8.8 c -1.4,2.6 -2.6,4.6 -5.1,7.7 -2.4,3 -5,6.2 -7.8,9.4 2.2,-2.2 4.3,-3.9 6.2,-5.4 2,-1.4 3.9,-2.6 5.8,-3.5 1.9,-0.9 3.8,-1.5 5.7,-1.8 1.9,-0.4 3.9,-0.5 6.1,-0.5 4.8,0 8,0.8 9.7,2.5 1.6,1.6 2,4 1.1,7.1 -0.7,2.2 -1.6,4.2 -2.9,6.1 -1.3,1.9 -2.6,3.7 -3.9,5.4 -1.3,1.7 -2.6,3.3 -3.7,4.8 -1.2,1.5 -2,3 -2.4,4.5 -0.3,0.9 -0.6,2.1 -0.8,3.6 -0.2,0.9 -0.3,1.9 -0.3,2.9 0,1 -0.9,1.8 -1.9,1.8 h -13.1 c -1.1,0 -2,-1 -1.9,-2.1 0.1,-0.6 0.1,-1.1 0.2,-1.5 0.2,-0.8 0.4,-1.6 0.6,-2.3 0.6,-1.8 1.4,-3.7 2.6,-5.4 1.2,-1.8 2.4,-3.5 3.6,-5.2 1.2,-1.7 2.4,-3.4 3.5,-5 1.1,-1.6 1.9,-3.3 2.4,-4.8 0.2,-0.7 0.2,-1.3 -0.1,-1.7 -0.3,-0.4 -0.9,-0.7 -1.8,-0.7 -1.4,0 -2.9,0.5 -4.7,1.5 -1.7,1 -3.5,2.3 -5.2,4 -1.8,1.6 -3.4,3.4 -4.9,5.3 -1.5,1.9 -2.8,3.8 -3.9,5.5 l -6.7,11.5 c -0.3,0.6 -0.9,0.9 -1.6,0.9 h -12.6 c -1.4,0 -2.3,-1.6 -1.6,-2.8 l 28.6,-49.1"
       style="fill:#33aaff;fill-opacity:1;stroke:#ffffff;stroke-opacity:1" />
  </g>
</svg>
