<?xml version="1.0" encoding="UTF-8" standalone="no"?>
<svg
   xmlns:dc="http://purl.org/dc/elements/1.1/"
   xmlns:cc="http://creativecommons.org/ns#"
   xmlns:rdf="http://www.w3.org/1999/02/22-rdf-syntax-ns#"
   xmlns:svg="http://www.w3.org/2000/svg"
   xmlns="http://www.w3.org/2000/svg"
   xmlns:xlink="http://www.w3.org/1999/xlink"
   xmlns:sodipodi="http://sodipodi.sourceforge.net/DTD/sodipodi-0.dtd"
   xmlns:inkscape="http://www.inkscape.org/namespaces/inkscape"
   id="svg944"
   version="1.1"
   viewBox="0 0 198.17067 84.562576"
   height="84.562576mm"
   width="198.17067mm"
   sodipodi:docname="logo.svg"
   inkscape:version="1.0 (4035a4fb49, 2020-05-01)">
  <sodipodi:namedview
     inkscape:document-rotation="0"
     pagecolor="#ffffff"
     bordercolor="#666666"
     borderopacity="1"
     objecttolerance="10"
     gridtolerance="10"
     guidetolerance="10"
     inkscape:pageopacity="0"
     inkscape:pageshadow="2"
     inkscape:window-width="1918"
     inkscape:window-height="2054"
     id="namedview73"
     showgrid="false"
     inkscape:zoom="1.3075487"
     inkscape:cx="352.21398"
     inkscape:cy="248.10575"
     inkscape:window-x="0"
     inkscape:window-y="0"
     inkscape:window-maximized="0"
     inkscape:current-layer="svg944" />
  <defs
     id="defs938">
    <radialGradient
       xlink:href="#radialGradient1301"
       id="radialGradient1436"
       cx="134.22211"
       cy="75.399353"
       fx="134.22211"
       fy="75.399353"
       r="11.8"
       gradientTransform="matrix(1,0,0,1.6016949,0,-45.367403)"
       gradientUnits="userSpaceOnUse" />
    <radialGradient
       gradientUnits="userSpaceOnUse"
       gradientTransform="matrix(4.1561,0,0,-6.0971,-183.4513,5111.1011)"
       r="2.0156"
       cy="812.25763"
       cx="4.9243999"
       id="radialGradient1301">
      <stop
         id="stop1297"
         style="stop-color:#FFFFFF"
         offset="0" />
      <stop
         id="stop1299"
         style="stop-color:#FFFFFF;stop-opacity:0"
         offset="1" />
    </radialGradient>
    <radialGradient
       xlink:href="#radialGradient1327"
       id="radialGradient1438"
       gradientUnits="userSpaceOnUse"
       gradientTransform="matrix(4.1561,0,0,-6.0971,113.6708,4991.7004)"
       cx="4.9243999"
       cy="812.25763"
       r="2.0156" />
    <radialGradient
       gradientUnits="userSpaceOnUse"
       gradientTransform="matrix(0.09778378,-0.0314469,-0.01689566,-0.182,1213.6948,8438.2109)"
       r="2.8906"
       cy="46457.09"
       cx="-3063.0005"
       id="radialGradient1327">
      <stop
         id="stop1323"
         style="stop-color:#FFFFFF"
         offset="0" />
      <stop
         id="stop1325"
         style="stop-color:#FFFFFF;stop-opacity:0"
         offset="1" />
    </radialGradient>
    <radialGradient
       xlink:href="#ellipse2641_1_"
       id="radialGradient1135"
       gradientUnits="userSpaceOnUse"
       gradientTransform="matrix(0.17783837,0.00310327,0.08094574,-0.13395839,-3372.653,6589.4456)"
       cx="-3063.0005"
       cy="46457.09"
       r="2.8906" />
    <radialGradient
       xlink:href="#ellipse2643_1_"
       id="radialGradient1137"
       gradientUnits="userSpaceOnUse"
       gradientTransform="matrix(0.17909229,0.00498699,0.07330513,-0.12541427,-3342.1283,6537.5158)"
       cx="-2315.6289"
       cy="49327.691"
       r="2.0156" />
    <radialGradient
       xlink:href="#ellipse2649_1_"
       id="radialGradient1139"
       gradientUnits="userSpaceOnUse"
       gradientTransform="matrix(0.22769643,-0.01123426,0.21898511,-0.26700463,-5109.4352,8076.7893)"
       cx="-6259.2109"
       cy="29183.807"
       r="2.8906" />
    <radialGradient
       xlink:href="#ellipse2651_1_"
       id="radialGradient1141"
       gradientUnits="userSpaceOnUse"
       gradientTransform="matrix(0.31454843,0.0141898,0.10487682,-0.19268924,-4484.6037,7219.9397)"
       cx="1898.124"
       cy="35898.184"
       r="2.0156" />
  </defs>
  <metadata
     id="metadata941">
    <rdf:RDF>
      <cc:Work
         rdf:about="">
        <dc:format>image/svg+xml</dc:format>
        <dc:type
           rdf:resource="http://purl.org/dc/dcmitype/StillImage" />
        <dc:title />
      </cc:Work>
    </rdf:RDF>
  </metadata>
  <path
     id="path1350"
     class="st16"
     d="m 42.329946,78.54927 c 0,-5.286197 -1.03506,-15.599826 -4.9535,-23.436706 -0.517529,-1.293824 -1.256858,-3.068212 -1.44169,-4.32507 6.838786,-3.290011 14.379934,-7.060585 20.442426,-10.017898 2.291918,0.51753 5.729794,1.145959 9.426435,2.846414 2.181018,2.846414 2.217985,4.140238 2.735515,5.36013 3.622708,13.455774 2.181018,22.845243 -1.330791,33.084939 l -9.796099,-0.1109 -9.7961,0.1109 C 45.693889,80.767254 44.104333,79.769161 42.329946,78.54927 Z"
     style="fill:#e6f2f2;fill-opacity:1;stroke-width:0.369664" />
  <g
     style="fill:#00011b;fill-opacity:1"
     transform="matrix(0.36183952,0,0,0.36183952,-6.8114232,-10.640344)"
     id="g1391">
    <path
       style="fill:#00011b;fill-opacity:1"
       d="m 219,98.3 c 0.7,0 2.4,0 5.1,-0.1 2.7,0 5.7,-0.1 9.2,-0.1 3.5,0 7.1,0 10.8,-0.1 3.7,0 7.1,-0.1 10,-0.1 8.9,0 16.6,1.3 23.1,3.9 6.5,2.6 11.8,6.2 16,10.9 4.2,4.7 7.3,10.2 9.3,16.6 2,6.4 3,13.5 3,21.2 0,7.9 -1,15 -3.1,21.3 -2,6.3 -5.2,11.6 -9.4,16 -4.3,4.4 -9.6,7.8 -16.1,10.1 -6.5,2.3 -14.2,3.5 -23.1,3.5 -3,0 -5.8,0 -8.3,-0.1 -2.5,-0.1 -5.1,-0.1 -7.7,-0.1 -2.6,0 -5.4,0 -8.3,-0.1 -2.9,-0.1 -6.3,-0.1 -10.2,-0.1 V 98.3 Z m 29.9,17.4 c -0.9,0.1 -2.3,0.1 -3.9,0.1 v 67.9 c 1.4,0.1 2.6,0.2 3.6,0.2 1,0 2.5,0 4.4,0 4.6,0 8.5,-0.8 11.6,-2.3 3.1,-1.5 5.6,-3.7 7.5,-6.5 1.9,-2.8 3.3,-6.3 4.1,-10.4 0.8,-4.1 1.3,-8.7 1.3,-13.8 0,-23.5 -8.1,-35.2 -24.4,-35.2 -1.9,-0.1 -3.3,-0.1 -4.2,0 z"
       class="st14"
       id="path1381" />
    <path
       style="fill:#00011b;fill-opacity:1"
       d="m 352.7,147.6 c -1.4,0.6 -2.7,1.5 -3.9,2.8 -1.3,1.3 -2.3,2.9 -3.1,4.9 -0.8,2 -1.3,4.3 -1.3,7.1 v 38.7 h -24.9 v -39.5 c 0,-6.1 -0.4,-11.1 -1.3,-15.1 -0.9,-4 -1.9,-7.3 -3.1,-9.8 -1.3,-2.8 -2.7,-5.1 -4.2,-6.8 l 20,-6.1 c 0.8,1 1.7,2.2 2.7,3.5 0.7,1.1 1.5,2.5 2.4,4.3 0.8,1.7 1.5,3.7 2,5.9 2.6,-4.9 5.7,-8.4 9.4,-10.5 3.7,-2.1 7.9,-3.2 12.8,-3.2 2.2,0 4.2,0.2 5.9,0.5 1.7,0.4 3.2,0.7 4.3,1.1 l -6.5,22.9 c -0.7,-0.4 -1.7,-0.8 -2.9,-1.1 -1.2,-0.4 -2.7,-0.5 -4.5,-0.5 -1.2,0 -2.5,0.3 -3.8,0.9 z"
       class="st14"
       id="path1383" />
    <path
       style="fill:#00011b;fill-opacity:1"
       d="m 434.9,133.7 c 5.7,6.9 8.6,16.4 8.6,28.6 0,5.8 -0.8,11.1 -2.3,16 -1.5,4.9 -3.8,9.2 -6.9,12.8 -3.1,3.6 -7,6.4 -11.6,8.5 -4.7,2.1 -10.1,3.1 -16.3,3.1 -6.3,0 -11.7,-0.9 -16.3,-2.7 -4.6,-1.8 -8.3,-4.3 -11.2,-7.7 -2.9,-3.3 -5,-7.4 -6.5,-12.2 -1.4,-4.8 -2.1,-10.2 -2.1,-16.2 0,-5.8 0.8,-11.1 2.3,-16.1 1.5,-5 3.8,-9.2 6.9,-12.8 3.1,-3.6 7,-6.4 11.6,-8.5 4.7,-2.1 10.2,-3.1 16.4,-3.1 12.6,-0.1 21.7,3.4 27.4,10.3 z m -33.4,9.3 c -1.3,1.1 -2.2,2.5 -2.9,4.4 -0.7,1.9 -1.2,4.1 -1.4,6.6 -0.3,2.5 -0.4,5.3 -0.4,8.2 0,3 0.2,5.9 0.5,8.7 0.3,2.7 0.9,5.1 1.7,7.1 0.8,2 1.9,3.6 3.4,4.8 1.5,1.2 3.3,1.7 5.5,1.7 1.9,0 3.5,-0.6 4.7,-1.7 1.3,-1.1 2.2,-2.6 2.9,-4.5 0.7,-1.9 1.2,-4.1 1.4,-6.6 0.3,-2.5 0.4,-5.2 0.4,-8.1 0,-3.1 -0.2,-6.1 -0.5,-8.7 -0.3,-2.7 -0.9,-5 -1.7,-7.1 -0.8,-2 -1.9,-3.6 -3.4,-4.8 -1.5,-1.2 -3.3,-1.7 -5.5,-1.7 -1.9,0.1 -3.5,0.6 -4.7,1.7 z"
       class="st14"
       id="path1385" />
    <path
       style="fill:#00011b;fill-opacity:1"
       d="m 453.4,234.7 v -73.1 c 0,-6.1 -0.4,-11.1 -1.3,-15.1 -0.9,-4 -1.9,-7.3 -3.1,-9.8 -1.3,-2.8 -2.7,-5.1 -4.2,-6.8 l 20,-6.1 c 1.3,1.2 2.4,2.7 3.5,4.4 0.8,1.4 1.7,3.2 2.5,5.4 0.8,2.2 1.5,4.7 1.9,7.5 2,-5.8 4.7,-10.1 8.3,-13 3.5,-2.9 8.1,-4.3 13.8,-4.3 4.9,0 9.3,0.9 13,2.7 3.7,1.8 6.8,4.4 9.3,7.7 2.5,3.3 4.3,7.3 5.5,11.9 1.2,4.7 1.8,9.9 1.8,15.6 0,5.7 -0.9,11 -2.8,15.9 -1.9,4.9 -4.5,9.2 -7.9,12.8 -3.4,3.6 -7.4,6.4 -12,8.5 -4.6,2.1 -9.6,3.1 -15,3.1 -2.9,0 -5.7,-0.3 -8.2,-0.9 v 29.5 z m 31.9,-91.4 c -1.4,1.3 -2.7,2.9 -3.7,5 -1.1,2.1 -1.9,4.5 -2.4,7.3 -0.6,2.8 -0.9,5.7 -0.9,8.7 v 19 c 0.7,0.2 1.7,0.4 3,0.7 1.3,0.3 2.4,0.4 3.5,0.4 2.5,0 4.6,-0.5 6.3,-1.6 1.7,-1.1 3,-2.5 4,-4.4 1,-1.9 1.7,-4.1 2.1,-6.7 0.4,-2.6 0.6,-5.4 0.6,-8.4 0,-2.8 -0.1,-5.6 -0.2,-8.2 -0.1,-2.6 -0.4,-5 -1,-7 -0.6,-2 -1.4,-3.6 -2.4,-4.9 -1.1,-1.2 -2.5,-1.8 -4.4,-1.8 -1.6,0 -3.1,0.6 -4.5,1.9 z"
       class="st14"
       id="path1387" />
    <path
       style="fill:#00011b;fill-opacity:1"
       d="m 553.7,92 c 2.3,2.5 3.5,5.7 3.5,9.6 0,4 -1.2,7.2 -3.5,9.9 -2.4,2.6 -5.9,4 -10.6,4 -4.4,0 -7.8,-1.3 -10.2,-3.9 -2.4,-2.6 -3.5,-5.6 -3.5,-9.2 0,-4 1.2,-7.4 3.6,-10.1 2.4,-2.7 6,-4 10.7,-4 4.3,-0.1 7.7,1.2 10,3.7 z m -17.3,105.2 c -3.7,-3 -5.5,-7.2 -5.5,-12.7 v -59.7 h 24.9 v 52.9 c 0,2.3 0.4,3.9 1.1,4.7 0.7,0.8 1.8,1.2 3.3,1.2 0.8,0 1.7,-0.1 2.5,-0.2 0.8,-0.2 1.4,-0.3 1.6,-0.4 l 2.2,15 c -0.1,0.1 -0.6,0.3 -1.4,0.7 -0.8,0.4 -1.9,0.8 -3.3,1.2 -1.4,0.5 -3,0.9 -4.9,1.2 -1.9,0.3 -3.9,0.5 -6,0.5 -6,0.1 -10.9,-1.4 -14.5,-4.4 z"
       class="st14"
       id="path1389" />
  </g>
  <g
     style="fill:#5894ab;fill-opacity:1"
     transform="matrix(0.35391937,0,0,0.35391937,-4.5650818,-9.0491885)"
     id="g1121">
    <path
       style="fill:#5894ab;fill-opacity:1"
       d="m 252.2,231.6 c 0.1,-0.7 0.3,-1.7 0.6,-3.1 0.3,-1.4 0.6,-2.7 1,-4 -0.5,0.6 -1,1.3 -1.6,2 -0.6,0.7 -1.2,1.4 -1.8,2 -0.6,0.7 -1.1,1.3 -1.6,1.8 -0.5,0.5 -0.9,0.9 -1.2,1.2 l -23.5,23.9 c -0.4,0.4 -0.8,0.6 -1.3,0.6 h -11.3 c -1.2,0 -2,-1 -1.8,-2.2 l 8,-47.7 c 0.2,-0.9 0.9,-1.6 1.8,-1.6 H 234 c 1.2,0 2.1,1.1 1.8,2.3 l -6.2,24.4 c -0.3,0.9 -0.6,2 -1,3.5 -0.4,1.4 -0.8,2.7 -1.1,3.9 0.4,-0.5 0.9,-1.1 1.4,-1.8 0.6,-0.7 1.2,-1.4 1.7,-2.1 0.6,-0.7 1.1,-1.3 1.7,-2 0.6,-0.6 1,-1.1 1.3,-1.5 l 24,-26.1 c 0.4,-0.4 0.9,-0.6 1.4,-0.6 h 13 c 1.2,0 2.1,1.1 1.8,2.3 l -6,25.3 c -0.1,0.4 -0.2,0.8 -0.4,1.4 -0.1,0.6 -0.3,1.2 -0.5,1.8 -0.2,0.6 -0.3,1.3 -0.6,2 -0.2,0.7 -0.4,1.3 -0.6,1.9 0.5,-0.6 1,-1.2 1.6,-1.9 0.6,-0.7 1.2,-1.4 1.8,-2 0.6,-0.7 1.2,-1.3 1.7,-1.9 0.5,-0.6 0.9,-1 1.2,-1.3 l 25.2,-27.5 c 0.4,-0.5 1.1,-0.7 1.7,-0.6 l 10.5,-1 c 1.5,0.3 2.1,2.1 1,3.2 l -47.1,49.2 c -0.3,0.3 -0.8,0.5 -1.3,0.5 h -12 c -1.2,0 -2,-1.1 -1.8,-2.2 z"
       class="st15"
       id="path119" />
    <path
       style="fill:#5894ab;fill-opacity:1"
       d="m 302.3,256.7 c -2.8,0 -5,-0.4 -6.6,-1.2 -1.7,-0.8 -2.9,-1.8 -3.6,-3.1 -0.8,-1.3 -1.2,-2.7 -1.3,-4.2 -0.1,-1.6 0.1,-3.1 0.6,-4.7 1.1,-3.7 2.8,-7.1 5.1,-10.3 2.3,-3.2 5.1,-5.9 8.5,-8.3 3.4,-2.4 7.2,-4.2 11.5,-5.5 4.3,-1.3 9,-2 14.1,-2 2.4,0 4.5,0.1 6.4,0.4 1.8,0.3 3.5,0.7 5.3,1.3 0.2,0.1 0.3,0.1 0.5,0.1 l 5.3,0.2 c 1.4,0.1 2.2,1.6 1.5,2.8 l -8.1,14.1 c -0.7,1.2 -1.4,2.4 -1.9,3.5 -0.5,1.1 -0.9,2.1 -1.2,3 -0.7,2.2 -0.8,4 -0.6,5.5 0.2,0.9 0.4,1.8 0.8,2.7 0.5,1.1 -0.1,2.3 -1.2,2.6 l -11.5,3 c -0.8,0.2 -1.6,-0.1 -2,-0.7 -0.4,-0.6 -0.8,-1.4 -1,-2.2 -0.4,-1.3 -0.3,-2.7 0.1,-4.2 0.2,-0.6 0.4,-1.3 0.7,-2.1 0.3,-0.8 0.6,-1.7 1.1,-2.7 l -2.1,2.2 c -3.4,3.5 -6.8,6.1 -10.2,7.5 -3.3,1.6 -6.8,2.3 -10.2,2.3 z m 8,-9.1 c 1.1,0 2.4,-0.6 4,-1.7 1.6,-1.1 3.2,-2.6 4.9,-4.3 1.7,-1.7 3.3,-3.7 4.9,-5.7 1.6,-2.1 3,-4 4.2,-5.9 l 0.6,-0.9 c 0.8,-1.2 -0.1,-2.9 -1.6,-2.9 v 0 c -2.5,0 -4.8,0.7 -6.9,2 -2,1.3 -3.8,2.9 -5.4,4.7 -1.5,1.8 -2.8,3.8 -3.8,5.8 -1,2 -1.7,3.7 -2.1,5 -0.3,1.1 -0.4,2 -0.3,2.8 0,0.8 0.5,1.1 1.5,1.1 z"
       class="st15"
       id="path121" />
    <path
       style="fill:#5894ab;fill-opacity:1"
       d="m 383.1,217.1 c 5,0 8.6,0.8 10.8,2.3 1.7,1.2 2.7,3 2.8,5.3 0.1,0.9 -0.5,1.8 -1.5,2 l -11.9,2.7 c -0.1,-0.5 -0.1,-0.9 -0.1,-1.3 0,-0.4 -0.1,-0.8 -0.3,-1.2 -0.2,-0.4 -0.5,-0.6 -0.9,-0.8 -0.4,-0.2 -1.1,-0.3 -2,-0.3 -1.5,0 -2.5,0.3 -3.2,1 -0.7,0.6 -1.1,1.2 -1.3,1.8 -0.3,1 -0.1,1.8 0.7,2.3 0.7,0.6 1.4,1.1 2.1,1.4 l 2.5,1.2 c 1.1,0.6 2.2,1.1 3.2,1.7 1,0.6 1.8,1.2 2.5,2 0.7,0.8 1.1,1.8 1.3,2.9 0.2,1.1 0.1,2.5 -0.4,4.2 -0.5,1.7 -1.5,3.4 -2.9,4.9 -1.4,1.5 -3.2,2.9 -5.4,4.1 -2.2,1.2 -4.8,2.1 -7.8,2.8 -3,0.7 -6.3,1 -9.9,1 -2.4,0 -4.7,-0.2 -6.9,-0.7 -2.2,-0.5 -4.2,-1 -5.9,-1.5 -1,-0.3 -2,-0.7 -3,-1 -1.3,-0.5 -1.6,-2.2 -0.6,-3.1 l 6.3,-5.8 c 0.6,-0.5 1.5,-0.7 2.2,-0.3 0.9,0.5 1.9,1 2.8,1.4 1.1,0.6 2.3,1.1 3.6,1.5 1.3,0.4 2.6,0.6 3.7,0.6 1.9,0 3.4,-0.3 4.4,-0.8 1,-0.5 1.7,-1.2 2,-2.1 0.3,-1 0.2,-1.9 -0.3,-2.5 -0.5,-0.6 -1.5,-1.2 -2.8,-1.8 l -3.2,-1.3 c -0.9,-0.3 -1.7,-0.7 -2.5,-1.2 -0.8,-0.5 -1.5,-1.2 -2.1,-2 -0.6,-0.8 -1,-1.8 -1.2,-3 -0.2,-1.2 0,-2.6 0.5,-4.2 0.5,-1.7 1.5,-3.3 2.8,-4.8 1.4,-1.5 3.1,-2.7 5.2,-3.8 2.1,-1.1 4.6,-1.9 7.5,-2.5 2.5,-0.8 5.7,-1.1 9.2,-1.1 z"
       class="st15"
       id="path123" />
    <path
       style="fill:#5894ab;fill-opacity:1"
       d="m 421.6,204.3 c 8.2,-3.2 25.6,-19.7 19.9,-9.6 -1.1,2.5 -3.6,7.6 -3.9,8.1 l -5.2,8.8 c -1.4,2.6 -2.6,4.6 -5.1,7.7 -2.4,3 -5,6.2 -7.8,9.4 2.2,-2.2 4.3,-3.9 6.2,-5.4 2,-1.4 3.9,-2.6 5.8,-3.5 1.9,-0.9 3.8,-1.5 5.7,-1.8 1.9,-0.4 3.9,-0.5 6.1,-0.5 4.8,0 8,0.8 9.7,2.5 1.6,1.6 2,4 1.1,7.1 -0.7,2.2 -1.6,4.2 -2.9,6.1 -1.3,1.9 -2.6,3.7 -3.9,5.4 -1.3,1.7 -2.6,3.3 -3.7,4.8 -1.2,1.5 -2,3 -2.4,4.5 -0.3,0.9 -0.6,2.1 -0.8,3.6 -0.2,0.9 -0.3,1.9 -0.3,2.9 0,1 -0.9,1.8 -1.9,1.8 h -13.1 c -1.1,0 -2,-1 -1.9,-2.1 0.1,-0.6 0.1,-1.1 0.2,-1.5 0.2,-0.8 0.4,-1.6 0.6,-2.3 0.6,-1.8 1.4,-3.7 2.6,-5.4 1.2,-1.8 2.4,-3.5 3.6,-5.2 1.2,-1.7 2.4,-3.4 3.5,-5 1.1,-1.6 1.9,-3.3 2.4,-4.8 0.2,-0.7 0.2,-1.3 -0.1,-1.7 -0.3,-0.4 -0.9,-0.7 -1.8,-0.7 -1.4,0 -2.9,0.5 -4.7,1.5 -1.7,1 -3.5,2.3 -5.2,4 -1.8,1.6 -3.4,3.4 -4.9,5.3 -1.5,1.9 -2.8,3.8 -3.9,5.5 l -6.7,11.5 c -0.3,0.6 -0.9,0.9 -1.6,0.9 h -12.6 c -1.4,0 -2.3,-1.6 -1.6,-2.8 l 28.6,-49.1"
       class="st15"
       id="path125" />
  </g>
  <g
     id="g1348"
     transform="matrix(0.36966412,0,0,0.36966412,-52.669119,107.61703)">
    <path
       id="path1243"
       class="st17"
       d="m 305.7,-140.8 c -14,0 -27.1,12.2 -29.7,27.1 -2.4,14.9 6.9,27.1 20.7,27.1 8.2,0 16.2,-4.2 21.8,-10.8 5.3,-3.7 9.2,-8.5 10.3,-14.1 1,-4.5 -0.2,-8.8 -2.7,-12 -1.8,-10.1 -9.8,-17.3 -20.4,-17.3 z m 0,0.8 c 10.3,0 17.7,6.9 19.8,16.5 l -4.3,0.6 c 2.3,6.7 4.4,13.9 -6.6,23.8 l 3.2,1.6 c -5.5,6.1 -12.7,9.5 -20.4,9.5 -13.5,0 -21.2,-11.2 -18.8,-25.7 2,-14.4 13.6,-26.3 27.1,-26.3 z m -1.3,7.4 c -9.6,0 -18.9,8.5 -20.7,18.9 -1.8,10.4 4.8,18.9 14.5,18.9 9.6,0 18.9,-8.5 20.7,-18.9 1.7,-10.4 -4.9,-18.9 -14.5,-18.9 z m -0.3,0.8 c 9.3,0 15.7,8 14.1,18.1 -1.6,10.1 -10.9,18 -19.9,17.7 -9.3,-0.5 -14.8,-7.7 -13.2,-17.7 1.8,-10.1 9.8,-17.8 19,-18.1 z m 21.6,8.8 c 2.4,2.6 3.2,7.5 2.4,11.2 -0.6,4.7 -5.5,10.4 -10,13.6 l -2.6,-1.3 c 0.6,-1.6 12,-7.9 6.1,-23.1 z" />
    <path
       id="path1265"
       class="st17"
       d="m 316.6,-167.1 c -2.9,0 -5.1,2.4 -5.1,5.3 0,2.9 2.2,5.3 5.1,5.3 v 0 c 2.9,0 5.1,-2.4 5.1,-5.3 0.2,-2.9 -2.2,-5.3 -5.1,-5.3 z m 0.4,0.5 c 2.6,0 4.8,2.1 4.8,4.8 v 0 c 0,2.6 -2.1,4.8 -4.8,4.8 v 0 c -2.6,0 -4.8,-2.1 -4.8,-4.8 0,-2.7 2,-4.8 4.8,-4.8 z m -2.1,1.5 c -1.1,0.8 -1.6,2.1 -1.6,3.4 0,2.2 1.9,4.2 4.2,4.2 v 0 c 0.2,0 0.3,0 0.5,0 h -0.2 c -2.2,0 -4,-1.9 -4,-4.3 -0.2,-1.4 0.3,-2.5 1.1,-3.3 z" />
    <path
       id="path1267"
       class="st17"
       d="m 281.3,-149.9 c -2.9,0 -5.6,2.2 -6.3,5.1 -0.6,2.9 1.3,5.1 4,5.1 v 0 c 2.9,0 5.6,-2.2 6.3,-5.1 0.7,-2.8 -1.3,-5.1 -4,-5.1 z m 0,0.3 c 2.6,0 4.3,2.1 3.7,4.7 v 0 c -0.5,2.6 -3.2,4.7 -5.8,4.7 v 0 c -2.6,0 -4.3,-2.1 -3.7,-4.7 0.7,-2.6 3.2,-4.7 5.8,-4.7 z m -2.2,1.5 c -1.3,0.8 -2.1,1.9 -2.4,3.2 -0.5,2.2 1,4 3.2,4 v 0 c 0.2,0 0.3,0 0.5,0 h -0.2 c -2.2,0 -3.5,-1.9 -3.1,-4.2 0.2,-1.1 1,-2.2 2,-3 z" />
    <path
       id="path1269"
       class="st17"
       d="m 292.1,-155.3 c -2.9,0 -5.6,2.2 -6.3,5.1 -0.6,2.9 1.3,5.1 4,5.1 v 0 c 2.9,0 5.6,-2.2 6.3,-5.1 0.6,-2.9 -1.1,-5.1 -4,-5.1 z m 0.1,0.3 c 2.6,0 4.3,2.1 3.7,4.7 v 0 c -0.5,2.6 -3.2,4.7 -5.8,4.7 v 0 c -2.6,0 -4.3,-2.1 -3.7,-4.7 0.5,-2.6 3.1,-4.7 5.8,-4.7 z m -2.4,1.4 c -1.3,0.8 -2.1,1.9 -2.4,3.2 -0.5,2.2 1,4 3.2,4 v 0 c 0.2,0 0.3,0 0.5,0 H 291 c -2.2,0 -3.5,-1.9 -3.1,-4.2 0.3,-1.1 1,-2.2 1.9,-3 z" />
    <path
       id="rect1271"
       class="st17"
       d="m 295,-181 -55.6,27.1 c 3.5,16.1 15.3,25.3 17.4,75.4 l 14.3,9.7 h 53.4 c 15.1,-45.9 8.5,-66.9 3.6,-90 -1.9,-5 -2.5,-8 -7.6,-14.5 -8.6,-4 -16.9,-5.8 -25.5,-7.7 z m -0.1,0.2 c 6,1.5 15.1,3 25.2,7.6 v 0 l -53.4,27.6 -26.9,-8.3 z m 25.4,7.9 c 4.5,5.8 5.5,9 7.2,14.3 l -58.5,25.1 c -0.3,-1.5 -1.5,-8.4 -2,-11.4 z m 7.3,14.6 c 10.5,37.7 5,65 -3.6,89 h -52.5 c 2,-20.6 3.1,-42 -2.3,-63.6 z m -87.7,4.9 26.8,8.6 c 0.3,1.6 1.7,9.6 2,11.5 l -25.1,-8.9 c -1.6,-4.4 -2.6,-6.1 -3.7,-11.2 z m 4,11.5 25.1,9.2 c 4.9,21.5 4.2,42.7 2.2,63.1 l -14,-9.4 c 0.2,-20 -5.1,-47 -13.3,-62.9 z" />
    <path
       id="path1325"
       class="st17"
       d="m 294.4,-179.3 -49.7,24.4 c 7.4,2.4 15.8,5.2 22.6,7.7 l 49.1,-25.4 c -7.3,-3.4 -14.7,-4.8 -22,-6.7 z m -0.1,0.3 c 4,1.1 15.4,3.5 21.4,6.4 l -48.4,25 c -9.2,-3.8 -14.2,-5.3 -21.5,-7.3 z" />
  </g>
  <g
     id="g1510"
     transform="matrix(0.52529583,0,0,0.52529583,-55.717899,-6.0362186)">
    <g
       id="g1473">
      <path
         style="fill:#aae6ff;fill-opacity:1"
         id="path1047"
         class="st19"
         d="m 136.1221,172.19935 c -0.6,-0.1 -1.5,-0.3 -2.4,-0.7 -2.4,-0.9 -2.9,-1.3 -3.8,-3.1 -0.8,-1.5 -1.1,-3 -1.1,-4.6 0,-3.4 1.6,-7.2 4.7,-11 l 0.7,-0.9 0.2,-5.9 c 0.3,-11.3 0.5,-15.9 0.9,-17.9 0.2,-1 0.5,-1.9 0.5,-2 -0.3,-0.3 -5.3,2.1 -6.9,3.5 -1.8,1.3 -2.5,1.6 -3.9,2.1 -0.9,0.3 -1.3,0.3 -2.7,0.3 -1.4,0 -1.8,-0.1 -2.8,-0.3 -2.3,-0.7 -3.8,-2 -6.2,-4.9 -0.8,-1 -2.1,-2.6 -2.8,-3.4 -3.3,-3.9 -4.1,-5.6 -4.4,-9 -0.6,-3.5 4.7,-6.3 7.3,-4.5 0.1,-0.1 -0.1,-1.3 -0.1,-2 -0.1,-1.1 -0.3,-1 0.3,-2.3 3,-3.6 5.6,-2.6 5.8,-1.9 -2.4,-5 -9.2,-20.9 2.2,-38.7 0.3,-0.4 3.6,-5 4.5,-7.3 0.8,-2.2 0.9,-3.8 0.9,-7.1 0,-4.4 -0.5,-5.9 -3,-14.1 -2.7,-8.9 -3.4,-12.1 -3.6,-17.2 -0.1,-2.4 0.1,-5.9 0.4,-6.8 0.6,-2.6 2.4,1.2 2.8,2.2 7.2,11.9 16.2,14.6 26.3,21.6 7.5,5.1 13.9,9.8 19.6,15 0.9,0.9 2.6,2.4 3.1,3 3.8,-1.1 6.4,1.1 7.6,3.2 0.5,0.9 0.9,2.3 0.9,3.2 v 0.7 c -0.3,-1.7 -1.8,-3.2 -3,-3.9 -1.1,-0.6 -2.2,-0.9 -3.4,-0.9 l 1,1.1 c 2.8,3.3 5.1,6.8 6.5,9.8 1.2,2.6 3.6,9.4 4.2,12.7 0.8,4 0.8,7.5 1.4,11.7 0.3,0.8 1.1,0.9 1.8,1.2 1.1,0.5 3.6,1 5.1,1.3 1.4,0.2 2.4,0.5 3,1 0.6,0.4 2.1,2.6 2.5,3.4 0.2,0.5 0.5,0.7 0.6,2.2 0,1.1 -0.1,1.5 -0.5,2.3 -0.8,1.5 -2.4,3.4 -4.6,5 -7.4,5.1 -7.6,2.4 -8.3,6.7 0,0.3 -0.1,0.9 1.1,0.7 0.8,-0.2 1,0.2 1.4,0.6 0.6,0.9 0.5,1.2 0.5,2 0,0.9 -1.1,2.4 -3,3.6 -2.6,1.7 -4.3,2.4 -5.8,2.4 -0.9,0 -1,-0.1 -3,-1 -3,-1.5 -4.5,-2.4 -4.9,-3.2 -0.2,-0.4 -0.3,-0.7 -0.2,-0.9 0.3,-0.5 0.3,-0.5 -1.9,0.7 -1.7,0.9 -2.6,1.3 -4.6,2.1 -3.6,1.3 -6.7,2.2 -11.5,2.4 -3.5,0.1 -3.8,-0.2 -4.8,1 -1,1.7 -2,4.2 -5.7,16.5 -0.5,1.8 -1.3,3.9 -1.5,4.8 -0.3,0.9 -0.9,2.1 -0.9,2.2 0,0 1.3,-0.5 2,-0.6 2.7,-0.7 4.7,-0.7 8,-0.4 1.2,-0.3 2,-0.1 2.5,0.1 1.6,0.9 1.8,3.2 -0.1,5.4 -0.9,1 -2,2.2 -2.7,2.5 -0.7,0.3 -3.2,1.1 -4.1,1.3 -0.5,0.1 -1.6,0.2 -2.6,0.3 -1.9,0.1 -2.4,0 -2.9,0.5 -0.1,0.1 0.5,1 1,2.2 2,4.7 3,8.9 2.3,10.1 -0.6,0.9 -3.8,2 -7.1,2.1 -1.1,-0.1 -2.3,-0.1 -2.8,-0.2 z" />
      <path
         style="fill:#000a00"
         id="path1065"
         class="st22"
         d="m 121.4221,11.49935 c -0.5,-0.1 -0.9,0.7 -1.1,2.8 -2.2,21.6 14.8,33.6 1.1,50.4 0,0 -1.9,-1.6 -2.5,-1.9 -2.2,-0.9 -3.4,-0.9 -4.7,-0.3 -0.9,0.6 -1.9,1.9 -2.2,3.2 -0.3,0.3 -0.3,1.6 -0.6,2.2 -1.3,5.1 0.6,13.3 1.5,17.1 0.3,2.6 3,6.5 -1.4,17.4 1.9,1.9 3.6,0.7 1.8,3.8 -0.3,2.6 0.1,2.1 0.1,3.4 -1.5,-1.2 -8,0.3 -7.3,4.8 0,2 0.6,4.6 2.5,6.8 0.9,1.6 1.5,1.9 2.8,3.5 0.9,0.9 1.9,2.6 2.5,3.2 2.2,2.8 4.7,4.1 7.2,4.4 2.8,0.3 5.7,-0.6 8.2,-2.8 1.3,-0.9 6.1,-3.5 6.5,-3.2 0,0 -0.8,2.8 -0.8,3.8 0,0.9 -0.6,14.6 -0.6,17.2 v 4.6 c -0.5,0.5 -0.8,1.1 -1.5,1.8 -2.3,3.2 -3.4,5.3 -4,8.7 -0.4,3 0.3,5 1.7,7.3 0.9,1.2 2.3,1.6 4.5,2.5 2.9,0.5 5.7,0.3 8.5,-0.5 2.3,-0.9 3,-0.7 3.1,-2.8 -0.4,-4.3 -1.6,-6.9 -2.8,-9.5 -0.3,-0.6 -0.7,-1.6 -0.7,-1.6 0,0 1,-0.3 2.3,-0.3 2,0 3.6,-0.3 6.2,-1.3 1.3,-0.4 3.4,-2.7 4.1,-3.7 1.6,-3.4 0.3,-5.7 -3.2,-5.1 -4.2,-0.3 -7.1,0 -9.7,1 1.4,-2.5 5.7,-19.1 7.1,-21.1 0.8,-1.9 0.9,-2.9 2.5,-2.8 l 2.8,-0.1 c 5.5,-0.1 12.3,-2 16.1,-4.3 l 2.2,-1.2 c -0.7,1.1 0.7,2.4 2.1,2.9 0.7,0.9 2.5,1.5 3.2,1.7 1.9,1.6 3.7,1.3 7.1,-0.5 3.5,-1.9 4.5,-3.4 4.7,-4.8 0,-1.3 -0.4,-2.6 -1.7,-2.8 -0.7,0 -1.8,0.8 -1.1,-1.4 0.1,-0.8 0.3,-1.6 0.6,-1.6 0,0 0.9,-0.6 1.9,-0.9 3,-1.6 9.4,-4.6 10.7,-9.8 0.1,-2.6 -0.6,-3.2 -1.9,-5.1 -0.6,-0.9 -1.3,-2 -3.8,-2.4 -2.1,-0.2 -3.6,-0.7 -5.5,-1.3 -2.4,-1.3 -1.5,1 -2.7,-10.9 -0.6,-3.5 -1.9,-7.6 -3.4,-12.1 -1.6,-4.5 -4.7,-9.1 -8.6,-13.4 3.2,0.3 5.7,2.6 6.2,5.4 0.1,-0.3 0.1,-0.7 0.1,-1 0,-4 -3,-7.2 -6.6,-7.2 -0.7,0 -1.3,0.1 -2,0.3 -8,-8.1 -18.5,-15.4 -27.1,-20.9 -0.6,-0.6 -2.5,-1.6 -4.1,-2.6 -8.6,-5.1 -14.7,-10.3 -17.5,-15.8 -1.3,-1.7 -2.2,-3.2 -2.8,-3.2 z m -0.1,0.5 c 0.4,-0.1 1.1,0.7 2.4,3.1 0.8,1.8 3.4,4.9 5.1,6.9 3.4,3.2 9.1,7.6 13.2,9.8 11.5,7.7 21.5,14.4 29.8,22.9 -1.8,1 -3.2,3 -3.5,5.2 1.1,-1.8 3.2,-3 5.4,-3.2 2.6,2.8 5,5.9 7.2,9.3 1.9,3.8 2.5,4.8 3.8,9.2 1.9,5.4 1.8,7.1 2.2,8.8 0.9,4.4 0.7,8.7 0.3,13.1 -0.9,4.4 -1.9,6 -3.2,8.6 -2.5,4.1 -5.7,8.9 -9.8,12.1 -8.1,7.5 -25.6,8 -35,4.7 0.1,-2.3 1,-7.3 1.7,-6.7 4.2,-0.1 5.1,-5.7 3.2,-7.6 0.3,-0.9 1.3,-5.4 3.8,-10.2 0.6,-1.6 1.3,-2.8 1.3,-2.8 0,-0.3 -3.4,-2.8 -5.7,-4.1 -3.8,-1.9 -5.7,-2.8 -7.5,-3.5 -4.1,-1.6 -6.3,-2.6 -7.2,-3.2 -0.3,-0.3 -2.7,-0.5 -3,-1.1 -0.3,-1.3 -0.6,-2.6 -2.5,-3.6 -1.3,-0.4 -3,-0.3 -4.6,1.2 l -0.6,-2.2 c 0.3,-5.3 1.9,-9.1 4,-12.4 14.3,-19.1 -2.8,-30.5 -1.3,-51.3 0,-1.4 0,-2.9 0.5,-3 z m 29.9,39.1 c -3.6,0 -6.6,3.2 -6.6,7.2 0,0.3 0,0.7 0.1,1 0.5,-3.1 3.4,-5.5 6.9,-5.5 2.5,0 4.9,1.2 6.1,3.2 -0.6,-3.3 -3.3,-5.9 -6.5,-5.9 z m 1,7.4 c -3.2,-0.3 -5.3,4.7 -4.5,11.3 v 0 c 0.7,6.5 3.8,12 7.1,12.3 v 0 c 3.2,0.3 5.3,-4.7 4.5,-11.3 v 0 c -0.7,-6.6 -3.8,-12 -7.1,-12.3 z m -0.4,0.3 h 0.4 c 3,0.3 6,5.6 6.7,11.9 0.1,0.7 0.1,1.3 0.1,2 -0.7,-4 -3.3,-7.3 -6.1,-7.5 -2.7,-0.2 -4.5,2.4 -4.6,5.9 -0.1,-0.4 -0.1,-0.9 -0.2,-1.3 -0.7,-6 1,-10.8 3.7,-11 z m 21.7,2.8 c -2.8,0 -5.5,4.8 -6.1,10.6 v 0 c -0.5,5.9 1.3,10.6 4.2,10.6 2.8,0 5.5,-4.8 6.1,-10.6 v 0 c 0.5,-5.8 -1.4,-10.6 -4.2,-10.6 z m 0.1,0.3 c 2.6,0 4.3,4.6 3.7,10.4 -0.1,0.4 -0.1,0.8 -0.1,1.1 -0.1,-3.3 -1.8,-5.8 -4.1,-5.8 -2.5,0 -4.8,2.8 -5.3,6.4 0,-0.6 0.1,-1.1 0.1,-1.8 0.4,-5.7 3.1,-10.3 5.7,-10.3 z m -59.1,1.9 c 0.1,0 0.2,0.1 0.4,0.3 0,0.3 -0.3,0.3 0,0 -0.3,0.3 -0.6,0.3 -0.3,0 -0.2,-0.1 -0.2,-0.3 -0.1,-0.3 z m -0.7,1.3 c 0.1,0 0.3,0.1 0.4,0.3 -0.6,0.3 -0.6,0.3 -0.6,0 0,-0.2 0.1,-0.3 0.2,-0.3 z m -0.2,1.4 c 0.1,0 0.3,0.1 0.3,0.5 0,0.4 -0.3,0.3 -0.3,0.3 -0.3,0.3 -0.3,0 -0.3,-0.3 0,-0.3 0.1,-0.5 0.3,-0.5 z m -0.3,1.7 c 0.6,0 0.6,0.3 0.3,0.6 0,0 -0.3,0.3 -0.6,0.3 -0.7,0.1 -0.3,-0.9 0.3,-0.9 z m 0.3,1.6 c 0.3,0 0.3,0.6 0,0.9 -0.6,0.3 -0.9,0.3 -0.9,-0.3 0,-0.3 0.2,-0.6 0.9,-0.6 z m 0.3,1.6 c 0.3,0 0.3,0.6 0,0.9 -0.6,0.6 -0.9,0.3 -0.9,-0.3 -0.1,-0.3 0.3,-0.6 0.9,-0.6 z m 38.4,0.2 c 0.9,0.1 1.4,0.6 1.7,2.1 0.2,1.3 -0.2,1.9 -1,2 -0.9,-0.1 -1.5,-0.5 -2,-2.2 -0.1,-1.1 0.4,-1.9 1.3,-1.9 z m -38.3,1.6 c 0.1,0 0.2,0.1 0.3,0.1 0.3,0 0.3,0.3 0,0.6 -0.6,0.6 -0.9,0.6 -1.3,0 0.2,-0.4 0.6,-0.8 1,-0.7 z m 59.6,0.4 c 0.7,0 1.3,0.8 1.1,1.8 -0.3,1.5 -0.9,1.9 -1.7,1.9 -0.7,-0.1 -1.1,-0.7 -0.9,-1.9 0.3,-1.3 0.7,-1.8 1.5,-1.8 z m -59,0.9 c 0.3,0 0.3,0.6 0,0.9 -0.3,0.6 -0.9,0.3 -0.9,0 -0.1,-0.2 0.5,-0.9 0.9,-0.9 z m 0.2,1.9 c 0.1,0 0.2,0.1 0.3,0.1 -0.3,0.3 -0.3,0.3 -0.6,0.3 -0.3,0 -0.3,0 -0.3,-0.3 0.3,0 0.3,-0.2 0.6,-0.1 z m 0.4,1.2 c 0.1,0 0.2,0.1 0.3,0.1 -0.3,0.6 -0.6,0.6 -0.9,0.3 0,-0.2 0.3,-0.4 0.6,-0.4 z m 35.4,0.4 c 1.1,1.4 2.5,2.4 4,2.5 1.6,0.1 3,-0.8 3.8,-2.4 -0.7,2.4 -2,3.7 -3.6,3.6 -1.4,-0.1 -2.9,-1.5 -4.2,-3.7 z m -34.7,0.5 c 0.1,0 0.2,0.1 0.2,0.3 0,0.3 -0.3,0.3 -0.3,0.6 -0.6,0.3 -0.9,0 -0.3,-0.6 0.1,-0.3 0.3,-0.3 0.4,-0.3 z m 52.4,0.6 c 0.7,1.5 2,2.5 3.4,2.5 1.3,0 2.5,-0.7 3.5,-2 -1.1,2 -2.4,3 -3.6,3 -1.5,0 -2.7,-1.3 -3.3,-3.5 z m -46.3,0.6 c 1.3,0 2.2,0.7 3,1.9 0.5,0.7 0.9,4.1 1.2,10.8 0,1.6 0.3,3.2 0.3,3.2 0.3,0 0.3,0.6 0.6,1.3 0.3,0.7 0.6,1.3 0.6,1.6 0,0.3 0.6,1.6 1.3,2.8 1.2,1.8 2,3.9 2.5,5.7 0.3,0.9 0.9,1.6 1.3,1.9 0.3,0.3 0.9,0.8 0.9,0.8 l -1.2,1.5 c -0.5,0.7 -1.2,1.7 -1.5,2.4 -1.6,3.9 -1.3,5.3 -1.2,5.8 0.7,3.6 3,4.7 6.1,4 0.8,-0.2 2,-1.4 2.3,-2 0.9,-1.8 0.5,-0.2 0.5,-0.2 -0.9,3.4 -3.7,5.2 -7.2,6.5 -1.3,0.1 -1.5,0.1 -2.5,1.3 -0.9,0.9 -2.2,1.9 -2.8,2.2 -4.2,2 -9.8,-0.2 -11.9,-3.4 -0.8,-1.2 -6.3,-7.2 -5.2,-7.3 3.1,3.2 5.7,6.1 10.7,4.4 1.1,-0.5 1.5,-0.9 1.5,1 0,0.9 0.3,1.6 0.3,1.6 0.3,0 0.6,-0.6 0.9,-1.9 0.6,-2.2 0.2,-2.5 1.7,-4.9 0.9,-1 2.4,-1.1 3.6,-3.4 0.7,-1.5 0.7,-2.2 0.7,-3.4 -1.1,-4.6 -3.3,-6 -7.6,-9.4 0,-0.3 0.3,-2 0.3,-3.9 0,-1.9 -0.3,-2.6 -0.6,-3.2 -0.3,-0.6 -0.3,-1.6 -0.6,-2.6 -0.3,-0.9 -0.9,-2.6 -1.5,-4.1 -0.9,-2.2 -1.3,-2.8 -1.3,-4.4 0,-2.8 0.9,-5.1 3.4,-6 0.5,-0.5 1,-0.6 1.4,-0.6 z m -6.2,0.2 c 0.6,0 0.6,0 0.3,0.3 -0.3,0.3 -0.6,0.3 -0.6,0 0,0.1 0,-0.3 0.3,-0.3 z m 1.6,0.7 -0.3,0.3 c -0.3,0.3 -0.6,0.3 -0.6,0.3 l 0.3,-0.3 c 0.3,0 0.6,-0.3 0.6,-0.3 z m 35.8,4.5 c -1,0.1 -3.6,1.9 -3.2,2.2 0.3,0.2 1.2,-0.1 1.3,0.3 -0.3,11.3 3,19.6 10.2,19.6 5.7,0 10.8,-7.8 15.3,-16.3 1.5,-0.1 1.2,-0.7 1.1,-1.8 0,-1.8 -1.4,-2.8 -1.7,1.5 -4.2,4.2 -7.1,6.1 -11.7,6.2 -6.3,0.1 -8.8,-2 -12.1,-9.9 -0.3,-0.5 1.8,-0.9 0.9,-1.8 0.2,0.1 0.1,0 -0.1,0 z m -26.7,0.6 c 0.3,0 0.3,0 0.3,0.3 l -0.3,0.3 c -0.3,0 -0.3,0 -0.3,-0.3 z m 1.2,0.2 c 0.2,0.1 0.3,0.3 0.3,0.7 0,0.6 0,0.6 -0.3,0.6 -0.6,0 -0.6,-0.3 -0.6,-0.9 0.2,-0.3 0.4,-0.4 0.6,-0.4 z m 1.3,0.7 c 0.3,0 0.3,0.3 0.3,0.6 0,0.3 -0.3,0.6 -0.3,0.6 -0.3,0 -0.3,-0.3 -0.3,-0.6 0,-0.3 0.3,-0.6 0.3,-0.6 z m 1.6,0 c 0.3,0 0.3,0.3 0.3,0.9 0,0.9 -0.6,1.3 -0.6,0.6 -0.4,-0.6 0,-1.5 0.3,-1.5 z m 1.3,0.9 c 0.2,0 0.3,0.3 0.3,0.7 0,0.6 -0.3,0.6 -0.3,0.6 -0.3,0 -0.6,-0.3 -0.3,-0.9 0,-0.2 0.1,-0.4 0.3,-0.4 z m 2.1,0.7 c 0.3,0 0.3,0.6 0.3,0.9 0,0.9 0,0.9 -0.3,0.6 -0.3,-0.2 -0.3,-1.5 0,-1.5 z m -1.3,0.4 c 0.3,0 0.3,0 0.3,0.3 0,0.3 0,0.6 -0.3,0.3 -0.3,0 -0.3,-0.3 -0.3,-0.3 z m 2.7,0.4 c 0.1,0 0.1,0.1 0.2,0.1 v 0.9 c -0.3,0.3 -0.3,0.3 -0.3,-0.3 0,-0.4 0,-0.7 0.1,-0.7 z m 17,0.1 c 1.3,4.7 6.2,9 11.2,8.5 1.3,-0.1 1.2,-0.1 2.7,-0.5 -1.6,2.4 -3.8,3.3 -6.1,3.3 -4.5,0 -7.5,-5.1 -7.8,-11.3 z m -15.9,0.4 c 0,0 0.3,0 0.3,0.3 0.3,0.3 0,0.9 -0.3,0.9 -0.2,0 -0.2,-1.2 0,-1.2 z m 1.1,0.2 c 0.3,-0.1 0.8,0.5 0.8,1 0,0.6 0,0.9 -0.9,0.6 0,-0.3 -0.3,-1.3 0,-1.6 0,0.1 0,0 0.1,0 z m 1.5,0.9 c 0.1,0 0.1,0.1 0.2,0.1 0.3,0 0.3,0.3 0.3,0.6 0,0.3 0,0.3 -0.3,0.3 -0.3,0 -0.3,-0.3 -0.3,-0.6 0,-0.3 0,-0.4 0.1,-0.4 z m 1.4,0.9 c 0.1,0 0.1,0.1 0.1,0.3 -0.2,-0.3 -0.2,-0.3 -0.1,-0.3 z m 1.3,0.4 c 0.2,0.1 0.3,0.5 0.1,1 0,0.3 -0.3,0.3 -0.6,0.6 -0.3,0 0,-1.6 0.3,-1.6 0.1,0 0.1,0 0.2,0 -0.1,0 0,0 0,0 z m 1.4,0.3 c 0.1,0 0.1,0.1 0.2,0.1 v 0.9 c -0.3,0.3 -0.6,0.6 -0.3,0.6 -0.3,0 -0.3,0 -0.3,-0.6 0,-0.6 0.2,-1 0.4,-1 z m 44.9,0.7 c 0.5,0 1.4,0.5 2.8,1.1 1.4,0.5 3,0.5 5.5,1 1.3,0.2 2.2,1.5 4.1,4.8 0.7,1.8 -0.5,5.4 -4.6,8.2 -1.8,1.5 -6.5,3.7 -7.2,3.9 -0.4,0.1 -1.3,-0.3 -1.5,-0.5 -0.6,-1.3 -1.9,-0.6 -0.6,-0.3 1.9,0.9 1.3,4.1 -0.9,7.3 -0.9,1.9 -1.9,1.9 -1.3,1.9 0.6,0 1.5,-1.6 2.5,-3.2 1.3,-1.3 2.8,-1.9 3.4,0.3 0.9,2.6 -4.1,5.6 -6.2,5.9 -2.2,1.1 -4.2,0.9 -4.8,-0.3 -1.1,-0.2 -3,-1.1 -3,-1.5 0.1,-0.7 0.4,-1.1 -0.5,-0.4 -0.5,0.4 -0.7,-0.3 -1.3,-0.7 -0.9,-0.6 -0.5,-1.5 1.6,-4.1 3.8,-4.1 5,-5.9 7.1,-9.1 2.5,-4.2 3,-5.7 6,-7.5 5.5,-3.4 0.4,-1.1 -2,0.7 -1.5,1.2 0.4,-2.4 0.3,-5.3 0,-1.6 0.1,-2.2 0.6,-2.2 z m -43.7,0.4 c 0.3,0 0.3,0.3 0,0.9 -0.3,0.6 -0.6,0.6 -0.3,0 v -0.6 c 0,-0.3 0,-0.3 0.3,-0.3 z m -10.4,1.2 c 0.1,0 0.2,0 0.3,0.1 v 0.6 c -0.3,0.3 -0.6,0.3 -0.6,0 -0.2,-0.2 0.1,-0.6 0.3,-0.7 z m -2.2,0.4 c 0.3,0 0.3,0 0.3,0.3 0,0.3 -0.3,0.3 -0.3,0.3 -0.3,0 -0.3,0 -0.3,-0.3 z m 3.5,0 h 0.3 c 0,0.3 -0.6,0.9 -0.6,0.6 0,-0.3 0,-0.6 0.3,-0.6 z m -4.8,0.5 c 0.1,0 0.2,0.1 0.3,0.1 0,0.3 -0.3,0.3 -0.6,0.3 0.1,-0.2 0.1,-0.4 0.3,-0.4 z m 5.8,0 c 0.1,0 0.1,0.1 0.2,0.1 0,0.3 0,0.6 -0.3,0.6 -0.3,0 -0.3,0 -0.3,-0.3 0,-0.2 0.2,-0.4 0.4,-0.4 z m -6.9,0.2 c 0.1,0.1 0.2,0.2 0.2,0.5 0,0.3 0,0.6 -0.3,0.6 -0.3,0 -0.6,-0.6 -0.3,-0.9 0.2,-0.2 0.3,-0.2 0.4,-0.2 z m 7.9,0.3 0.3,0.3 c 0.1,0 -0.2,0.2 -0.1,0.3 h -0.3 c -0.3,-0.1 -0.1,-0.6 0.1,-0.6 z m -2.9,0.5 c 2.5,0.3 4.4,1.9 5.1,4.1 0.3,1.6 0,2.6 -1.5,4.4 -0.6,0.9 -3.1,-0.1 -4.7,0.2 -1.1,0.3 -1.8,0.9 -1.9,-0.5 -0.4,-0.7 -0.8,-1.8 -1,-2.2 -1.6,-2.3 -1,-3 0.1,-4.2 0.7,-1.4 2,-1.8 3.9,-1.8 z m 4,0.4 c 0,0.3 -0.3,0.6 -0.3,0.6 -0.3,0 -0.3,-0.3 0.3,-0.6 z m -10,0.3 c 0.3,0 0.3,0.3 0.3,0.3 h -0.6 c -0.1,-0.3 0.3,-0.3 0.3,-0.3 z m 11,0.6 c 0.1,0 0.4,0.2 0,0.6 -0.3,0 -0.3,0 -0.3,-0.3 -0.1,-0.3 0,-0.3 0.3,-0.3 z m 0.4,1.8 c 0.1,0 0.1,0.1 0.2,0.1 0.3,0 0.3,0 -0.3,0.3 h -0.3 c 0,-0.2 0.2,-0.4 0.4,-0.4 z m -21.7,4 v 0 c 0.4,0 0.8,0.1 1.1,0.3 2.2,1.3 6,4.1 7.2,6 1.3,1.9 1.5,2.8 1.5,4.4 0,2.6 -1.3,4.1 -3.4,4.1 -1.3,0 -2.9,-0.5 -2.9,-0.7 0,-0.3 0.5,-0.3 1,-0.5 1.6,-0.9 0.5,-0.7 -0.6,-0.3 -1.1,0.5 -1.8,-0.4 -2.2,-0.6 -0.9,-0.6 -1.3,-0.6 -0.3,0.3 0.2,0.1 1.3,1.7 1.8,3 0.9,2.1 0.1,4.2 -2.4,4.9 -1.5,0.3 -2.6,0.3 -2.8,-0.1 0,0 0.6,0.1 1.3,-0.1 1.1,-0.5 1.5,-0.7 2.2,-1.5 0.4,-1.3 -0.9,1.1 -2.9,1.3 -3.8,0.7 -6.5,-2.3 -9,-6.3 -0.5,-0.8 -0.9,-1.3 -0.9,-2.6 -0.3,-3.2 2,-5.1 4.8,-5.1 1.3,0 1.3,0 2.2,0.6 1.3,1.3 1.5,0.9 0.6,-0.3 -0.9,-1.3 -0.9,-3.8 0.3,-5.1 0.5,-1.1 2.1,-1.8 3.4,-1.7 z m 15.7,2 c 1,0 2.2,0.1 3.6,0.5 3.4,0.6 5.1,1.3 6,2.6 1.8,1.2 1.6,4.6 -0.9,6.3 -1.5,0.6 -1.9,0.6 -2.2,0 -0.6,-2.6 -0.6,-2.2 -0.6,0.9 -0.3,1.4 -0.3,3 -1.3,4.4 -1.3,3.4 -4.4,3.7 -6.8,2 -0.9,-0.9 -2,-3.2 -1.3,-5.6 0.8,-3.4 2,-4.7 3.9,-7 l -0.5,-0.3 c -1,-0.4 -2.6,-2.9 -1.8,-3.3 0.2,-0.3 0.9,-0.5 1.9,-0.5 z m 7.2,18.2 c 0.5,0 0.9,0.1 1.5,0.1 2.7,-0.1 -2.1,21.1 -3.4,26.7 l -0.6,3.2 c 0.3,0 0.3,0.3 0.6,-2.6 l 0.7,-2.9 c 0.4,-2.3 1.7,-7.6 3.4,-17.5 0.5,-7.1 2.2,-6.3 3.4,-6.2 2.6,0.2 4.1,0.3 3.1,2.4 -0.3,0.6 -1.1,2.6 -1.8,4.6 -0.2,0.7 -3.8,14.1 -4.8,15.7 -0.3,0.6 -0.8,1.6 -1.1,2.3 -0.6,1.3 -0.3,1.1 -0.3,1.1 0,-0.6 0.5,-1.3 1.5,-1.7 0.9,-0.5 8.6,-1.5 6.7,-0.3 -1.8,2.1 -3.2,4.7 -4.1,6.1 l -1,1.6 h -1.6 c -1.6,0 -2,0.3 -2.3,0 -1,-0.3 -2,-2.2 -2,-1.9 l 1.6,2.2 c 2,2.8 1.7,3.2 0.7,4.1 -1.1,1.3 -3,3.2 -3.6,4.7 -1,1.6 -1.5,1.3 -1.9,0.7 -0.3,-0.3 -0.3,-0.6 -0.3,-0.6 0,0 -0.7,-0.6 -1,-1.3 -0.7,-1.3 -2.8,-2.2 -3.8,-2.6 -0.9,-0.1 -0.5,-1.8 -0.5,-1.8 0,-0.3 0.7,-2.1 1.3,-3.4 1,-1.8 2.1,-3.2 3.1,-4.6 -0.3,-0.9 0.6,-18.7 0.9,-22.5 l 0.3,-1.9 c 1.2,-3.1 2.2,-3.8 5.3,-3.7 z m -2.6,29.9 c -0.3,0 -0.3,-0.2 -0.9,0.3 0.2,-0.2 0.5,-0.3 0.9,-0.3 z m 16,-5.6 c 0.5,0.1 1.5,0.7 1.5,1.5 -0.1,0.5 -0.4,1.9 -0.5,0.9 0,-0.3 -0.8,-1.9 -3.2,-1.7 0,-0.4 1.7,-0.9 2.2,-0.7 z m -1.6,1.1 c 0.3,0 0.7,0.1 1.1,0.3 0.5,0.3 2.2,1.2 0.9,2.8 -0.7,0.9 -1.8,2.2 -3,2.5 -0.6,0.3 -1.3,0.6 -1.6,0.7 l -2.3,0.4 c -1.8,0.4 2.2,-6.5 4.9,-6.7 z m -15.6,5.1 c -1.6,0.7 -1.6,1.3 0,0 z m 6.4,6.3 c 1.1,2.1 1.7,4.1 2,6.3 0,2.2 0,3 -1.6,3.5 -1,0.3 -2,0.6 -3.9,0.6 -3.4,0 -2.9,0.5 -2.6,-1.6 0,-1.6 1,-3.8 3,-6.3 0.8,-1.3 2.4,-2.5 3.1,-2.5 z m -12.5,2.6 c 0.9,-0.1 2,0.9 2.7,1.8 0.7,0.6 2,3.2 2.3,4.4 0.9,2.6 -0.9,1.7 -3,0.9 -2.2,-0.8 -3.4,-4.4 -3,-6.3 0.3,-0.5 0.6,-0.8 1,-0.8 z" />
      <ellipse
         style="opacity:1;fill:url(#radialGradient1436);fill-opacity:1;stroke:none;stroke-opacity:1"
         id="ellipse1055"
         class="st20"
         cx="134.22211"
         cy="75.399353"
         rx="11.8"
         ry="18.9" />
      <ellipse
         style="fill:url(#radialGradient1438);fill-opacity:1"
         id="ellipse1063"
         class="st21"
         cx="134.1221"
         cy="39.299347"
         rx="8.3999996"
         ry="12.3" />
    </g>
    <g
       id="g1242"
       transform="translate(-242.83349,168.34136)">
      <path
         style="fill:#004d66"
         id="path1069"
         class="st23"
         d="m 382.70105,-45.282585 c -0.48139,1.555189 -1.52472,3.971489 -0.053,4.136889 0.55135,0.104739 0.65824,-0.358283 0.82536,-0.933709 0.30974,-1.052576 0.31185,-1.96266 0.50819,-2.775836 0.17266,-0.323438 -0.36019,-0.305469 -0.56019,-0.405469 -0.4,-0.1 -0.51875,-0.29375 -0.72031,-0.02187 z m 6.39375,1.757031 c -0.2,0.4 -0.45235,1.340625 -0.55235,1.840625 l -0.11328,1.3 c 0.4197,0.432308 0.98396,0.296011 1.50992,0.328184 0.40204,-1.192109 0.98572,-3.442004 0.29008,-3.528184 -0.42186,-0.210377 -0.73697,-0.194177 -1.13437,0.05938 z m -9.75622,0.5625 c -0.1,0.1 -0.4641,0.315625 -0.6641,0.515625 -0.24034,0.164136 -0.54131,0.39192 -0.68828,0.539062 l -0.25703,0.223438 c -0.14566,1.129328 -0.36772,2.256805 -0.6,3.2 0,0.3 -0.2,1.5 -0.3,2 -0.43548,2.052373 -0.50369,4.218825 -0.6,6.3 -0.1,1.1 0.1,2.1 0.5,2.6 0.2,0.2 0.2,0.3 0.4,0.4 2.35119,0.851997 4.82906,1.485634 6.81578,0.548882 0.1,-0.2 0.18422,-0.548882 0.18422,-0.548882 0,0 2.6,0.7 3,0.8 0.4,0.1 0.8,0.2 1.1,0.2 h 0.7 c 0.2,0 0.2,-0.1 0.3,-0.1 0.4,-0.2 0.5,-0.3 0.8,-0.5 0.3,-0.3 0.5,-0.5 0.7,-0.9 0.1,-0.2 0.2,-0.4 0.3,-0.7 0.2,-0.5 0.6,-1.7 0.7,-1.9 0.4,-1.2 0.8,-2.8 1.1,-3.9 0.3,-1.3 0.5,-1.9 0.7,-3.3 0.2,-0.9 0.26094,-1.292187 0.3,-1.8 l 0.0664,-1.114844 -0.37032,-0.0625 c -0.8,0 -1.1039,-0.02187 -1.8039,-0.02187 -0.5,-0.1 -1.08047,-0.02578 -1.48047,-0.125781 -0.25342,0.126243 -0.23486,0.706747 -0.51172,0.725 -0.78298,-0.179973 -1.12861,-0.366521 -1.32422,-0.950781 l -0.41094,-0.08984 c -0.36716,-0.186663 -0.75658,-0.12518 -1.08141,-0.2472 -1.2811,0.05837 -2.08533,-0.240728 -3.22562,-0.407488 l -0.23672,-0.05078 c -1.18444,1.359938 -1.58128,-1.195093 -1.62538,-0.608075 l -0.34805,-0.03255 c -0.8412,-0.355912 -1.39554,-0.555594 -2.13824,-0.691416 z" />
      <g
         style="fill:#ffffff;fill-opacity:1;stroke:none"
         id="g1085"
         transform="matrix(0.01767122,0.00373903,-0.00373903,0.01767122,373.95366,-32.614433)">
        <path
           style="fill:#ffffff;fill-opacity:1;stroke:none"
           id="path1075"
           class="st13"
           d="m 217,98.2 c 0.7,0 2.4,0 5.1,-0.1 2.7,0 5.7,-0.1 9.2,-0.1 3.5,0 7.1,0 10.8,-0.1 3.7,0 7.1,-0.1 10,-0.1 8.9,0 16.6,1.3 23.1,3.9 6.5,2.6 11.8,6.2 16,10.9 4.2,4.7 7.3,10.2 9.3,16.6 2,6.4 3,13.5 3,21.2 0,7.9 -1,15 -3.1,21.3 -2,6.3 -5.2,11.6 -9.4,16 -4.3,4.4 -9.6,7.8 -16.1,10.1 -6.5,2.3 -14.2,3.5 -23.1,3.5 -3,0 -5.8,0 -8.3,-0.1 -2.5,-0.1 -5.1,-0.1 -7.7,-0.1 -2.6,0 -5.4,0 -8.3,-0.1 -2.9,-0.1 -6.3,-0.1 -10.2,-0.1 V 98.2 Z m 29.9,17.4 c -0.9,0.1 -2.3,0.1 -3.9,0.1 v 67.9 c 1.4,0.1 2.6,0.2 3.6,0.2 1,0 2.5,0 4.4,0 4.6,0 8.5,-0.8 11.6,-2.3 3.1,-1.5 5.6,-3.7 7.5,-6.5 1.9,-2.8 3.3,-6.3 4.1,-10.4 0.8,-4.1 1.3,-8.7 1.3,-13.8 0,-23.5 -8.1,-35.2 -24.4,-35.2 -1.9,-0.1 -3.3,-0.1 -4.2,0 z" />
        <path
           style="fill:#ffffff;fill-opacity:1;stroke:none"
           id="path1077"
           class="st13"
           d="m 350.7,147.5 c -1.4,0.6 -2.7,1.5 -3.9,2.8 -1.3,1.3 -2.3,2.9 -3.1,4.9 -0.8,2 -1.3,4.3 -1.3,7.1 V 201 h -24.9 v -39.5 c 0,-6.1 -0.4,-11.1 -1.3,-15.1 -0.9,-4 -1.9,-7.3 -3.1,-9.8 -1.3,-2.8 -2.7,-5.1 -4.2,-6.8 l 20,-6.1 c 0.8,1 1.7,2.2 2.7,3.5 0.7,1.1 1.5,2.5 2.4,4.3 0.8,1.7 1.5,3.7 2,5.9 2.6,-4.9 5.7,-8.4 9.4,-10.5 3.7,-2.1 7.9,-3.2 12.8,-3.2 2.2,0 4.2,0.2 5.9,0.5 1.7,0.4 3.2,0.7 4.3,1.1 l -6.5,22.9 c -0.7,-0.4 -1.7,-0.8 -2.9,-1.1 -1.2,-0.4 -2.7,-0.5 -4.5,-0.5 -1.2,0 -2.5,0.3 -3.8,0.9 z" />
        <path
           style="fill:#ffffff;fill-opacity:1;stroke:none"
           id="path1079"
           class="st13"
           d="m 432.9,133.6 c 5.7,6.9 8.6,16.4 8.6,28.6 0,5.8 -0.8,11.1 -2.3,16 -1.5,4.9 -3.8,9.2 -6.9,12.8 -3.1,3.6 -7,6.4 -11.6,8.5 -4.7,2.1 -10.1,3.1 -16.3,3.1 -6.3,0 -11.7,-0.9 -16.3,-2.7 -4.6,-1.8 -8.3,-4.3 -11.2,-7.7 -2.9,-3.3 -5,-7.4 -6.5,-12.2 -1.4,-4.8 -2.1,-10.2 -2.1,-16.2 0,-5.8 0.8,-11.1 2.3,-16.1 1.5,-5 3.8,-9.2 6.9,-12.8 3.1,-3.6 7,-6.4 11.6,-8.5 4.7,-2.1 10.2,-3.1 16.4,-3.1 12.6,-0.1 21.7,3.4 27.4,10.3 z m -33.4,9.3 c -1.3,1.1 -2.2,2.5 -2.9,4.4 -0.7,1.9 -1.2,4.1 -1.4,6.6 -0.3,2.5 -0.4,5.3 -0.4,8.2 0,3 0.2,5.9 0.5,8.7 0.3,2.7 0.9,5.1 1.7,7.1 0.8,2 1.9,3.6 3.4,4.8 1.5,1.2 3.3,1.7 5.5,1.7 1.9,0 3.5,-0.6 4.7,-1.7 1.3,-1.1 2.2,-2.6 2.9,-4.5 0.7,-1.9 1.2,-4.1 1.4,-6.6 0.3,-2.5 0.4,-5.2 0.4,-8.1 0,-3.1 -0.2,-6.1 -0.5,-8.7 -0.3,-2.7 -0.9,-5 -1.7,-7.1 -0.8,-2 -1.9,-3.6 -3.4,-4.8 -1.5,-1.2 -3.3,-1.7 -5.5,-1.7 -1.9,0.1 -3.5,0.6 -4.7,1.7 z" />
        <path
           style="fill:#ffffff;fill-opacity:1;stroke:none"
           id="path1081"
           class="st13"
           d="m 451.4,234.6 v -73.1 c 0,-6.1 -0.4,-11.1 -1.3,-15.1 -0.9,-4 -1.9,-7.3 -3.1,-9.8 -1.3,-2.8 -2.7,-5.1 -4.2,-6.8 l 20,-6.1 c 1.3,1.2 2.4,2.7 3.5,4.4 0.8,1.4 1.7,3.2 2.5,5.4 0.8,2.2 1.5,4.7 1.9,7.5 2,-5.8 4.7,-10.1 8.3,-13 3.5,-2.9 8.1,-4.3 13.8,-4.3 4.9,0 9.3,0.9 13,2.7 3.7,1.8 6.8,4.4 9.3,7.7 2.5,3.3 4.3,7.3 5.5,11.9 1.2,4.7 1.8,9.9 1.8,15.6 0,5.7 -0.9,11 -2.8,15.9 -1.9,4.9 -4.5,9.2 -7.9,12.8 -3.4,3.6 -7.4,6.4 -12,8.5 -4.6,2.1 -9.6,3.1 -15,3.1 -2.9,0 -5.7,-0.3 -8.2,-0.9 v 29.5 z m 31.9,-91.4 c -1.4,1.3 -2.7,2.9 -3.7,5 -1.1,2.1 -1.9,4.5 -2.4,7.3 -0.6,2.8 -0.9,5.7 -0.9,8.7 v 19 c 0.7,0.2 1.7,0.4 3,0.7 1.3,0.3 2.4,0.4 3.5,0.4 2.5,0 4.6,-0.5 6.3,-1.6 1.7,-1.1 3,-2.5 4,-4.4 1,-1.9 1.7,-4.1 2.1,-6.7 0.4,-2.6 0.6,-5.4 0.6,-8.4 0,-2.8 -0.1,-5.6 -0.2,-8.2 -0.1,-2.6 -0.4,-5 -1,-7 -0.6,-2 -1.4,-3.6 -2.4,-4.9 -1.1,-1.2 -2.5,-1.8 -4.4,-1.8 -1.6,0 -3.1,0.6 -4.5,1.9 z" />
        <path
           style="fill:#ffffff;fill-opacity:1;stroke:none"
           id="path1083"
           class="st13"
           d="m 551.7,91.9 c 2.3,2.5 3.5,5.7 3.5,9.6 0,4 -1.2,7.2 -3.5,9.9 -2.4,2.6 -5.9,4 -10.6,4 -4.4,0 -7.8,-1.3 -10.2,-3.9 -2.4,-2.6 -3.5,-5.6 -3.5,-9.2 0,-4 1.2,-7.4 3.6,-10.1 2.4,-2.7 6,-4 10.7,-4 4.3,-0.1 7.7,1.2 10,3.7 z m -17.3,105.2 c -3.7,-3 -5.5,-7.2 -5.5,-12.7 v -59.7 h 24.9 v 52.9 c 0,2.3 0.4,3.9 1.1,4.7 0.7,0.8 1.8,1.2 3.3,1.2 0.8,0 1.7,-0.1 2.5,-0.2 0.8,-0.2 1.4,-0.3 1.6,-0.4 l 2.2,15 c -0.1,0.1 -0.6,0.3 -1.4,0.7 -0.8,0.4 -1.9,0.8 -3.3,1.2 -1.4,0.5 -3,0.9 -4.9,1.2 -1.9,0.3 -3.9,0.5 -6,0.5 -6,0.1 -10.9,-1.4 -14.5,-4.4 z" />
      </g>
      <g
         id="g1125"
         transform="matrix(0.04056143,0.01485277,-0.01485277,0.04056143,377.67043,-38.257482)">
        <radialGradient
           id="radialGradient1091"
           cx="-3063.0005"
           cy="46457.09"
           r="2.8906"
           gradientTransform="matrix(0.09778378,-0.0314469,-0.01689566,-0.182,1213.6948,8438.2109)"
           gradientUnits="userSpaceOnUse">
          <stop
             offset="0"
             style="stop-color:#FFFFFF"
             id="stop1087" />
          <stop
             offset="1"
             style="stop-color:#FFFFFF;stop-opacity:0"
             id="stop1089" />
        </radialGradient>
        <path
           style="fill:url(#radialGradient1135)"
           id="path1093"
           class="st25"
           d="m 129.3,67.3 c 3.7,0 6.6,5.5 6.6,12.4 0,6.9 -3,12.4 -6.6,12.4 -3.7,0 -6.6,-5.5 -6.6,-12.4 0,-6.9 2.9,-12.4 6.6,-12.4 z" />
        <radialGradient
           id="radialGradient1099"
           cx="-2315.6289"
           cy="49327.691"
           r="2.0156"
           gradientTransform="matrix(0.09931776,-0.02936234,-0.01716078,-0.1699,1206.6821,8367.8271)"
           gradientUnits="userSpaceOnUse">
          <stop
             offset="0"
             style="stop-color:#FFFFFF"
             id="stop1095" />
          <stop
             offset="1"
             style="stop-color:#FFFFFF;stop-opacity:0"
             id="stop1097" />
        </radialGradient>
        <path
           style="fill:url(#radialGradient1137)"
           id="path1101"
           class="st26"
           d="m 130.2,45.6 c 2.6,0 4.7,3.6 4.7,8 0,4.4 -2.1,8 -4.7,8 -2.6,0 -4.7,-3.6 -4.7,-8 0,-4.4 2.1,-8 4.7,-8 z" />
        <path
           style="fill:#d2eeff"
           id="path1103"
           class="st19"
           d="m 137.6,171.4 c -0.6,-0.1 -1.5,-0.3 -2.4,-0.7 -2.4,-0.9 -2.9,-1.3 -3.8,-3.1 -0.8,-1.5 -1.1,-3 -1.1,-4.6 0,-3.4 1.6,-7.2 4.7,-11 l 0.7,-0.9 0.2,-5.9 c 0.3,-11.3 0.5,-15.9 0.9,-17.9 0.2,-1 0.5,-1.9 0.5,-2 -0.3,-0.3 -5.3,2.1 -6.9,3.5 -1.8,1.3 -2.5,1.6 -3.9,2.1 -0.9,0.3 -1.3,0.3 -2.7,0.3 -1.3,0 -1.8,-0.1 -2.8,-0.3 -2.3,-0.7 -3.8,-2 -6.2,-4.9 -0.8,-1 -2.1,-2.6 -2.8,-3.4 -3.3,-3.9 -4.1,-5.6 -4.4,-9 -0.6,-3.5 4.7,-6.3 7.3,-4.5 0.1,-0.1 -0.1,-1.3 -0.1,-2 -0.1,-1.1 -0.3,-1 0.3,-2.3 3,-3.6 5.6,-2.6 5.8,-1.9 -2.4,-5 -9.2,-20.9 2.2,-38.7 0.3,-0.4 3.6,-5 4.5,-7.3 0.8,-2.2 0.9,-3.8 0.9,-7.1 0,-4.4 -0.5,-5.9 -3,-14.1 -2.7,-8.9 -3.4,-12.1 -3.6,-17.2 -0.1,-2.4 0.1,-5.9 0.4,-6.8 0.6,-2.6 2.4,1.2 2.8,2.2 7.2,11.9 16.2,14.6 26.3,21.6 7.5,5.1 13.9,9.8 19.6,15 0.9,0.9 2.6,2.4 3.1,3 3.8,-1.1 6.4,1.1 7.6,3.2 0.5,0.9 0.9,2.3 0.9,3.2 v 0.7 c -0.3,-1.7 -1.8,-3.2 -3,-3.9 -1.1,-0.6 -2.2,-0.9 -3.4,-0.9 l 1,1.1 c 2.8,3.3 5.1,6.8 6.5,9.8 1.2,2.6 3.6,9.4 4.2,12.7 0.8,4 0.8,7.5 1.4,11.7 0.3,0.8 1.1,0.9 1.8,1.2 1.1,0.5 3.6,1 5.1,1.3 1.4,0.2 2.4,0.5 3,1 0.6,0.4 2.1,2.6 2.5,3.4 0.2,0.5 0.5,0.7 0.6,2.2 0,1.1 -0.1,1.5 -0.5,2.3 -0.8,1.5 -2.4,3.4 -4.6,5 -7.4,5.1 -7.6,2.4 -8.3,6.7 0,0.3 -0.1,0.9 1.1,0.7 0.8,-0.2 1,0.2 1.4,0.6 0.6,0.9 0.5,1.2 0.5,2 0,0.9 -1.1,2.4 -3,3.6 -2.6,1.7 -4.3,2.4 -5.8,2.4 -0.9,0 -1,-0.1 -3,-1 -3,-1.5 -4.5,-2.4 -4.9,-3.2 -0.2,-0.4 -0.3,-0.7 -0.2,-0.9 0.3,-0.5 0.3,-0.5 -1.9,0.7 -1.7,0.9 -2.6,1.3 -4.6,2.1 -3.6,1.3 -6.7,2.2 -11.5,2.4 -3.5,0.1 -3.7,0 -4.6,1.2 -1.2,1.6 -2.1,4 -5.8,16.3 -0.5,1.8 -1.3,3.9 -1.5,4.8 -0.3,0.9 -0.9,2.1 -0.9,2.2 0,0 1.3,-0.5 2,-0.6 2.7,-0.7 4.7,-0.7 8,-0.4 1.2,-0.3 2,-0.1 2.5,0.1 1.6,0.9 1.8,3.2 -0.1,5.4 -0.9,1 -2,2.2 -2.7,2.5 -0.7,0.3 -3.2,1.1 -4.1,1.3 -0.5,0.1 -1.6,0.2 -2.6,0.3 -1.9,0.1 -2.4,0 -2.9,0.5 -0.1,0.1 0.5,1 1,2.2 2,4.7 3,8.9 2.3,10.1 -0.6,0.9 -3.8,2 -7.1,2.1 -1.2,-0.2 -2.4,-0.2 -2.9,-0.2 z" />
        <path
           style="fill:#000a00"
           id="path1105"
           class="st22"
           d="m 122.9,10.6 c -0.5,-0.1 -0.9,0.7 -1.1,2.8 -2.2,21.6 14.3,34.3 1.1,50.4 -1.8,2.9 -5.7,9.8 -6.1,19.1 -0.1,2.4 0.3,14.8 3.5,19.6 -2.2,-0.5 -3.7,-0.2 -5.6,2.9 -0.7,2.4 0.1,2.1 0.1,3.4 -1.5,-1.2 -8,0.3 -7.3,4.8 0,2 0.6,4.6 2.5,6.8 0.9,1.6 1.5,1.9 2.8,3.5 0.9,0.9 1.9,2.6 2.5,3.2 2.2,2.8 4.7,4.1 7.2,4.4 2.8,0.3 5.7,-0.6 8.2,-2.8 1.3,-0.9 6.1,-3.5 6.5,-3.2 0,0 -0.8,2.8 -0.8,3.8 0,0.9 -0.6,14.6 -0.6,17.2 v 4.7 c -0.5,0.5 -0.8,1.1 -1.5,1.8 -2.3,3.2 -3.4,5.3 -4,8.7 -0.4,3 0.3,5 1.7,7.3 0.9,1.2 2.3,1.6 4.5,2.5 2.9,0.5 5.7,0.3 8.5,-0.5 2.3,-0.9 3,-0.7 3.1,-2.8 -0.4,-4.3 -1.6,-6.9 -2.8,-9.5 -0.3,-0.6 -0.7,-1.6 -0.7,-1.6 0,0 1,-0.3 2.3,-0.3 2,0 3.6,-0.3 6.2,-1.3 1.3,-0.4 3.4,-2.7 4.1,-3.7 1.6,-3.4 0.3,-5.7 -3.2,-5.1 -4.2,-0.3 -7.1,0 -9.7,1 1.4,-2.5 5.7,-19.1 7.1,-21.1 0.3,-0.6 0.7,-1.5 1.3,-2.2 l 1.2,-0.7 2.8,-0.1 c 5.5,-0.1 12.3,-2 16.1,-4.3 l 2.2,-1.2 c -0.7,1.1 0.7,2.4 2.1,2.9 0.7,0.9 2.5,1.5 3.2,1.7 1.9,1.6 3.7,1.3 7.1,-0.5 3.5,-1.9 4.5,-3.4 4.7,-4.8 0,-1.3 -0.4,-2.6 -1.7,-2.8 -0.7,0 -1.8,0.8 -1.1,-1.4 0.1,-0.8 0.3,-1.6 0.6,-1.6 0,0 0.9,-0.6 1.9,-0.9 3,-1.6 9.4,-4.6 10.7,-9.8 0.1,-2.6 -0.6,-3.2 -1.9,-5.1 -0.6,-0.9 -1.3,-2 -3.8,-2.4 -2.1,-0.2 -3.6,-0.7 -5.5,-1.3 -2.4,-1.3 -1.5,1 -2.7,-10.9 -0.6,-3.5 -1.9,-7.6 -3.4,-12.1 -1.6,-4.5 -4.7,-9.1 -8.6,-13.4 3.2,0.3 5.7,2.6 6.2,5.4 0.1,-0.3 0.1,-0.7 0.1,-1 0,-4 -3,-7.2 -6.6,-7.2 -0.7,0 -1.3,0.1 -2,0.3 -8,-8.1 -18.5,-15.4 -27.1,-20.9 -0.6,-0.6 -2.5,-1.6 -4.1,-2.6 -8.6,-5.1 -14.7,-10.3 -17.5,-15.8 -1.2,-1.7 -2.1,-3.2 -2.7,-3.3 z m -0.1,0.5 c 0.4,-0.1 1.1,0.7 2.4,3.1 0.8,1.8 3.4,4.9 5.1,6.9 3.4,3.2 9.1,7.6 13.2,9.8 11.5,7.7 21.5,14.3 29.8,22.9 -1.8,1 -3.2,3 -3.5,5.2 1.1,-1.8 3.2,-3 5.4,-3.2 2.6,2.8 5,5.9 7.2,9.3 1.9,3.8 2.5,4.8 3.8,9.2 1.9,5.4 1.8,7.1 2.2,8.8 0.9,4.4 0.7,8.7 0.3,13.1 -0.9,4.4 -1.9,6 -3.2,8.6 -2.5,4.1 -5.7,8.9 -9.8,12.1 -8.1,7.5 -25.6,7.9 -35,4.7 0.1,-2.3 1,-7.3 1.7,-6.7 4.2,-0.1 5.1,-5.7 3.2,-7.6 -1.1,-1.6 -5.7,-2.7 -5.8,-2.5 0.5,-1.5 2.3,-3 1.8,-4.7 0,0 0,-0.1 0,-0.1 -0.5,1.1 -1,2.8 -2.1,4.2 -0.6,0.9 -3.1,-0.1 -4.7,0.2 -1.1,0.3 -1.8,0.9 -1.9,-0.5 -0.4,-0.7 -0.8,-1.8 -1,-2.2 -1.6,-2.3 -1,-3 0.1,-4.2 5.2,-4.6 -1.3,-0.1 -1.6,1.3 -0.2,-0.6 -2.3,-3.5 -2.3,-9.4 -0.2,-9.6 -1.8,-10 -2.8,-10.5 -1.5,-0.9 -4,-0.9 -6.4,2.7 -2.1,6.2 2.2,8.7 3.2,16.3 0.8,3.8 0.1,5.7 -0.7,4.9 0,-0.1 -2.3,-3.7 -3.3,-11.6 -0.4,-3.7 -0.2,-8.9 -0.2,-9.1 0.1,-5.9 3.8,-12.9 5.7,-16.9 14.3,-19.1 -2.8,-30.2 -1.2,-50.9 -0.2,-1.6 -0.2,-3.1 0.4,-3.2 z m 29.9,39.1 c -3.6,0 -6.6,3.2 -6.6,7.2 0,0.3 0,0.7 0.1,1 0.5,-3.1 3.4,-5.5 6.9,-5.5 2.5,0 4.8,1.2 6.1,3.2 -0.6,-3.3 -3.4,-5.9 -6.5,-5.9 z m 1,7.4 c -3.2,-0.3 -5.3,4.7 -4.5,11.2 0.7,6.5 3.8,12 7.1,12.3 3.2,0.3 5.3,-4.7 4.5,-11.3 -0.7,-6.4 -3.9,-11.9 -7.1,-12.2 z m -0.4,0.3 h 0.4 c 3,0.3 6,5.6 6.7,11.9 0.1,0.7 0.1,1.3 0.1,2 -0.7,-4 -3.3,-7.3 -6.1,-7.5 -2.7,-0.2 -4.5,2.4 -4.6,5.9 -0.1,-0.4 -0.1,-0.9 -0.2,-1.3 -0.7,-6 0.9,-10.8 3.7,-11 z m 21.7,2.8 c -2.8,0 -5.5,4.8 -6.1,10.6 -0.5,5.9 1.3,10.6 4.2,10.6 2.8,0 5.5,-4.8 6.1,-10.6 0.4,-5.8 -1.4,-10.6 -4.2,-10.6 z m 0,0.3 c 2.6,0 4.3,4.7 3.7,10.4 -0.1,0.4 -0.1,0.8 -0.1,1.1 -0.1,-3.3 -1.8,-5.8 -4.1,-5.8 -2.5,0 -4.8,2.8 -5.3,6.4 0,-0.6 0.1,-1.1 0.1,-1.8 0.5,-5.6 3.1,-10.3 5.7,-10.3 z m -21.2,9.8 c 0.9,0.1 1.4,0.6 1.7,2.1 0.2,1.3 -0.2,1.9 -1,2 -0.9,-0.1 -1.6,-0.5 -2,-2.2 -0.2,-1.2 0.4,-2 1.3,-1.9 z m 21.2,1.9 c 0.7,0 1.3,0.8 1.1,1.8 -0.3,1.5 -0.9,1.9 -1.7,1.9 -0.7,-0.1 -1.1,-0.7 -0.9,-1.9 0.3,-1.3 0.8,-1.8 1.5,-1.8 z m -22.9,4.4 c 1.1,1.4 2.5,2.4 4,2.5 1.6,0.1 3,-0.8 3.8,-2.4 -0.7,2.4 -2,3.7 -3.6,3.6 -1.5,-0.1 -3,-1.5 -4.2,-3.7 z m 17.6,1.1 c 0.7,1.5 2,2.5 3.4,2.5 1.3,0 2.5,-0.7 3.5,-2 -1.1,2 -2.4,3 -3.6,3 -1.4,0.1 -2.6,-1.3 -3.3,-3.5 z m -46.3,0.7 c 1.3,0 2.2,0.7 3,1.9 0.5,0.7 0.9,4.1 1.2,10.8 0.3,2.2 0.6,3.2 0.9,4.4 0.3,0.7 0.6,1.3 0.6,1.6 0,0.3 0.6,1.6 1.3,2.8 1.2,1.8 2,3.9 2.5,5.7 0.3,0.9 0.9,1.6 1.3,1.9 0.3,0.3 0.9,0.8 0.9,0.8 l -1.2,1.5 c -0.5,0.7 -1.2,1.7 -1.6,2.4 -1.6,3.9 -1.3,5.3 -1.2,5.8 0.7,3.6 3,4.7 6.1,4 0.8,-0.2 2,-1.4 2.3,-2 0.9,-1.8 0.5,-0.2 0.5,-0.2 -0.9,3.4 -3.7,5.2 -7.2,6.5 -1.3,0.1 -1.5,0.1 -2.5,1.3 -0.9,0.9 -2.2,1.9 -2.8,2.2 -4.2,2 -9.8,-0.2 -11.9,-3.4 -0.8,-1.2 -6.3,-7.2 -5.2,-7.3 3.1,3.2 5.7,6.1 10.7,4.4 1.1,-0.5 1.5,-0.9 1.5,1 0,0.9 0.3,1.6 0.3,1.6 0.3,0 0.6,-0.6 0.9,-1.9 0.6,-2.2 0.2,-2.5 1.7,-4.9 0.9,-1 2.4,-1.1 3.6,-3.4 0.7,-1.5 0.7,-2.2 0.7,-3.4 -1.1,-4.6 -3.3,-6 -7.6,-9.4 0,-0.3 0.3,-2 0.3,-3.9 -0.2,-2 -0.7,-4 -1.2,-5.7 -0.3,-0.9 -0.9,-2.6 -1.5,-4.1 -0.9,-2.2 -1.3,-2.8 -1.3,-4.4 0,-2.8 0.9,-5.1 3.4,-6 0.7,-0.6 1.1,-0.6 1.5,-0.6 z m 31.3,5.4 c -1,0.1 -3.6,1.9 -3.2,2.2 0.3,0.2 1.2,-0.1 1.3,0.3 -0.3,11.3 3,19.6 10.2,19.6 5.7,0 10.8,-7.8 15.3,-16.3 1.5,-0.1 1.2,-0.7 1.1,-1.8 0,-1.8 -1.4,-2.8 -1.7,1.5 -4.2,4.2 -7.1,6.1 -11.7,6.2 -6.3,0.1 -8.8,-2 -12.1,-9.9 -0.3,-0.5 1.8,-0.9 0.9,-1.7 0.2,-0.1 0,-0.1 -0.1,-0.1 z m -0.8,3.9 c 1.3,4.7 6.2,9 11.2,8.5 1.3,-0.1 1.2,-0.1 2.7,-0.5 -1.6,2.4 -3.8,3.3 -6.1,3.3 -4.6,0.1 -7.5,-5.1 -7.8,-11.3 z m 35.7,3.8 c 0.5,0 1.4,0.5 2.8,1.1 1.4,0.5 3,0.5 5.5,1 1.3,0.2 2.2,1.5 4.1,4.8 0.7,1.8 -0.5,5.4 -4.6,8.2 -1.8,1.5 -6.5,3.7 -7.2,3.9 -0.4,0.1 -1.3,-0.3 -1.5,-0.5 -0.6,-1.3 -1.9,-0.6 -0.6,-0.3 1.9,0.9 1.3,4.1 -0.9,7.3 -0.9,1.9 -1.9,1.9 -1.3,1.9 0.6,0 1.5,-1.6 2.5,-3.2 1.3,-1.3 2.8,-1.9 3.4,0.3 0.9,2.6 -4.1,5.6 -6.2,5.9 -2.2,1.1 -4.2,0.9 -4.8,-0.3 -1.1,-0.2 -3,-1.1 -3,-1.5 0.1,-0.7 0.4,-1.1 -0.5,-0.4 -0.5,0.4 -0.7,-0.3 -1.3,-0.7 -0.9,-0.6 -0.5,-1.5 1.6,-4.1 3.8,-4.1 5,-5.9 7.1,-9.1 2.5,-4.2 3,-5.7 6,-7.5 5.5,-3.4 0.4,-1.1 -2,0.7 -1.5,1.2 0.4,-2.4 0.3,-5.3 -0.1,-1.6 0.1,-2.2 0.6,-2.2 z m -70,10.7 c 0.4,0 0.8,0.1 1.1,0.3 2.2,1.3 6,4.1 7.2,6 1.3,1.9 1.5,2.8 1.5,4.4 0,2.6 -1.3,4.1 -3.4,4.1 -1.3,0 -2.9,-0.5 -2.9,-0.7 0,-0.3 0.5,-0.3 1,-0.5 1.6,-0.9 0.5,-0.7 -0.6,-0.3 -1.1,0.5 -1.8,-0.4 -2.2,-0.6 -0.9,-0.6 -1.3,-0.6 -0.3,0.3 0.2,0.1 1.3,1.7 1.7,3 0.9,2.1 0.1,4.2 -2.4,4.9 -1.5,0.3 -2.6,0.3 -2.8,-0.1 0,0 0.6,0.1 1.3,-0.1 1.1,-0.5 1.5,-0.7 2.2,-1.6 0.4,-1.3 -0.9,1.1 -2.9,1.3 -3.8,0.7 -6.5,-2.3 -9,-6.3 -0.5,-0.8 -0.9,-1.3 -0.9,-2.6 -0.3,-3.2 2,-5.1 4.8,-5.1 1.3,0 1.3,0 2.2,0.6 1.3,1.3 1.6,0.9 0.6,-0.3 -1,-1.3 -1.3,-3.8 0.3,-5.1 0.6,-1.1 2.2,-1.7 3.5,-1.6 z m 15.7,1.9 c 1,0 2.2,0.1 3.6,0.5 3.4,0.6 5.1,1.3 6.1,2.5 1.6,1.3 1.5,4.7 -1.1,6.4 -1.5,0.6 -1.9,0.6 -2.2,0 -0.6,-2.6 -0.6,-2.2 -0.6,0.9 -0.3,1.4 -0.3,3 -1.3,4.4 -1.3,3.4 -4.4,3.7 -6.8,2 -0.9,-0.9 -2,-3.2 -1.3,-5.6 0.8,-3.4 2,-4.7 3.9,-7 l -0.5,-0.3 c -1,-0.4 -2.6,-2.9 -1.8,-3.3 0.3,-0.3 1,-0.5 2,-0.5 z m 7.2,18.2 c 0.5,0 0.9,0.1 1.5,0.1 2.7,-0.1 -2.1,21.1 -3.4,26.7 l -0.6,3.2 c 0.3,0 0.3,0.3 0.6,-2.6 l 0.7,-2.9 c 0.4,-2.3 1.7,-7.6 3.4,-17.4 0.5,-7.1 2.2,-6.3 3.4,-6.2 2.6,0.2 4.1,0.3 3.1,2.4 -0.3,0.6 -1.1,2.6 -1.8,4.6 -0.2,0.7 -3.8,14.1 -4.8,15.7 -0.3,0.6 -0.8,1.6 -1.1,2.3 -0.6,1.3 -0.3,1.1 -0.3,1.1 0,-0.6 0.5,-1.3 1.5,-1.7 0.9,-0.5 8.6,-1.6 6.7,-0.3 -1.8,2.1 -3.2,4.7 -4.1,6.1 l -1,1.6 h -1.6 c -1.6,0 -2,0.3 -2.3,0 -1,-0.3 -2,-2.2 -2,-1.9 l 1.6,2.2 c 2,2.8 1.7,3.2 0.7,4.1 -1.1,1.3 -3,3.2 -3.6,4.7 -1,1.6 -1.5,1.3 -1.9,0.7 -0.3,-0.3 -0.3,-0.6 -0.3,-0.6 0,0 -0.7,-0.6 -1,-1.3 -0.7,-1.3 -2.8,-2.2 -3.8,-2.6 -0.9,-0.1 -0.5,-1.8 -0.5,-1.8 0,-0.3 0.7,-2.1 1.3,-3.4 1,-1.8 2.1,-3.2 3.1,-4.6 -0.3,-0.9 0.6,-18.7 0.9,-22.5 l 0.3,-1.9 c 1.1,-3.2 2.1,-3.9 5.3,-3.8 z m 12.8,24.3 c 0.2,0 0.4,0 0.6,0 0.5,0.1 1.5,0.7 1.5,1.5 -0.1,0.5 -0.4,1.9 -0.5,0.9 0,-0.3 -0.8,-1.9 -3.2,-1.7 0,-0.3 0.9,-0.6 1.6,-0.7 z m -1,1.2 c 0.3,0 0.7,0.1 1.1,0.3 0.5,0.3 2.2,1.2 0.9,2.8 -0.7,0.9 -1.8,2.2 -3,2.5 -0.6,0.3 -1.3,0.6 -1.6,0.7 l -2.3,0.4 c -1.8,0.3 2.2,-6.5 4.9,-6.7 z m -14.8,4.4 c -0.1,0 -0.3,0.1 -0.6,0.4 0.3,-0.2 0.5,-0.3 0.9,-0.3 -0.1,-0.1 -0.1,-0.1 -0.3,-0.1 z m -0.8,0.7 c -1.7,0.6 -1.7,1.2 0,0 z m 6.4,6.3 c 1.1,2.1 1.7,4.1 2,6.3 0,2.2 0,3 -1.6,3.5 -1,0.3 -2,0.6 -3.9,0.6 -3.4,0 -2.9,0.5 -2.6,-1.6 0,-1.6 1,-3.8 3,-6.3 0.8,-1.3 2.4,-2.5 3.1,-2.5 z m -12.5,2.6 c 0.9,-0.1 2,0.9 2.7,1.8 0.7,0.6 2,3.2 2.3,4.4 0.9,2.6 -0.9,1.7 -3,0.9 -2.2,-0.8 -3.4,-4.4 -3,-6.3 0.3,-0.5 0.6,-0.8 1,-0.8 z" />
        <radialGradient
           id="radialGradient1111"
           cx="-6259.2109"
           cy="29183.807"
           r="2.8906"
           gradientTransform="matrix(0.1183,-0.05910112,-0.00243675,-0.3742,947.1281,10625.266)"
           gradientUnits="userSpaceOnUse">
          <stop
             offset="0"
             style="stop-color:#FFFFFF"
             id="stop1107" />
          <stop
             offset="1"
             style="stop-color:#FFFFFF;stop-opacity:0"
             id="stop1109" />
        </radialGradient>
        <path
           style="fill:url(#radialGradient1139)"
           id="path1113"
           class="st27"
           d="m 135.7,55.7 c 6.5,0 11.8,8.5 11.8,18.9 0,10.4 -5.3,18.9 -11.8,18.9 -6.5,0 -11.8,-8.5 -11.8,-18.9 0,-10.4 5.2,-18.9 11.8,-18.9 z" />
        <radialGradient
           id="radialGradient1119"
           cx="1898.124"
           cy="35898.184"
           r="2.0156"
           gradientTransform="matrix(0.1769,-0.04484312,-0.0305666,-0.2595,897.0822,9439.876)"
           gradientUnits="userSpaceOnUse">
          <stop
             offset="0"
             style="stop-color:#FFFFFF"
             id="stop1115" />
          <stop
             offset="1"
             style="stop-color:#FFFFFF;stop-opacity:0"
             id="stop1117" />
        </radialGradient>
        <path
           style="fill:url(#radialGradient1141)"
           id="path1121"
           class="st28"
           d="m 135.6,26.1 c 4.6,0 8.4,5.5 8.4,12.3 0,6.8 -3.8,12.3 -8.4,12.3 -4.6,0 -8.4,-5.5 -8.4,-12.3 0,-6.8 3.8,-12.3 8.4,-12.3 z" />
        <path
           style="fill:#000a00"
           id="path1123"
           class="st22"
           d="m 122.9,10.6 c -0.5,-0.1 -0.9,0.7 -1.1,2.8 -2.2,21.6 14.3,34.3 1.1,50.4 -1.8,2.9 -5.7,9.8 -6.1,19.1 -0.1,2.4 0.3,14.8 3.5,19.6 -2.2,-0.5 -3.7,-0.2 -5.6,2.9 -0.7,2.4 0.1,2.1 0.1,3.4 -1.5,-1.2 -8,0.3 -7.3,4.8 0,2 0.6,4.6 2.5,6.8 0.9,1.6 1.5,1.9 2.8,3.5 0.9,0.9 1.9,2.6 2.5,3.2 2.2,2.8 4.7,4.1 7.2,4.4 2.8,0.3 5.7,-0.6 8.2,-2.8 1.3,-0.9 6.1,-3.5 6.5,-3.2 0,0 -0.8,2.8 -0.8,3.8 0,0.9 -0.6,14.6 -0.6,17.2 v 4.7 c -0.5,0.5 -0.8,1.1 -1.5,1.8 -2.3,3.2 -3.4,5.3 -4,8.7 -0.4,3 0.3,5 1.7,7.3 0.9,1.2 2.3,1.6 4.5,2.5 2.9,0.5 5.7,0.3 8.5,-0.5 2.3,-0.9 3,-0.7 3.1,-2.8 -0.4,-4.3 -1.6,-6.9 -2.8,-9.5 -0.3,-0.6 -0.7,-1.6 -0.7,-1.6 0,0 1,-0.3 2.3,-0.3 2,0 3.6,-0.3 6.2,-1.3 1.3,-0.4 3.4,-2.7 4.1,-3.7 1.6,-3.4 0.3,-5.7 -3.2,-5.1 -4.2,-0.3 -7.1,0 -9.7,1 1.4,-2.5 5.7,-19.1 7.1,-21.1 0.3,-0.6 0.7,-1.5 1.3,-2.2 l 1.2,-0.7 2.8,-0.1 c 5.5,-0.1 12.3,-2 16.1,-4.3 l 2.2,-1.2 c -0.7,1.1 0.7,2.4 2.1,2.9 0.7,0.9 2.5,1.5 3.2,1.7 1.9,1.6 3.7,1.3 7.1,-0.5 3.5,-1.9 4.5,-3.4 4.7,-4.8 0,-1.3 -0.4,-2.6 -1.7,-2.8 -0.7,0 -1.8,0.8 -1.1,-1.4 0.1,-0.8 0.3,-1.6 0.6,-1.6 0,0 0.9,-0.6 1.9,-0.9 3,-1.6 9.4,-4.6 10.7,-9.8 0.1,-2.6 -0.6,-3.2 -1.9,-5.1 -0.6,-0.9 -1.3,-2 -3.8,-2.4 -2.1,-0.2 -3.6,-0.7 -5.5,-1.3 -2.4,-1.3 -1.5,1 -2.7,-10.9 -0.6,-3.5 -1.9,-7.6 -3.4,-12.1 -1.6,-4.5 -4.7,-9.1 -8.6,-13.4 3.2,0.3 5.7,2.6 6.2,5.4 0.1,-0.3 0.1,-0.7 0.1,-1 0,-4 -3,-7.2 -6.6,-7.2 -0.7,0 -1.3,0.1 -2,0.3 -8,-8.1 -18.5,-15.4 -27.1,-20.9 -0.6,-0.6 -2.5,-1.6 -4.1,-2.6 -8.6,-5.1 -14.7,-10.3 -17.5,-15.8 -1.2,-1.7 -2.1,-3.2 -2.7,-3.3 z m -0.1,0.5 c 0.4,-0.1 1.1,0.7 2.4,3.1 0.8,1.8 3.4,4.9 5.1,6.9 3.4,3.2 9.1,7.6 13.2,9.8 11.5,7.7 21.5,14.3 29.8,22.9 -1.8,1 -3.2,3 -3.5,5.2 1.1,-1.8 3.2,-3 5.4,-3.2 2.6,2.8 5,5.9 7.2,9.3 1.9,3.8 2.5,4.8 3.8,9.2 1.9,5.4 1.8,7.1 2.2,8.8 0.9,4.4 0.7,8.7 0.3,13.1 -0.9,4.4 -1.9,6 -3.2,8.6 -2.5,4.1 -5.7,8.9 -9.8,12.1 -8.1,7.5 -25.6,7.9 -35,4.7 0.1,-2.3 1,-7.3 1.7,-6.7 4.2,-0.1 5.1,-5.7 3.2,-7.6 -1.1,-1.6 -5.7,-2.7 -5.8,-2.5 0.5,-1.5 2.3,-3 1.8,-4.7 0,0 0,-0.1 0,-0.1 -0.5,1.1 -1,2.8 -2.1,4.2 -0.6,0.9 -3.1,-0.1 -4.7,0.2 -1.1,0.3 -1.8,0.9 -1.9,-0.5 -0.4,-0.7 -0.8,-1.8 -1,-2.2 -1.6,-2.3 -1,-3 0.1,-4.2 5.2,-4.6 -1.3,-0.1 -1.6,1.3 -0.2,-0.6 -2.3,-3.5 -2.3,-9.4 -0.2,-9.6 -1.8,-10 -2.8,-10.5 -1.5,-0.9 -4,-0.9 -6.4,2.7 -2.1,6.2 2.2,8.7 3.2,16.3 0.8,3.8 0.1,5.7 -0.7,4.9 0,-0.1 -2.3,-3.7 -3.3,-11.6 -0.4,-3.7 -0.2,-8.9 -0.2,-9.1 0.1,-5.9 3.8,-12.9 5.7,-16.9 14.3,-19.1 -2.8,-30.2 -1.2,-50.9 -0.2,-1.6 -0.2,-3.1 0.4,-3.2 z m 29.9,39.1 c -3.6,0 -6.6,3.2 -6.6,7.2 0,0.3 0,0.7 0.1,1 0.5,-3.1 3.4,-5.5 6.9,-5.5 2.5,0 4.8,1.2 6.1,3.2 -0.6,-3.3 -3.4,-5.9 -6.5,-5.9 z m 1,7.4 c -3.2,-0.3 -5.3,4.7 -4.5,11.2 0.7,6.5 3.8,12 7.1,12.3 3.2,0.3 5.3,-4.7 4.5,-11.3 -0.7,-6.4 -3.9,-11.9 -7.1,-12.2 z m -0.4,0.3 h 0.4 c 3,0.3 6,5.6 6.7,11.9 0.1,0.7 0.1,1.3 0.1,2 -0.7,-4 -3.3,-7.3 -6.1,-7.5 -2.7,-0.2 -4.5,2.4 -4.6,5.9 -0.1,-0.4 -0.1,-0.9 -0.2,-1.3 -0.7,-6 0.9,-10.8 3.7,-11 z m 21.7,2.8 c -2.8,0 -5.5,4.8 -6.1,10.6 -0.5,5.9 1.3,10.6 4.2,10.6 2.8,0 5.5,-4.8 6.1,-10.6 0.4,-5.8 -1.4,-10.6 -4.2,-10.6 z m 0,0.3 c 2.6,0 4.3,4.7 3.7,10.4 -0.1,0.4 -0.1,0.8 -0.1,1.1 -0.1,-3.3 -1.8,-5.8 -4.1,-5.8 -2.5,0 -4.8,2.8 -5.3,6.4 0,-0.6 0.1,-1.1 0.1,-1.8 0.5,-5.6 3.1,-10.3 5.7,-10.3 z m -21.2,9.8 c 0.9,0.1 1.4,0.6 1.7,2.1 0.2,1.3 -0.2,1.9 -1,2 -0.9,-0.1 -1.6,-0.5 -2,-2.2 -0.2,-1.2 0.4,-2 1.3,-1.9 z m 21.2,1.9 c 0.7,0 1.3,0.8 1.1,1.8 -0.3,1.5 -0.9,1.9 -1.7,1.9 -0.7,-0.1 -1.1,-0.7 -0.9,-1.9 0.3,-1.3 0.8,-1.8 1.5,-1.8 z m -22.9,4.4 c 1.1,1.4 2.5,2.4 4,2.5 1.6,0.1 3,-0.8 3.8,-2.4 -0.7,2.4 -2,3.7 -3.6,3.6 -1.5,-0.1 -3,-1.5 -4.2,-3.7 z m 17.6,1.1 c 0.7,1.5 2,2.5 3.4,2.5 1.3,0 2.5,-0.7 3.5,-2 -1.1,2 -2.4,3 -3.6,3 -1.4,0.1 -2.6,-1.3 -3.3,-3.5 z m -46.3,0.7 c 1.3,0 2.2,0.7 3,1.9 0.5,0.7 0.9,4.1 1.2,10.8 0.3,2.2 0.6,3.2 0.9,4.4 0.3,0.7 0.6,1.3 0.6,1.6 0,0.3 0.6,1.6 1.3,2.8 1.2,1.8 2,3.9 2.5,5.7 0.3,0.9 0.9,1.6 1.3,1.9 0.3,0.3 0.9,0.8 0.9,0.8 l -1.2,1.5 c -0.5,0.7 -1.2,1.7 -1.6,2.4 -1.6,3.9 -1.3,5.3 -1.2,5.8 0.7,3.6 3,4.7 6.1,4 0.8,-0.2 2,-1.4 2.3,-2 0.9,-1.8 0.5,-0.2 0.5,-0.2 -0.9,3.4 -3.7,5.2 -7.2,6.5 -1.3,0.1 -1.5,0.1 -2.5,1.3 -0.9,0.9 -2.2,1.9 -2.8,2.2 -4.2,2 -9.8,-0.2 -11.9,-3.4 -0.8,-1.2 -6.3,-7.2 -5.2,-7.3 3.1,3.2 5.7,6.1 10.7,4.4 1.1,-0.5 1.5,-0.9 1.5,1 0,0.9 0.3,1.6 0.3,1.6 0.3,0 0.6,-0.6 0.9,-1.9 0.6,-2.2 0.2,-2.5 1.7,-4.9 0.9,-1 2.4,-1.1 3.6,-3.4 0.7,-1.5 0.7,-2.2 0.7,-3.4 -1.1,-4.6 -3.3,-6 -7.6,-9.4 0,-0.3 0.3,-2 0.3,-3.9 -0.2,-2 -0.7,-4 -1.2,-5.7 -0.3,-0.9 -0.9,-2.6 -1.5,-4.1 -0.9,-2.2 -1.3,-2.8 -1.3,-4.4 0,-2.8 0.9,-5.1 3.4,-6 0.7,-0.6 1.1,-0.6 1.5,-0.6 z m 31.3,5.4 c -1,0.1 -3.6,1.9 -3.2,2.2 0.3,0.2 1.2,-0.1 1.3,0.3 -0.3,11.3 3,19.6 10.2,19.6 5.7,0 10.8,-7.8 15.3,-16.3 1.5,-0.1 1.2,-0.7 1.1,-1.8 0,-1.8 -1.4,-2.8 -1.7,1.5 -4.2,4.2 -7.1,6.1 -11.7,6.2 -6.3,0.1 -8.8,-2 -12.1,-9.9 -0.3,-0.5 1.8,-0.9 0.9,-1.7 0.2,-0.1 0,-0.1 -0.1,-0.1 z m -0.8,3.9 c 1.3,4.7 6.2,9 11.2,8.5 1.3,-0.1 1.2,-0.1 2.7,-0.5 -1.6,2.4 -3.8,3.3 -6.1,3.3 -4.6,0.1 -7.5,-5.1 -7.8,-11.3 z m 35.7,3.8 c 0.5,0 1.4,0.5 2.8,1.1 1.4,0.5 3,0.5 5.5,1 1.3,0.2 2.2,1.5 4.1,4.8 0.7,1.8 -0.5,5.4 -4.6,8.2 -1.8,1.5 -6.5,3.7 -7.2,3.9 -0.4,0.1 -1.3,-0.3 -1.5,-0.5 -0.6,-1.3 -1.9,-0.6 -0.6,-0.3 1.9,0.9 1.3,4.1 -0.9,7.3 -0.9,1.9 -1.9,1.9 -1.3,1.9 0.6,0 1.5,-1.6 2.5,-3.2 1.3,-1.3 2.8,-1.9 3.4,0.3 0.9,2.6 -4.1,5.6 -6.2,5.9 -2.2,1.1 -4.2,0.9 -4.8,-0.3 -1.1,-0.2 -3,-1.1 -3,-1.5 0.1,-0.7 0.4,-1.1 -0.5,-0.4 -0.5,0.4 -0.7,-0.3 -1.3,-0.7 -0.9,-0.6 -0.5,-1.5 1.6,-4.1 3.8,-4.1 5,-5.9 7.1,-9.1 2.5,-4.2 3,-5.7 6,-7.5 5.5,-3.4 0.4,-1.1 -2,0.7 -1.5,1.2 0.4,-2.4 0.3,-5.3 -0.1,-1.6 0.1,-2.2 0.6,-2.2 z m -70,10.7 c 0.4,0 0.8,0.1 1.1,0.3 2.2,1.3 6,4.1 7.2,6 1.3,1.9 1.5,2.8 1.5,4.4 0,2.6 -1.3,4.1 -3.4,4.1 -1.3,0 -2.9,-0.5 -2.9,-0.7 0,-0.3 0.5,-0.3 1,-0.5 1.6,-0.9 0.5,-0.7 -0.6,-0.3 -1.1,0.5 -1.8,-0.4 -2.2,-0.6 -0.9,-0.6 -1.3,-0.6 -0.3,0.3 0.2,0.1 1.3,1.7 1.7,3 0.9,2.1 0.1,4.2 -2.4,4.9 -1.5,0.3 -2.6,0.3 -2.8,-0.1 0,0 0.6,0.1 1.3,-0.1 1.1,-0.5 1.5,-0.7 2.2,-1.6 0.4,-1.3 -0.9,1.1 -2.9,1.3 -3.8,0.7 -6.5,-2.3 -9,-6.3 -0.5,-0.8 -0.9,-1.3 -0.9,-2.6 -0.3,-3.2 2,-5.1 4.8,-5.1 1.3,0 1.3,0 2.2,0.6 1.3,1.3 1.6,0.9 0.6,-0.3 -1,-1.3 -1.3,-3.8 0.3,-5.1 0.6,-1.1 2.2,-1.7 3.5,-1.6 z m 15.7,1.9 c 1,0 2.2,0.1 3.6,0.5 3.4,0.6 5.1,1.3 6.1,2.5 1.6,1.3 1.5,4.7 -1.1,6.4 -1.5,0.6 -1.9,0.6 -2.2,0 -0.6,-2.6 -0.6,-2.2 -0.6,0.9 -0.3,1.4 -0.3,3 -1.3,4.4 -1.3,3.4 -4.4,3.7 -6.8,2 -0.9,-0.9 -2,-3.2 -1.3,-5.6 0.8,-3.4 2,-4.7 3.9,-7 l -0.5,-0.3 c -1,-0.4 -2.6,-2.9 -1.8,-3.3 0.3,-0.3 1,-0.5 2,-0.5 z m 7.2,18.2 c 0.5,0 0.9,0.1 1.5,0.1 2.7,-0.1 -2.1,21.1 -3.4,26.7 l -0.6,3.2 c 0.3,0 0.3,0.3 0.6,-2.6 l 0.7,-2.9 c 0.4,-2.3 1.7,-7.6 3.4,-17.4 0.5,-7.1 2.2,-6.3 3.4,-6.2 2.6,0.2 4.1,0.3 3.1,2.4 -0.3,0.6 -1.1,2.6 -1.8,4.6 -0.2,0.7 -3.8,14.1 -4.8,15.7 -0.3,0.6 -0.8,1.6 -1.1,2.3 -0.6,1.3 -0.3,1.1 -0.3,1.1 0,-0.6 0.5,-1.3 1.5,-1.7 0.9,-0.5 8.6,-1.6 6.7,-0.3 -1.8,2.1 -3.2,4.7 -4.1,6.1 l -1,1.6 h -1.6 c -1.6,0 -2,0.3 -2.3,0 -1,-0.3 -2,-2.2 -2,-1.9 l 1.6,2.2 c 2,2.8 1.7,3.2 0.7,4.1 -1.1,1.3 -3,3.2 -3.6,4.7 -1,1.6 -1.5,1.3 -1.9,0.7 -0.3,-0.3 -0.3,-0.6 -0.3,-0.6 0,0 -0.7,-0.6 -1,-1.3 -0.7,-1.3 -2.8,-2.2 -3.8,-2.6 -0.9,-0.1 -0.5,-1.8 -0.5,-1.8 0,-0.3 0.7,-2.1 1.3,-3.4 1,-1.8 2.1,-3.2 3.1,-4.6 -0.3,-0.9 0.6,-18.7 0.9,-22.5 l 0.3,-1.9 c 1.1,-3.2 2.1,-3.9 5.3,-3.8 z m 12.8,24.3 c 0.2,0 0.4,0 0.6,0 0.5,0.1 1.5,0.7 1.5,1.5 -0.1,0.5 -0.4,1.9 -0.5,0.9 0,-0.3 -0.8,-1.9 -3.2,-1.7 0,-0.3 0.9,-0.6 1.6,-0.7 z m -1,1.2 c 0.3,0 0.7,0.1 1.1,0.3 0.5,0.3 2.2,1.2 0.9,2.8 -0.7,0.9 -1.8,2.2 -3,2.5 -0.6,0.3 -1.3,0.6 -1.6,0.7 l -2.3,0.4 c -1.8,0.3 2.2,-6.5 4.9,-6.7 z m -14.8,4.4 c -0.1,0 -0.3,0.1 -0.6,0.4 0.3,-0.2 0.5,-0.3 0.9,-0.3 -0.1,-0.1 -0.1,-0.1 -0.3,-0.1 z m -0.8,0.7 c -1.7,0.6 -1.7,1.2 0,0 z m 6.4,6.3 c 1.1,2.1 1.7,4.1 2,6.3 0,2.2 0,3 -1.6,3.5 -1,0.3 -2,0.6 -3.9,0.6 -3.4,0 -2.9,0.5 -2.6,-1.6 0,-1.6 1,-3.8 3,-6.3 0.8,-1.3 2.4,-2.5 3.1,-2.5 z m -12.5,2.6 c 0.9,-0.1 2,0.9 2.7,1.8 0.7,0.6 2,3.2 2.3,4.4 0.9,2.6 -0.9,1.7 -3,0.9 -2.2,-0.8 -3.4,-4.4 -3,-6.3 0.3,-0.5 0.6,-0.8 1,-0.8 z" />
      </g>
      <path
         style="fill:#572500"
         id="path1073"
         class="st24"
         d="m 381.43858,-45.463054 c 0,0 -0.10938,0.125781 -0.70941,0.825781 -0.9,1 -1.30937,1.509375 -1.30937,1.609375 0.01,0.06792 1.5791,0.560373 2.17188,0.735156 0.1,0 0.18437,-0.125 0.18437,-0.025 l 0.1,-0.3 c 0,-0.3 0.27031,-0.776562 0.37031,-1.176562 0.1,-0.3 0.28438,-1.121094 0.38438,-1.221094 0,0 -0.0922,-0.147656 -0.29216,-0.147656 -0.5,-0.2 -0.8,-0.3 -0.9,-0.3 z m 2.53747,0.945312 -0.0375,0.254688 c -0.18168,1.052336 -0.26641,1.644966 -0.53491,2.54971 2.04689,0.589967 3.29006,0.331822 5.10992,0.79335 0.008,-0.729068 0.41801,-1.985298 0.58124,-2.605555 -1.10705,-0.606283 -3.49166,-0.745691 -5.11878,-0.992193 z m 6.69141,0.947659 c -0.23146,0.893761 -0.27999,1.826337 -0.39941,2.738282 1.24181,0.139852 2.56307,0.448487 3.57053,0.268742 0.28012,-0.639919 0.32292,-1.328297 0.32714,-1.862498 0.0813,-0.398482 -0.0248,-0.69868 -0.0867,-0.976562 -1.15872,-0.03867 -2.35987,-0.09802 -3.41156,-0.167964 z" />
      <path
         id="path1071"
         d="m 381.63858,-45.963054 c -0.0864,0.271188 -0.13334,0.488886 -0.2,0.5 0.3,0.1 0.5,0.2 0.9,0.3 l 0.2,0.1 v 0.1 c -0.30334,0.863299 -0.53621,1.950718 -0.8,2.6 h -0.2 c -0.1,0 -0.2,-0.1 -0.4,-0.1 -0.3,-0.1 -1.3,-0.4 -1.3,-0.5 l -0.35703,-0.180469 1.95703,-2.319531 c 0,0.1 -2.1,2.4 -2.1,2.5 v 0 c 0.2,0.1 1.2,0.4 1.5,0.5 0.4,0.1 0.70313,0.254688 0.80313,0.254688 -0.4,2.2 -2.49688,4.08125 -4.49688,4.08125 0.17687,-1.098783 0.49195,-2.534669 0.69375,-3.635938 0,0 1.4,-1.1 1.5,-1.2 -0.1,0.1 -1.5,1.1 -1.5,1.1 h -0.3 c -0.73914,4.178316 -1.48353,9.024803 -1.5,12.8 0.2,1.2 0.6,1.927621 1.5,2.227621 1.87002,0.576814 6.3334,1.495856 6.74307,-0.317699 1.4035,0.715181 2.65856,0.969296 3.63096,1.046377 1.95925,0.155304 2.80307,-0.766683 3.2824,-2.242758 0.85811,-2.642542 1.93682,-6.491203 2.17951,-7.56901 0.26467,-1.525856 0.43098,-2.544424 0.53984,-3.340625 0.1,-0.5 0.15858,-1.003906 0.0586,-1.303906 l 0.0363,-0.183427 c 0.3,-0.9 0.23521,-1.788952 0.16411,-2.788952 l 0.14583,-0.327058 c -2.26033,0.74679 -9.29614,-0.600388 -12.68061,-2.100563 z m 2.3,1.1 c -0.12676,0.695451 -0.11825,1.028712 -0.35625,2.072656 -0.0423,0.53734 -0.31409,1.251352 -0.5046,1.52182 -0.50521,0.179562 -0.77407,0.0454 -1.03923,-0.294476 -0.3124,-0.690656 0.41319,-2.541864 0.7,-3.5 0.12464,-0.516617 1.28253,0.02418 1.20008,0.2 z m 0.1,0.4 v 0 c 0.9,0.3 2.1,0.5 2.6,0.6 0.73958,0.09386 1.84105,0.296492 2.3,0.4 -0.34085,0.815153 -0.51588,1.656519 -0.51953,2.450781 -0.73309,-0.14935 -0.9849,-0.215352 -1.38047,-0.250781 -1.4,-0.1 -2,-0.1 -3.6,-0.5 0.31963,-0.888744 0.45945,-1.899238 0.59977,-2.7 z m 6.39609,1.127344 c -0.0485,1.200572 -0.1779,1.984193 -0.45703,2.980469 -0.1,0.5 -1.44922,0.245392 -1.33906,-0.107813 -0.04,-1.041554 0.17862,-2.092459 0.45,-2.970313 0.57328,-0.55269 1.24976,-0.153814 1.34609,0.09766 z m 0.24454,-0.121094 c 0.58051,0.0604 0.94188,0.09375 1.45937,0.09375 h 0.4 0.7 0.3 0.2 0.3 c 0.19578,0.899297 0.0705,1.480369 -0.0547,2.203906 l -0.14531,0.596094 c -1.39116,0.05784 -2.35423,-0.0424 -3.45469,-0.342969 0.0326,-0.591018 0.26005,-1.802283 0.29539,-2.550781 z m -8.94063,1.49375 v 0 c 0,0.2 -0.0442,0.372379 0,0.6 0.42013,0.375998 1.30931,0.520559 1.46077,0.322097 0.21644,-0.149271 0.21452,-0.32464 0.33923,-0.522097 0.54106,0.09015 1.09726,0.210225 1.6,0.3 0.7,0.1 1.5,0.2 2.2,0.2 0.11848,2.064959 0.0731,4.227144 -0.4,6 h 0.4 c 0.4,-0.1 0.8,-0.2 1.1,-0.6 0.74568,-0.691571 1.32213,-2.610152 1,-2.2 -0.20189,0.43622 -0.47098,0.997036 -0.7,1.5 -0.46371,0.768319 -0.73457,0.985432 -1.57678,1.172942 0.27546,-1.717887 0.60603,-3.837145 0.33509,-5.814015 0.28764,0.04666 0.55701,0.190658 0.84169,0.241073 0.0141,0.216476 0.0871,0.522718 0.1,0.6 0.46012,0.298022 0.87632,0.296101 1.4,0.3 0.27155,-0.0056 0.30092,-0.442898 0.4,-0.6 -0.11658,-0.232472 0.70168,-9.73e-4 1.02734,-0.0016 0.21953,0.05859 0.54922,0.01406 0.96875,0.111719 0.1,2.2 0.36328,3.392969 1.0086,3.803906 -0.46126,2.139965 -1.22132,4.629657 -1.75313,6.476563 -0.89533,3.317162 -1.45254,3.039511 -2.3375,3.610156 -1.19167,0.436746 -3.24633,-0.404085 -4.80854,-0.878121 0.82837,-2.294299 1.50872,-4.881267 2.56948,-7.312504 0.1,-0.4 0.025,-0.510156 0.025,-0.410156 -1.09513,2.467991 -2.07111,5.698507 -2.9155,8.122319 -0.67358,1.242665 -6.85062,0.354609 -7.2845,-0.822319 -0.3,-0.4 -0.4,-1 -0.4,-1.7 0.25362,-3.071077 0.25526,-5.698951 0.8,-8.5 2.1,-0.1 4.2,-1.7 4.6,-4 z m 10.6,1.6 h 0.4 0.3 0.5 0.3 l -0.009,0.178125 c 0,0.3 0.009,0.821875 -0.0906,1.421875 0,0.3 -0.26641,1.164844 -0.36641,1.864844 -0.6,-0.1 -0.93359,-1.464844 -1.03359,-3.464844 z" />
    </g>
  </g>
</svg>
