<?xml version="1.0" encoding="UTF-8" standalone="no"?>
<svg
   xmlns:dc="http://purl.org/dc/elements/1.1/"
   xmlns:cc="http://creativecommons.org/ns#"
   xmlns:rdf="http://www.w3.org/1999/02/22-rdf-syntax-ns#"
   xmlns:svg="http://www.w3.org/2000/svg"
   xmlns="http://www.w3.org/2000/svg"
   xmlns:xlink="http://www.w3.org/1999/xlink"
   xmlns:sodipodi="http://sodipodi.sourceforge.net/DTD/sodipodi-0.dtd"
   xmlns:inkscape="http://www.inkscape.org/namespaces/inkscape"
   inkscape:version="1.0 (4035a4fb49, 2020-05-01)"
   sodipodi:docname="logo.svg"
   width="198.17067mm"
   height="84.562576mm"
   viewBox="0 0 198.17067 84.562576"
   version="1.1"
   id="svg944">
  <sodipodi:namedview
     inkscape:current-layer="svg944"
     inkscape:window-maximized="0"
     inkscape:window-y="0"
     inkscape:window-x="0"
     inkscape:cy="391.07689"
     inkscape:cx="358.41715"
     inkscape:zoom="3.4645472"
     showgrid="false"
     id="namedview73"
     inkscape:window-height="2054"
     inkscape:window-width="1918"
     inkscape:pageshadow="2"
     inkscape:pageopacity="0"
     guidetolerance="10"
     gridtolerance="10"
     objecttolerance="10"
     borderopacity="1"
     bordercolor="#666666"
     pagecolor="#ffffff"
     inkscape:document-rotation="0" />
  <defs
     id="defs938">
    <radialGradient
       gradientUnits="userSpaceOnUse"
       gradientTransform="matrix(0.52529583,0,0,0.84136365,-55.717899,-29.867526)"
       r="11.8"
       fy="75.399353"
       fx="134.22211"
       cy="75.399353"
       cx="134.22211"
       id="radialGradient1436"
       xlink:href="#radialGradient1301" />
    <radialGradient
       id="radialGradient1301"
       cx="4.9243999"
       cy="812.25763"
       r="2.0156"
       gradientTransform="matrix(4.1561,0,0,-6.0971,-183.4513,5111.1011)"
       gradientUnits="userSpaceOnUse">
      <stop
         offset="0"
         style="stop-color:#FFFFFF"
         id="stop1297" />
      <stop
         offset="1"
         style="stop-color:#FFFFFF;stop-opacity:0"
         id="stop1299" />
    </radialGradient>
    <radialGradient
       r="2.0156"
       cy="812.25763"
       cx="4.9243999"
       gradientTransform="matrix(2.183182,0,0,-3.2027812,3.992898,2616.0832)"
       gradientUnits="userSpaceOnUse"
       id="radialGradient1438"
       xlink:href="#radialGradient1327" />
    <radialGradient
       id="radialGradient1327"
       cx="-3063.0005"
       cy="46457.09"
       r="2.8906"
       gradientTransform="matrix(0.09778378,-0.0314469,-0.01689566,-0.182,1213.6948,8438.2109)"
       gradientUnits="userSpaceOnUse">
      <stop
         offset="0"
         style="stop-color:#FFFFFF"
         id="stop1323" />
      <stop
         offset="1"
         style="stop-color:#FFFFFF;stop-opacity:0"
         id="stop1325" />
    </radialGradient>
    <radialGradient
       r="2.8906"
       cy="46457.09"
       cx="-3063.0005"
       gradientTransform="matrix(0.17783837,0.00310327,0.08094574,-0.13395839,-3372.653,6589.4456)"
       gradientUnits="userSpaceOnUse"
       id="radialGradient1135"
       xlink:href="#ellipse2641_1_" />
    <radialGradient
       r="2.0156"
       cy="49327.691"
       cx="-2315.6289"
       gradientTransform="matrix(0.17909229,0.00498699,0.07330513,-0.12541427,-3342.1283,6537.5158)"
       gradientUnits="userSpaceOnUse"
       id="radialGradient1137"
       xlink:href="#ellipse2643_1_" />
    <radialGradient
       r="2.8906"
       cy="29183.807"
       cx="-6259.2109"
       gradientTransform="matrix(0.22769643,-0.01123426,0.21898511,-0.26700463,-5109.4352,8076.7893)"
       gradientUnits="userSpaceOnUse"
       id="radialGradient1139"
       xlink:href="#ellipse2649_1_" />
    <radialGradient
       r="2.0156"
       cy="35898.184"
       cx="1898.124"
       gradientTransform="matrix(0.31454843,0.0141898,0.10487682,-0.19268924,-4484.6037,7219.9397)"
       gradientUnits="userSpaceOnUse"
       id="radialGradient1141"
       xlink:href="#ellipse2651_1_" />
  </defs>
  <metadata
     id="metadata941">
    <rdf:RDF>
      <cc:Work
         rdf:about="">
        <dc:format>image/svg+xml</dc:format>
        <dc:type
           rdf:resource="http://purl.org/dc/dcmitype/StillImage" />
        <dc:title />
      </cc:Work>
    </rdf:RDF>
  </metadata>
  <path
     style="fill:#ffffff;fill-opacity:1;stroke-width:0.369664"
     d="m 42.329946,78.54927 c 0,-5.286197 -1.03506,-15.599826 -4.9535,-23.436706 -0.517529,-1.293824 -1.256858,-3.068212 -1.44169,-4.32507 6.838786,-3.290011 14.379934,-7.060585 20.442426,-10.017898 2.291918,0.51753 5.729794,1.145959 9.426435,2.846414 2.181018,2.846414 2.217985,4.140238 2.735515,5.36013 3.622708,13.455774 2.181018,22.845243 -1.330791,33.084939 l -9.796099,-0.1109 -9.7961,0.1109 C 45.693889,80.767254 44.104333,79.769161 42.329946,78.54927 Z"
     class="st16"
     id="path1350" />
  <g
     transform="matrix(0.36966412,0,0,0.36966412,-52.669119,107.61703)"
     id="g1348">
    <path
       d="m 305.7,-140.8 c -14,0 -27.1,12.2 -29.7,27.1 -2.4,14.9 6.9,27.1 20.7,27.1 8.2,0 16.2,-4.2 21.8,-10.8 5.3,-3.7 9.2,-8.5 10.3,-14.1 1,-4.5 -0.2,-8.8 -2.7,-12 -1.8,-10.1 -9.8,-17.3 -20.4,-17.3 z m 0,0.8 c 10.3,0 17.7,6.9 19.8,16.5 l -4.3,0.6 c 2.3,6.7 4.4,13.9 -6.6,23.8 l 3.2,1.6 c -5.5,6.1 -12.7,9.5 -20.4,9.5 -13.5,0 -21.2,-11.2 -18.8,-25.7 2,-14.4 13.6,-26.3 27.1,-26.3 z m -1.3,7.4 c -9.6,0 -18.9,8.5 -20.7,18.9 -1.8,10.4 4.8,18.9 14.5,18.9 9.6,0 18.9,-8.5 20.7,-18.9 1.7,-10.4 -4.9,-18.9 -14.5,-18.9 z m -0.3,0.8 c 9.3,0 15.7,8 14.1,18.1 -1.6,10.1 -10.9,18 -19.9,17.7 -9.3,-0.5 -14.8,-7.7 -13.2,-17.7 1.8,-10.1 9.8,-17.8 19,-18.1 z m 21.6,8.8 c 2.4,2.6 3.2,7.5 2.4,11.2 -0.6,4.7 -5.5,10.4 -10,13.6 l -2.6,-1.3 c 0.6,-1.6 12,-7.9 6.1,-23.1 z"
       class="st17"
       id="path1243" />
    <path
       d="m 316.6,-167.1 c -2.9,0 -5.1,2.4 -5.1,5.3 0,2.9 2.2,5.3 5.1,5.3 v 0 c 2.9,0 5.1,-2.4 5.1,-5.3 0.2,-2.9 -2.2,-5.3 -5.1,-5.3 z m 0.4,0.5 c 2.6,0 4.8,2.1 4.8,4.8 v 0 c 0,2.6 -2.1,4.8 -4.8,4.8 v 0 c -2.6,0 -4.8,-2.1 -4.8,-4.8 0,-2.7 2,-4.8 4.8,-4.8 z m -2.1,1.5 c -1.1,0.8 -1.6,2.1 -1.6,3.4 0,2.2 1.9,4.2 4.2,4.2 v 0 c 0.2,0 0.3,0 0.5,0 h -0.2 c -2.2,0 -4,-1.9 -4,-4.3 -0.2,-1.4 0.3,-2.5 1.1,-3.3 z"
       class="st17"
       id="path1265" />
    <path
       d="m 281.3,-149.9 c -2.9,0 -5.6,2.2 -6.3,5.1 -0.6,2.9 1.3,5.1 4,5.1 v 0 c 2.9,0 5.6,-2.2 6.3,-5.1 0.7,-2.8 -1.3,-5.1 -4,-5.1 z m 0,0.3 c 2.6,0 4.3,2.1 3.7,4.7 v 0 c -0.5,2.6 -3.2,4.7 -5.8,4.7 v 0 c -2.6,0 -4.3,-2.1 -3.7,-4.7 0.7,-2.6 3.2,-4.7 5.8,-4.7 z m -2.2,1.5 c -1.3,0.8 -2.1,1.9 -2.4,3.2 -0.5,2.2 1,4 3.2,4 v 0 c 0.2,0 0.3,0 0.5,0 h -0.2 c -2.2,0 -3.5,-1.9 -3.1,-4.2 0.2,-1.1 1,-2.2 2,-3 z"
       class="st17"
       id="path1267" />
    <path
       d="m 292.1,-155.3 c -2.9,0 -5.6,2.2 -6.3,5.1 -0.6,2.9 1.3,5.1 4,5.1 v 0 c 2.9,0 5.6,-2.2 6.3,-5.1 0.6,-2.9 -1.1,-5.1 -4,-5.1 z m 0.1,0.3 c 2.6,0 4.3,2.1 3.7,4.7 v 0 c -0.5,2.6 -3.2,4.7 -5.8,4.7 v 0 c -2.6,0 -4.3,-2.1 -3.7,-4.7 0.5,-2.6 3.1,-4.7 5.8,-4.7 z m -2.4,1.4 c -1.3,0.8 -2.1,1.9 -2.4,3.2 -0.5,2.2 1,4 3.2,4 v 0 c 0.2,0 0.3,0 0.5,0 H 291 c -2.2,0 -3.5,-1.9 -3.1,-4.2 0.3,-1.1 1,-2.2 1.9,-3 z"
       class="st17"
       id="path1269" />
    <path
       d="m 295,-181 -55.6,27.1 c 3.5,16.1 15.3,25.3 17.4,75.4 l 14.3,9.7 h 53.4 c 15.1,-45.9 8.5,-66.9 3.6,-90 -1.9,-5 -2.5,-8 -7.6,-14.5 -8.6,-4 -16.9,-5.8 -25.5,-7.7 z m -0.1,0.2 c 6,1.5 15.1,3 25.2,7.6 v 0 l -53.4,27.6 -26.9,-8.3 z m 25.4,7.9 c 4.5,5.8 5.5,9 7.2,14.3 l -58.5,25.1 c -0.3,-1.5 -1.5,-8.4 -2,-11.4 z m 7.3,14.6 c 10.5,37.7 5,65 -3.6,89 h -52.5 c 2,-20.6 3.1,-42 -2.3,-63.6 z m -87.7,4.9 26.8,8.6 c 0.3,1.6 1.7,9.6 2,11.5 l -25.1,-8.9 c -1.6,-4.4 -2.6,-6.1 -3.7,-11.2 z m 4,11.5 25.1,9.2 c 4.9,21.5 4.2,42.7 2.2,63.1 l -14,-9.4 c 0.2,-20 -5.1,-47 -13.3,-62.9 z"
       class="st17"
       id="rect1271" />
    <path
       d="m 294.4,-179.3 -49.7,24.4 c 7.4,2.4 15.8,5.2 22.6,7.7 l 49.1,-25.4 c -7.3,-3.4 -14.7,-4.8 -22,-6.7 z m -0.1,0.3 c 4,1.1 15.4,3.5 21.4,6.4 l -48.4,25 c -9.2,-3.8 -14.2,-5.3 -21.5,-7.3 z"
       class="st17"
       id="path1325" />
  </g>
  <path
     style="fill:#ffffff;fill-opacity:1;stroke-width:0.525296"
     id="path896"
     class="st19"
     d="m 15.786473,84.419382 c -0.315178,-0.05253 -0.787944,-0.157589 -1.26071,-0.367707 -1.26071,-0.472766 -1.523358,-0.682885 -1.996125,-1.628417 -0.420236,-0.787944 -0.577825,-1.575888 -0.577825,-2.416361 0,-1.786006 0.840473,-3.78213 2.46889,-5.778254 l 0.367707,-0.472766 0.10506,-3.099246 c 0.157588,-5.935843 0.262648,-8.352204 0.472766,-9.402795 0.105059,-0.525296 0.262648,-0.998062 0.262648,-1.050592 -0.157589,-0.157589 -2.784068,1.103121 -3.624541,1.838536 -0.945533,0.682884 -1.31324,0.840473 -2.0486549,1.103121 -0.472766,0.157589 -0.6828837,0.157589 -1.4182983,0.157589 -0.7354141,0 -0.9455324,-0.05253 -1.4708283,-0.157589 C 5.8583811,62.777194 5.0704374,62.094309 3.8097274,60.570951 3.3894907,60.045655 2.7066061,59.205182 2.3388991,58.784945 0.60542281,56.736292 0.18518616,55.843289 0.02759736,54.057283 -0.28758014,52.218748 2.4964878,50.747919 3.862257,51.693452 3.914786,51.640922 3.809727,51.010567 3.809727,50.64286 3.757197,50.065035 3.6521382,50.117564 3.9673157,49.43468 5.5432032,47.543615 6.9089724,48.06891 7.0140315,48.436618 5.7533215,45.810138 2.1813099,37.457935 8.1696824,28.107669 c 0.1575887,-0.210118 1.8910656,-2.626479 2.3638316,-3.83466 0.420237,-1.15565 0.472766,-1.996124 0.472766,-3.7296 0,-2.311302 -0.262647,-3.099245 -1.5758876,-7.406671 C 8.012094,8.461605 7.6443869,6.7806583 7.5393278,4.1016496 7.4867978,2.8409396 7.5918578,1.0024042 7.7494461,0.52963794 8.0646236,-0.83613124 9.0101564,1.1599929 9.2202744,1.6852888 13.002405,7.9363091 17.730067,9.3546079 23.035555,13.031679 c 3.939719,2.679008 7.301612,5.147899 10.295798,7.879437 0.472766,0.472766 1.365769,1.26071 1.628417,1.575888 1.996124,-0.577826 3.361894,0.577825 3.992249,1.680946 0.262648,0.472766 0.472766,1.208181 0.472766,1.680947 v 0.367707 c -0.157589,-0.893003 -0.945533,-1.680947 -1.575888,-2.048654 -0.577825,-0.315177 -1.15565,-0.472766 -1.786005,-0.472766 l 0.525295,0.577825 c 1.470829,1.733477 2.679009,3.572012 3.414423,5.147899 0.630355,1.36577 1.891065,4.937781 2.206243,6.671258 0.420236,2.101183 0.420236,3.939718 0.735414,6.145961 0.157589,0.420236 0.577825,0.472766 0.945532,0.630355 0.577826,0.262648 1.891065,0.525296 2.679009,0.682884 0.735414,0.105059 1.26071,0.262648 1.575888,0.525296 0.315177,0.210118 1.103121,1.365769 1.313239,1.786006 0.105059,0.262648 0.262648,0.367707 0.315178,1.155651 0,0.577825 -0.05253,0.787944 -0.262648,1.20818 -0.420237,0.787944 -1.26071,1.786006 -2.416361,2.626479 -3.887189,2.679009 -3.992248,1.26071 -4.359955,3.519482 0,0.157589 -0.05253,0.472767 0.577825,0.367707 0.420237,-0.105059 0.525296,0.10506 0.735414,0.315178 0.315178,0.472766 0.262648,0.630355 0.262648,1.050592 0,0.472766 -0.577825,1.26071 -1.575887,1.891065 -1.36577,0.893003 -2.258772,1.26071 -3.046716,1.26071 -0.472766,0 -0.525296,-0.05253 -1.575888,-0.525296 -1.575887,-0.787944 -2.363831,-1.26071 -2.573949,-1.680947 -0.105059,-0.210118 -0.157589,-0.367707 -0.105059,-0.472766 0.157588,-0.262648 0.157588,-0.262648 -0.998063,0.367707 -0.893002,0.472766 -1.365769,0.682885 -2.41636,1.103121 -1.891065,0.682885 -3.519482,1.155651 -6.040902,1.26071 -1.838536,0.05253 -1.996125,-0.105059 -2.52142,0.525296 -0.525296,0.893003 -1.050592,2.206243 -2.994187,8.667381 -0.262648,0.945533 -0.682884,2.048654 -0.787943,2.52142 -0.157589,0.472766 -0.472767,1.103121 -0.472767,1.155651 0,0 0.682885,-0.262648 1.050592,-0.315177 1.418299,-0.367708 2.46889,-0.367708 4.202367,-0.210119 0.630355,-0.157589 1.050591,-0.05253 1.313239,0.05253 0.840474,0.472766 0.945533,1.680946 -0.05253,2.836597 -0.472767,0.525296 -1.050592,1.155651 -1.418299,1.31324 -0.367707,0.157589 -1.680947,0.577825 -2.153713,0.682884 -0.262648,0.05253 -0.840473,0.10506 -1.365769,0.157589 -0.998062,0.05253 -1.26071,0 -1.523358,0.262648 -0.05253,0.05253 0.262648,0.525296 0.525296,1.155651 1.050591,2.46889 1.575887,4.675133 1.20818,5.305488 -0.315177,0.472766 -1.996124,1.050591 -3.7296,1.103121 -0.577826,-0.05253 -1.208181,-0.05253 -1.470827,-0.105059 z" />
  <g
     id="g1391"
     transform="matrix(0.36183952,0,0,0.36183952,-6.8114234,-10.640344)"
     style="fill:#014e84;fill-opacity:1">
    <path
       id="path1381"
       class="st14"
       d="m 219,98.3 c 0.7,0 2.4,0 5.1,-0.1 2.7,0 5.7,-0.1 9.2,-0.1 3.5,0 7.1,0 10.8,-0.1 3.7,0 7.1,-0.1 10,-0.1 8.9,0 16.6,1.3 23.1,3.9 6.5,2.6 11.8,6.2 16,10.9 4.2,4.7 7.3,10.2 9.3,16.6 2,6.4 3,13.5 3,21.2 0,7.9 -1,15 -3.1,21.3 -2,6.3 -5.2,11.6 -9.4,16 -4.3,4.4 -9.6,7.8 -16.1,10.1 -6.5,2.3 -14.2,3.5 -23.1,3.5 -3,0 -5.8,0 -8.3,-0.1 -2.5,-0.1 -5.1,-0.1 -7.7,-0.1 -2.6,0 -5.4,0 -8.3,-0.1 -2.9,-0.1 -6.3,-0.1 -10.2,-0.1 V 98.3 Z m 29.9,17.4 c -0.9,0.1 -2.3,0.1 -3.9,0.1 v 67.9 c 1.4,0.1 2.6,0.2 3.6,0.2 1,0 2.5,0 4.4,0 4.6,0 8.5,-0.8 11.6,-2.3 3.1,-1.5 5.6,-3.7 7.5,-6.5 1.9,-2.8 3.3,-6.3 4.1,-10.4 0.8,-4.1 1.3,-8.7 1.3,-13.8 0,-23.5 -8.1,-35.2 -24.4,-35.2 -1.9,-0.1 -3.3,-0.1 -4.2,0 z"
       style="fill:#014e84;fill-opacity:1" />
    <path
       id="path1383"
       class="st14"
       d="m 352.7,147.6 c -1.4,0.6 -2.7,1.5 -3.9,2.8 -1.3,1.3 -2.3,2.9 -3.1,4.9 -0.8,2 -1.3,4.3 -1.3,7.1 v 38.7 h -24.9 v -39.5 c 0,-6.1 -0.4,-11.1 -1.3,-15.1 -0.9,-4 -1.9,-7.3 -3.1,-9.8 -1.3,-2.8 -2.7,-5.1 -4.2,-6.8 l 20,-6.1 c 0.8,1 1.7,2.2 2.7,3.5 0.7,1.1 1.5,2.5 2.4,4.3 0.8,1.7 1.5,3.7 2,5.9 2.6,-4.9 5.7,-8.4 9.4,-10.5 3.7,-2.1 7.9,-3.2 12.8,-3.2 2.2,0 4.2,0.2 5.9,0.5 1.7,0.4 3.2,0.7 4.3,1.1 l -6.5,22.9 c -0.7,-0.4 -1.7,-0.8 -2.9,-1.1 -1.2,-0.4 -2.7,-0.5 -4.5,-0.5 -1.2,0 -2.5,0.3 -3.8,0.9 z"
       style="fill:#014e84;fill-opacity:1" />
    <path
       id="path1385"
       class="st14"
       d="m 434.9,133.7 c 5.7,6.9 8.6,16.4 8.6,28.6 0,5.8 -0.8,11.1 -2.3,16 -1.5,4.9 -3.8,9.2 -6.9,12.8 -3.1,3.6 -7,6.4 -11.6,8.5 -4.7,2.1 -10.1,3.1 -16.3,3.1 -6.3,0 -11.7,-0.9 -16.3,-2.7 -4.6,-1.8 -8.3,-4.3 -11.2,-7.7 -2.9,-3.3 -5,-7.4 -6.5,-12.2 -1.4,-4.8 -2.1,-10.2 -2.1,-16.2 0,-5.8 0.8,-11.1 2.3,-16.1 1.5,-5 3.8,-9.2 6.9,-12.8 3.1,-3.6 7,-6.4 11.6,-8.5 4.7,-2.1 10.2,-3.1 16.4,-3.1 12.6,-0.1 21.7,3.4 27.4,10.3 z m -33.4,9.3 c -1.3,1.1 -2.2,2.5 -2.9,4.4 -0.7,1.9 -1.2,4.1 -1.4,6.6 -0.3,2.5 -0.4,5.3 -0.4,8.2 0,3 0.2,5.9 0.5,8.7 0.3,2.7 0.9,5.1 1.7,7.1 0.8,2 1.9,3.6 3.4,4.8 1.5,1.2 3.3,1.7 5.5,1.7 1.9,0 3.5,-0.6 4.7,-1.7 1.3,-1.1 2.2,-2.6 2.9,-4.5 0.7,-1.9 1.2,-4.1 1.4,-6.6 0.3,-2.5 0.4,-5.2 0.4,-8.1 0,-3.1 -0.2,-6.1 -0.5,-8.7 -0.3,-2.7 -0.9,-5 -1.7,-7.1 -0.8,-2 -1.9,-3.6 -3.4,-4.8 -1.5,-1.2 -3.3,-1.7 -5.5,-1.7 -1.9,0.1 -3.5,0.6 -4.7,1.7 z"
       style="fill:#014e84;fill-opacity:1" />
    <path
       id="path1387"
       class="st14"
       d="m 453.4,234.7 v -73.1 c 0,-6.1 -0.4,-11.1 -1.3,-15.1 -0.9,-4 -1.9,-7.3 -3.1,-9.8 -1.3,-2.8 -2.7,-5.1 -4.2,-6.8 l 20,-6.1 c 1.3,1.2 2.4,2.7 3.5,4.4 0.8,1.4 1.7,3.2 2.5,5.4 0.8,2.2 1.5,4.7 1.9,7.5 2,-5.8 4.7,-10.1 8.3,-13 3.5,-2.9 8.1,-4.3 13.8,-4.3 4.9,0 9.3,0.9 13,2.7 3.7,1.8 6.8,4.4 9.3,7.7 2.5,3.3 4.3,7.3 5.5,11.9 1.2,4.7 1.8,9.9 1.8,15.6 0,5.7 -0.9,11 -2.8,15.9 -1.9,4.9 -4.5,9.2 -7.9,12.8 -3.4,3.6 -7.4,6.4 -12,8.5 -4.6,2.1 -9.6,3.1 -15,3.1 -2.9,0 -5.7,-0.3 -8.2,-0.9 v 29.5 z m 31.9,-91.4 c -1.4,1.3 -2.7,2.9 -3.7,5 -1.1,2.1 -1.9,4.5 -2.4,7.3 -0.6,2.8 -0.9,5.7 -0.9,8.7 v 19 c 0.7,0.2 1.7,0.4 3,0.7 1.3,0.3 2.4,0.4 3.5,0.4 2.5,0 4.6,-0.5 6.3,-1.6 1.7,-1.1 3,-2.5 4,-4.4 1,-1.9 1.7,-4.1 2.1,-6.7 0.4,-2.6 0.6,-5.4 0.6,-8.4 0,-2.8 -0.1,-5.6 -0.2,-8.2 -0.1,-2.6 -0.4,-5 -1,-7 -0.6,-2 -1.4,-3.6 -2.4,-4.9 -1.1,-1.2 -2.5,-1.8 -4.4,-1.8 -1.6,0 -3.1,0.6 -4.5,1.9 z"
       style="fill:#014e84;fill-opacity:1" />
    <path
       id="path1389"
       class="st14"
       d="m 553.7,92 c 2.3,2.5 3.5,5.7 3.5,9.6 0,4 -1.2,7.2 -3.5,9.9 -2.4,2.6 -5.9,4 -10.6,4 -4.4,0 -7.8,-1.3 -10.2,-3.9 -2.4,-2.6 -3.5,-5.6 -3.5,-9.2 0,-4 1.2,-7.4 3.6,-10.1 2.4,-2.7 6,-4 10.7,-4 4.3,-0.1 7.7,1.2 10,3.7 z m -17.3,105.2 c -3.7,-3 -5.5,-7.2 -5.5,-12.7 v -59.7 h 24.9 v 52.9 c 0,2.3 0.4,3.9 1.1,4.7 0.7,0.8 1.8,1.2 3.3,1.2 0.8,0 1.7,-0.1 2.5,-0.2 0.8,-0.2 1.4,-0.3 1.6,-0.4 l 2.2,15 c -0.1,0.1 -0.6,0.3 -1.4,0.7 -0.8,0.4 -1.9,0.8 -3.3,1.2 -1.4,0.5 -3,0.9 -4.9,1.2 -1.9,0.3 -3.9,0.5 -6,0.5 -6,0.1 -10.9,-1.4 -14.5,-4.4 z"
       style="fill:#014e84;fill-opacity:1" />
  </g>
  <g
     id="g1121"
     transform="matrix(0.35391937,0,0,0.35391937,-4.565082,-9.0491884)"
     style="fill:#33aaff;fill-opacity:1;stroke:#ffffff;stroke-opacity:1">
    <path
       id="path119"
       class="st15"
       d="m 252.2,231.6 c 0.1,-0.7 0.3,-1.7 0.6,-3.1 0.3,-1.4 0.6,-2.7 1,-4 -0.5,0.6 -1,1.3 -1.6,2 -0.6,0.7 -1.2,1.4 -1.8,2 -0.6,0.7 -1.1,1.3 -1.6,1.8 -0.5,0.5 -0.9,0.9 -1.2,1.2 l -23.5,23.9 c -0.4,0.4 -0.8,0.6 -1.3,0.6 h -11.3 c -1.2,0 -2,-1 -1.8,-2.2 l 8,-47.7 c 0.2,-0.9 0.9,-1.6 1.8,-1.6 H 234 c 1.2,0 2.1,1.1 1.8,2.3 l -6.2,24.4 c -0.3,0.9 -0.6,2 -1,3.5 -0.4,1.4 -0.8,2.7 -1.1,3.9 0.4,-0.5 0.9,-1.1 1.4,-1.8 0.6,-0.7 1.2,-1.4 1.7,-2.1 0.6,-0.7 1.1,-1.3 1.7,-2 0.6,-0.6 1,-1.1 1.3,-1.5 l 24,-26.1 c 0.4,-0.4 0.9,-0.6 1.4,-0.6 h 13 c 1.2,0 2.1,1.1 1.8,2.3 l -6,25.3 c -0.1,0.4 -0.2,0.8 -0.4,1.4 -0.1,0.6 -0.3,1.2 -0.5,1.8 -0.2,0.6 -0.3,1.3 -0.6,2 -0.2,0.7 -0.4,1.3 -0.6,1.9 0.5,-0.6 1,-1.2 1.6,-1.9 0.6,-0.7 1.2,-1.4 1.8,-2 0.6,-0.7 1.2,-1.3 1.7,-1.9 0.5,-0.6 0.9,-1 1.2,-1.3 l 25.2,-27.5 c 0.4,-0.5 1.1,-0.7 1.7,-0.6 l 10.5,-1 c 1.5,0.3 2.1,2.1 1,3.2 l -47.1,49.2 c -0.3,0.3 -0.8,0.5 -1.3,0.5 h -12 c -1.2,0 -2,-1.1 -1.8,-2.2 z"
       style="fill:#33aaff;fill-opacity:1;stroke:#ffffff;stroke-opacity:1" />
    <path
       id="path121"
       class="st15"
       d="m 302.3,256.7 c -2.8,0 -5,-0.4 -6.6,-1.2 -1.7,-0.8 -2.9,-1.8 -3.6,-3.1 -0.8,-1.3 -1.2,-2.7 -1.3,-4.2 -0.1,-1.6 0.1,-3.1 0.6,-4.7 1.1,-3.7 2.8,-7.1 5.1,-10.3 2.3,-3.2 5.1,-5.9 8.5,-8.3 3.4,-2.4 7.2,-4.2 11.5,-5.5 4.3,-1.3 9,-2 14.1,-2 2.4,0 4.5,0.1 6.4,0.4 1.8,0.3 3.5,0.7 5.3,1.3 0.2,0.1 0.3,0.1 0.5,0.1 l 5.3,0.2 c 1.4,0.1 2.2,1.6 1.5,2.8 l -8.1,14.1 c -0.7,1.2 -1.4,2.4 -1.9,3.5 -0.5,1.1 -0.9,2.1 -1.2,3 -0.7,2.2 -0.8,4 -0.6,5.5 0.2,0.9 0.4,1.8 0.8,2.7 0.5,1.1 -0.1,2.3 -1.2,2.6 l -11.5,3 c -0.8,0.2 -1.6,-0.1 -2,-0.7 -0.4,-0.6 -0.8,-1.4 -1,-2.2 -0.4,-1.3 -0.3,-2.7 0.1,-4.2 0.2,-0.6 0.4,-1.3 0.7,-2.1 0.3,-0.8 0.6,-1.7 1.1,-2.7 l -2.1,2.2 c -3.4,3.5 -6.8,6.1 -10.2,7.5 -3.3,1.6 -6.8,2.3 -10.2,2.3 z m 8,-9.1 c 1.1,0 2.4,-0.6 4,-1.7 1.6,-1.1 3.2,-2.6 4.9,-4.3 1.7,-1.7 3.3,-3.7 4.9,-5.7 1.6,-2.1 3,-4 4.2,-5.9 l 0.6,-0.9 c 0.8,-1.2 -0.1,-2.9 -1.6,-2.9 v 0 c -2.5,0 -4.8,0.7 -6.9,2 -2,1.3 -3.8,2.9 -5.4,4.7 -1.5,1.8 -2.8,3.8 -3.8,5.8 -1,2 -1.7,3.7 -2.1,5 -0.3,1.1 -0.4,2 -0.3,2.8 0,0.8 0.5,1.1 1.5,1.1 z"
       style="fill:#33aaff;fill-opacity:1;stroke:#ffffff;stroke-opacity:1" />
    <path
       id="path123"
       class="st15"
       d="m 383.1,217.1 c 5,0 8.6,0.8 10.8,2.3 1.7,1.2 2.7,3 2.8,5.3 0.1,0.9 -0.5,1.8 -1.5,2 l -11.9,2.7 c -0.1,-0.5 -0.1,-0.9 -0.1,-1.3 0,-0.4 -0.1,-0.8 -0.3,-1.2 -0.2,-0.4 -0.5,-0.6 -0.9,-0.8 -0.4,-0.2 -1.1,-0.3 -2,-0.3 -1.5,0 -2.5,0.3 -3.2,1 -0.7,0.6 -1.1,1.2 -1.3,1.8 -0.3,1 -0.1,1.8 0.7,2.3 0.7,0.6 1.4,1.1 2.1,1.4 l 2.5,1.2 c 1.1,0.6 2.2,1.1 3.2,1.7 1,0.6 1.8,1.2 2.5,2 0.7,0.8 1.1,1.8 1.3,2.9 0.2,1.1 0.1,2.5 -0.4,4.2 -0.5,1.7 -1.5,3.4 -2.9,4.9 -1.4,1.5 -3.2,2.9 -5.4,4.1 -2.2,1.2 -4.8,2.1 -7.8,2.8 -3,0.7 -6.3,1 -9.9,1 -2.4,0 -4.7,-0.2 -6.9,-0.7 -2.2,-0.5 -4.2,-1 -5.9,-1.5 -1,-0.3 -2,-0.7 -3,-1 -1.3,-0.5 -1.6,-2.2 -0.6,-3.1 l 6.3,-5.8 c 0.6,-0.5 1.5,-0.7 2.2,-0.3 0.9,0.5 1.9,1 2.8,1.4 1.1,0.6 2.3,1.1 3.6,1.5 1.3,0.4 2.6,0.6 3.7,0.6 1.9,0 3.4,-0.3 4.4,-0.8 1,-0.5 1.7,-1.2 2,-2.1 0.3,-1 0.2,-1.9 -0.3,-2.5 -0.5,-0.6 -1.5,-1.2 -2.8,-1.8 l -3.2,-1.3 c -0.9,-0.3 -1.7,-0.7 -2.5,-1.2 -0.8,-0.5 -1.5,-1.2 -2.1,-2 -0.6,-0.8 -1,-1.8 -1.2,-3 -0.2,-1.2 0,-2.6 0.5,-4.2 0.5,-1.7 1.5,-3.3 2.8,-4.8 1.4,-1.5 3.1,-2.7 5.2,-3.8 2.1,-1.1 4.6,-1.9 7.5,-2.5 2.5,-0.8 5.7,-1.1 9.2,-1.1 z"
       style="fill:#33aaff;fill-opacity:1;stroke:#ffffff;stroke-opacity:1" />
    <path
       id="path125"
       class="st15"
       d="m 421.6,204.3 c 8.2,-3.2 25.6,-19.7 19.9,-9.6 -1.1,2.5 -3.6,7.6 -3.9,8.1 l -5.2,8.8 c -1.4,2.6 -2.6,4.6 -5.1,7.7 -2.4,3 -5,6.2 -7.8,9.4 2.2,-2.2 4.3,-3.9 6.2,-5.4 2,-1.4 3.9,-2.6 5.8,-3.5 1.9,-0.9 3.8,-1.5 5.7,-1.8 1.9,-0.4 3.9,-0.5 6.1,-0.5 4.8,0 8,0.8 9.7,2.5 1.6,1.6 2,4 1.1,7.1 -0.7,2.2 -1.6,4.2 -2.9,6.1 -1.3,1.9 -2.6,3.7 -3.9,5.4 -1.3,1.7 -2.6,3.3 -3.7,4.8 -1.2,1.5 -2,3 -2.4,4.5 -0.3,0.9 -0.6,2.1 -0.8,3.6 -0.2,0.9 -0.3,1.9 -0.3,2.9 0,1 -0.9,1.8 -1.9,1.8 h -13.1 c -1.1,0 -2,-1 -1.9,-2.1 0.1,-0.6 0.1,-1.1 0.2,-1.5 0.2,-0.8 0.4,-1.6 0.6,-2.3 0.6,-1.8 1.4,-3.7 2.6,-5.4 1.2,-1.8 2.4,-3.5 3.6,-5.2 1.2,-1.7 2.4,-3.4 3.5,-5 1.1,-1.6 1.9,-3.3 2.4,-4.8 0.2,-0.7 0.2,-1.3 -0.1,-1.7 -0.3,-0.4 -0.9,-0.7 -1.8,-0.7 -1.4,0 -2.9,0.5 -4.7,1.5 -1.7,1 -3.5,2.3 -5.2,4 -1.8,1.6 -3.4,3.4 -4.9,5.3 -1.5,1.9 -2.8,3.8 -3.9,5.5 l -6.7,11.5 c -0.3,0.6 -0.9,0.9 -1.6,0.9 h -12.6 c -1.4,0 -2.3,-1.6 -1.6,-2.8 l 28.6,-49.1"
       style="fill:#33aaff;fill-opacity:1;stroke:#ffffff;stroke-opacity:1" />
  </g>
  <path
     d="m 15.786473,84.419382 c -0.315178,-0.05253 -0.787944,-0.157589 -1.26071,-0.367707 -1.26071,-0.472766 -1.523358,-0.682885 -1.996125,-1.628417 -0.420236,-0.787944 -0.577825,-1.575888 -0.577825,-2.416361 0,-1.786006 0.840473,-3.78213 2.46889,-5.778254 l 0.367707,-0.472766 0.10506,-3.099246 c 0.157588,-5.935843 0.262648,-8.352204 0.472766,-9.402795 0.105059,-0.525296 0.262648,-0.998062 0.262648,-1.050592 -0.157589,-0.157589 -2.784068,1.103121 -3.624541,1.838536 -0.945533,0.682884 -1.31324,0.840473 -2.0486549,1.103121 -0.472766,0.157589 -0.6828837,0.157589 -1.4182984,0.157589 -0.7354144,0 -0.9455324,-0.05253 -1.4708281,-0.157589 C 5.8583811,62.777194 5.0704374,62.094309 3.8097274,60.570951 3.3894907,60.045655 2.7066061,59.205182 2.3388991,58.784945 0.60542281,56.736292 0.18518616,55.843289 0.02759736,54.057283 -0.28758014,52.218748 2.4964878,50.747919 3.862257,51.693452 3.914786,51.640922 3.809727,51.010567 3.809727,50.64286 3.757197,50.065035 3.6521382,50.117564 3.9673157,49.43468 5.5432032,47.543615 6.9089726,48.06891 7.0140316,48.436618 5.7533215,45.810138 2.1813099,37.457935 8.169682,28.107669 c 0.157589,-0.210118 1.891065,-2.626479 2.363831,-3.83466 0.420237,-1.15565 0.472766,-1.996124 0.472766,-3.7296 0,-2.311302 -0.262647,-3.099245 -1.5758866,-7.406671 C 8.012094,8.461605 7.6443873,6.7806583 7.5393273,4.1016496 7.4867973,2.8409396 7.5918573,1.0024042 7.7494463,0.52963792 8.064624,-0.83613124 9.0101564,1.1599929 9.2202744,1.6852888 13.002405,7.9363091 17.730067,9.3546079 23.035555,13.031679 c 3.939719,2.679008 7.301612,5.147899 10.295798,7.879437 0.472766,0.472766 1.365769,1.26071 1.628417,1.575888 1.996124,-0.577826 3.361894,0.577825 3.992249,1.680946 0.262648,0.472766 0.472766,1.208181 0.472766,1.680947 v 0.367707 c -0.157589,-0.893003 -0.945533,-1.680947 -1.575888,-2.048654 -0.577825,-0.315177 -1.15565,-0.472766 -1.786005,-0.472766 l 0.525295,0.577825 c 1.470829,1.733477 2.679009,3.572012 3.414423,5.147899 0.630355,1.36577 1.891065,4.937781 2.206243,6.671258 0.420236,2.101183 0.420236,3.939718 0.735414,6.145961 0.157589,0.420236 0.577825,0.472766 0.945532,0.630355 0.577826,0.262648 1.891065,0.525296 2.679009,0.682884 0.735414,0.105059 1.26071,0.262648 1.575888,0.525296 0.315177,0.210118 1.103121,1.365769 1.313239,1.786006 0.105059,0.262648 0.262648,0.367707 0.315178,1.155651 0,0.577825 -0.05253,0.787944 -0.262648,1.20818 -0.420237,0.787944 -1.26071,1.786006 -2.416361,2.626479 -3.887189,2.679009 -3.992248,1.26071 -4.359955,3.519482 0,0.157589 -0.05253,0.472767 0.577825,0.367707 0.420237,-0.105059 0.525296,0.10506 0.735414,0.315178 0.315178,0.472766 0.262648,0.630355 0.262648,1.050592 0,0.472766 -0.577825,1.26071 -1.575887,1.891065 -1.36577,0.893003 -2.258772,1.26071 -3.046716,1.26071 -0.472766,0 -0.525296,-0.05253 -1.575888,-0.525296 -1.575887,-0.787944 -2.363831,-1.26071 -2.573949,-1.680947 -0.105059,-0.210118 -0.157589,-0.367707 -0.105059,-0.472766 0.157588,-0.262648 0.157588,-0.262648 -0.998063,0.367707 -0.893002,0.472766 -1.365769,0.682885 -2.41636,1.103121 -1.891065,0.682885 -3.519482,1.155651 -6.040902,1.26071 -1.838536,0.05253 -1.996125,-0.105059 -2.52142,0.525296 -0.525296,0.893003 -1.050592,2.206243 -2.994187,8.667381 -0.262648,0.945533 -0.682884,2.048654 -0.787943,2.52142 -0.157589,0.472766 -0.472767,1.103121 -0.472767,1.155651 0,0 0.682885,-0.262648 1.050592,-0.315177 1.418299,-0.367708 2.46889,-0.367708 4.202367,-0.210119 0.630355,-0.157589 1.050591,-0.05253 1.313239,0.05253 0.840474,0.472766 0.945533,1.680946 -0.05253,2.836597 -0.472767,0.525296 -1.050592,1.155651 -1.418299,1.31324 -0.367707,0.157589 -1.680947,0.577825 -2.153713,0.682884 -0.262648,0.05253 -0.840473,0.10506 -1.365769,0.157589 -0.998062,0.05253 -1.26071,0 -1.523358,0.262648 -0.05253,0.05253 0.262648,0.525296 0.525296,1.155651 1.050591,2.46889 1.575887,4.675133 1.20818,5.305488 -0.315177,0.472766 -1.996124,1.050591 -3.7296,1.103121 -0.577826,-0.05253 -1.208181,-0.05253 -1.470827,-0.105059 z"
     class="st19"
     id="path1047"
     style="fill:#33aaff;fill-opacity:1;stroke-width:0.525296;opacity:0.6" />
  <ellipse
     ry="9.928091"
     rx="6.1984911"
     cy="33.570747"
     cx="14.788414"
     class="st20"
     id="ellipse1055"
     style="fill:url(#radialGradient1436);fill-opacity:1;stroke:none;stroke-width:0.525296;stroke-opacity:1" />
  <ellipse
     ry="6.4611387"
     rx="4.4124846"
     cy="14.607565"
     cx="14.735881"
     class="st21"
     id="ellipse1063"
     style="fill:url(#radialGradient1438);fill-opacity:1;stroke-width:0.525296" />
  <g
     id="g1242"
     transform="matrix(0.52529583,0,0,0.52529583,-183.27732,82.392796)">
    <path
       style="fill:#004d66"
       id="path1069"
       class="st23"
       d="m 382.70105,-45.282585 c -0.48139,1.555189 -1.52472,3.971489 -0.053,4.136889 0.55135,0.104739 0.65824,-0.358283 0.82536,-0.933709 0.30974,-1.052576 0.31185,-1.96266 0.50819,-2.775836 0.17266,-0.323438 -0.36019,-0.305469 -0.56019,-0.405469 -0.4,-0.1 -0.51875,-0.29375 -0.72031,-0.02187 z m 6.39375,1.757031 c -0.2,0.4 -0.45235,1.340625 -0.55235,1.840625 l -0.11328,1.3 c 0.4197,0.432308 0.98396,0.296011 1.50992,0.328184 0.40204,-1.192109 0.98572,-3.442004 0.29008,-3.528184 -0.42186,-0.210377 -0.73697,-0.194177 -1.13437,0.05938 z m -9.75622,0.5625 c -0.1,0.1 -0.4641,0.315625 -0.6641,0.515625 -0.24034,0.164136 -0.54131,0.39192 -0.68828,0.539062 l -0.25703,0.223438 c -0.14566,1.129328 -0.36772,2.256805 -0.6,3.2 0,0.3 -0.2,1.5 -0.3,2 -0.43548,2.052373 -0.50369,4.218825 -0.6,6.3 -0.1,1.1 0.1,2.1 0.5,2.6 0.2,0.2 0.2,0.3 0.4,0.4 2.35119,0.851997 4.82906,1.485634 6.81578,0.548882 0.1,-0.2 0.18422,-0.548882 0.18422,-0.548882 0,0 2.6,0.7 3,0.8 0.4,0.1 0.8,0.2 1.1,0.2 h 0.7 c 0.2,0 0.2,-0.1 0.3,-0.1 0.4,-0.2 0.5,-0.3 0.8,-0.5 0.3,-0.3 0.5,-0.5 0.7,-0.9 0.1,-0.2 0.2,-0.4 0.3,-0.7 0.2,-0.5 0.6,-1.7 0.7,-1.9 0.4,-1.2 0.8,-2.8 1.1,-3.9 0.3,-1.3 0.5,-1.9 0.7,-3.3 0.2,-0.9 0.26094,-1.292187 0.3,-1.8 l 0.0664,-1.114844 -0.37032,-0.0625 c -0.8,0 -1.1039,-0.02187 -1.8039,-0.02187 -0.5,-0.1 -1.08047,-0.02578 -1.48047,-0.125781 -0.25342,0.126243 -0.23486,0.706747 -0.51172,0.725 -0.78298,-0.179973 -1.12861,-0.366521 -1.32422,-0.950781 l -0.41094,-0.08984 c -0.36716,-0.186663 -0.75658,-0.12518 -1.08141,-0.2472 -1.2811,0.05837 -2.08533,-0.240728 -3.22562,-0.407488 l -0.23672,-0.05078 c -1.18444,1.359938 -1.58128,-1.195093 -1.62538,-0.608075 l -0.34805,-0.03255 c -0.8412,-0.355912 -1.39554,-0.555594 -2.13824,-0.691416 z" />
    <g
       style="fill:#ffffff;fill-opacity:1;stroke:none"
       id="g1085"
       transform="matrix(0.01767122,0.00373903,-0.00373903,0.01767122,373.95366,-32.614433)">
      <path
         style="fill:#ffffff;fill-opacity:1;stroke:none"
         id="path1075"
         class="st13"
         d="m 217,98.2 c 0.7,0 2.4,0 5.1,-0.1 2.7,0 5.7,-0.1 9.2,-0.1 3.5,0 7.1,0 10.8,-0.1 3.7,0 7.1,-0.1 10,-0.1 8.9,0 16.6,1.3 23.1,3.9 6.5,2.6 11.8,6.2 16,10.9 4.2,4.7 7.3,10.2 9.3,16.6 2,6.4 3,13.5 3,21.2 0,7.9 -1,15 -3.1,21.3 -2,6.3 -5.2,11.6 -9.4,16 -4.3,4.4 -9.6,7.8 -16.1,10.1 -6.5,2.3 -14.2,3.5 -23.1,3.5 -3,0 -5.8,0 -8.3,-0.1 -2.5,-0.1 -5.1,-0.1 -7.7,-0.1 -2.6,0 -5.4,0 -8.3,-0.1 -2.9,-0.1 -6.3,-0.1 -10.2,-0.1 V 98.2 Z m 29.9,17.4 c -0.9,0.1 -2.3,0.1 -3.9,0.1 v 67.9 c 1.4,0.1 2.6,0.2 3.6,0.2 1,0 2.5,0 4.4,0 4.6,0 8.5,-0.8 11.6,-2.3 3.1,-1.5 5.6,-3.7 7.5,-6.5 1.9,-2.8 3.3,-6.3 4.1,-10.4 0.8,-4.1 1.3,-8.7 1.3,-13.8 0,-23.5 -8.1,-35.2 -24.4,-35.2 -1.9,-0.1 -3.3,-0.1 -4.2,0 z" />
      <path
         style="fill:#ffffff;fill-opacity:1;stroke:none"
         id="path1077"
         class="st13"
         d="m 350.7,147.5 c -1.4,0.6 -2.7,1.5 -3.9,2.8 -1.3,1.3 -2.3,2.9 -3.1,4.9 -0.8,2 -1.3,4.3 -1.3,7.1 V 201 h -24.9 v -39.5 c 0,-6.1 -0.4,-11.1 -1.3,-15.1 -0.9,-4 -1.9,-7.3 -3.1,-9.8 -1.3,-2.8 -2.7,-5.1 -4.2,-6.8 l 20,-6.1 c 0.8,1 1.7,2.2 2.7,3.5 0.7,1.1 1.5,2.5 2.4,4.3 0.8,1.7 1.5,3.7 2,5.9 2.6,-4.9 5.7,-8.4 9.4,-10.5 3.7,-2.1 7.9,-3.2 12.8,-3.2 2.2,0 4.2,0.2 5.9,0.5 1.7,0.4 3.2,0.7 4.3,1.1 l -6.5,22.9 c -0.7,-0.4 -1.7,-0.8 -2.9,-1.1 -1.2,-0.4 -2.7,-0.5 -4.5,-0.5 -1.2,0 -2.5,0.3 -3.8,0.9 z" />
      <path
         style="fill:#ffffff;fill-opacity:1;stroke:none"
         id="path1079"
         class="st13"
         d="m 432.9,133.6 c 5.7,6.9 8.6,16.4 8.6,28.6 0,5.8 -0.8,11.1 -2.3,16 -1.5,4.9 -3.8,9.2 -6.9,12.8 -3.1,3.6 -7,6.4 -11.6,8.5 -4.7,2.1 -10.1,3.1 -16.3,3.1 -6.3,0 -11.7,-0.9 -16.3,-2.7 -4.6,-1.8 -8.3,-4.3 -11.2,-7.7 -2.9,-3.3 -5,-7.4 -6.5,-12.2 -1.4,-4.8 -2.1,-10.2 -2.1,-16.2 0,-5.8 0.8,-11.1 2.3,-16.1 1.5,-5 3.8,-9.2 6.9,-12.8 3.1,-3.6 7,-6.4 11.6,-8.5 4.7,-2.1 10.2,-3.1 16.4,-3.1 12.6,-0.1 21.7,3.4 27.4,10.3 z m -33.4,9.3 c -1.3,1.1 -2.2,2.5 -2.9,4.4 -0.7,1.9 -1.2,4.1 -1.4,6.6 -0.3,2.5 -0.4,5.3 -0.4,8.2 0,3 0.2,5.9 0.5,8.7 0.3,2.7 0.9,5.1 1.7,7.1 0.8,2 1.9,3.6 3.4,4.8 1.5,1.2 3.3,1.7 5.5,1.7 1.9,0 3.5,-0.6 4.7,-1.7 1.3,-1.1 2.2,-2.6 2.9,-4.5 0.7,-1.9 1.2,-4.1 1.4,-6.6 0.3,-2.5 0.4,-5.2 0.4,-8.1 0,-3.1 -0.2,-6.1 -0.5,-8.7 -0.3,-2.7 -0.9,-5 -1.7,-7.1 -0.8,-2 -1.9,-3.6 -3.4,-4.8 -1.5,-1.2 -3.3,-1.7 -5.5,-1.7 -1.9,0.1 -3.5,0.6 -4.7,1.7 z" />
      <path
         style="fill:#ffffff;fill-opacity:1;stroke:none"
         id="path1081"
         class="st13"
         d="m 451.4,234.6 v -73.1 c 0,-6.1 -0.4,-11.1 -1.3,-15.1 -0.9,-4 -1.9,-7.3 -3.1,-9.8 -1.3,-2.8 -2.7,-5.1 -4.2,-6.8 l 20,-6.1 c 1.3,1.2 2.4,2.7 3.5,4.4 0.8,1.4 1.7,3.2 2.5,5.4 0.8,2.2 1.5,4.7 1.9,7.5 2,-5.8 4.7,-10.1 8.3,-13 3.5,-2.9 8.1,-4.3 13.8,-4.3 4.9,0 9.3,0.9 13,2.7 3.7,1.8 6.8,4.4 9.3,7.7 2.5,3.3 4.3,7.3 5.5,11.9 1.2,4.7 1.8,9.9 1.8,15.6 0,5.7 -0.9,11 -2.8,15.9 -1.9,4.9 -4.5,9.2 -7.9,12.8 -3.4,3.6 -7.4,6.4 -12,8.5 -4.6,2.1 -9.6,3.1 -15,3.1 -2.9,0 -5.7,-0.3 -8.2,-0.9 v 29.5 z m 31.9,-91.4 c -1.4,1.3 -2.7,2.9 -3.7,5 -1.1,2.1 -1.9,4.5 -2.4,7.3 -0.6,2.8 -0.9,5.7 -0.9,8.7 v 19 c 0.7,0.2 1.7,0.4 3,0.7 1.3,0.3 2.4,0.4 3.5,0.4 2.5,0 4.6,-0.5 6.3,-1.6 1.7,-1.1 3,-2.5 4,-4.4 1,-1.9 1.7,-4.1 2.1,-6.7 0.4,-2.6 0.6,-5.4 0.6,-8.4 0,-2.8 -0.1,-5.6 -0.2,-8.2 -0.1,-2.6 -0.4,-5 -1,-7 -0.6,-2 -1.4,-3.6 -2.4,-4.9 -1.1,-1.2 -2.5,-1.8 -4.4,-1.8 -1.6,0 -3.1,0.6 -4.5,1.9 z" />
      <path
         style="fill:#ffffff;fill-opacity:1;stroke:none"
         id="path1083"
         class="st13"
         d="m 551.7,91.9 c 2.3,2.5 3.5,5.7 3.5,9.6 0,4 -1.2,7.2 -3.5,9.9 -2.4,2.6 -5.9,4 -10.6,4 -4.4,0 -7.8,-1.3 -10.2,-3.9 -2.4,-2.6 -3.5,-5.6 -3.5,-9.2 0,-4 1.2,-7.4 3.6,-10.1 2.4,-2.7 6,-4 10.7,-4 4.3,-0.1 7.7,1.2 10,3.7 z m -17.3,105.2 c -3.7,-3 -5.5,-7.2 -5.5,-12.7 v -59.7 h 24.9 v 52.9 c 0,2.3 0.4,3.9 1.1,4.7 0.7,0.8 1.8,1.2 3.3,1.2 0.8,0 1.7,-0.1 2.5,-0.2 0.8,-0.2 1.4,-0.3 1.6,-0.4 l 2.2,15 c -0.1,0.1 -0.6,0.3 -1.4,0.7 -0.8,0.4 -1.9,0.8 -3.3,1.2 -1.4,0.5 -3,0.9 -4.9,1.2 -1.9,0.3 -3.9,0.5 -6,0.5 -6,0.1 -10.9,-1.4 -14.5,-4.4 z" />
    </g>
    <g
       id="g1125"
       transform="matrix(0.04056143,0.01485277,-0.01485277,0.04056143,377.67043,-38.257482)">
      <radialGradient
         id="radialGradient1091"
         cx="-3063.0005"
         cy="46457.09"
         r="2.8906"
         gradientTransform="matrix(0.09778378,-0.0314469,-0.01689566,-0.182,1213.6948,8438.2109)"
         gradientUnits="userSpaceOnUse">
        <stop
           offset="0"
           style="stop-color:#FFFFFF"
           id="stop1087" />
        <stop
           offset="1"
           style="stop-color:#FFFFFF;stop-opacity:0"
           id="stop1089" />
      </radialGradient>
      <path
         style="fill:url(#radialGradient1135)"
         id="path1093"
         class="st25"
         d="m 129.3,67.3 c 3.7,0 6.6,5.5 6.6,12.4 0,6.9 -3,12.4 -6.6,12.4 -3.7,0 -6.6,-5.5 -6.6,-12.4 0,-6.9 2.9,-12.4 6.6,-12.4 z" />
      <radialGradient
         id="radialGradient1099"
         cx="-2315.6289"
         cy="49327.691"
         r="2.0156"
         gradientTransform="matrix(0.09931776,-0.02936234,-0.01716078,-0.1699,1206.6821,8367.8271)"
         gradientUnits="userSpaceOnUse">
        <stop
           offset="0"
           style="stop-color:#FFFFFF"
           id="stop1095" />
        <stop
           offset="1"
           style="stop-color:#FFFFFF;stop-opacity:0"
           id="stop1097" />
      </radialGradient>
      <path
         style="fill:url(#radialGradient1137)"
         id="path1101"
         class="st26"
         d="m 130.2,45.6 c 2.6,0 4.7,3.6 4.7,8 0,4.4 -2.1,8 -4.7,8 -2.6,0 -4.7,-3.6 -4.7,-8 0,-4.4 2.1,-8 4.7,-8 z" />
      <path
         style="fill:#d2eeff"
         id="path1103"
         class="st19"
         d="m 137.6,171.4 c -0.6,-0.1 -1.5,-0.3 -2.4,-0.7 -2.4,-0.9 -2.9,-1.3 -3.8,-3.1 -0.8,-1.5 -1.1,-3 -1.1,-4.6 0,-3.4 1.6,-7.2 4.7,-11 l 0.7,-0.9 0.2,-5.9 c 0.3,-11.3 0.5,-15.9 0.9,-17.9 0.2,-1 0.5,-1.9 0.5,-2 -0.3,-0.3 -5.3,2.1 -6.9,3.5 -1.8,1.3 -2.5,1.6 -3.9,2.1 -0.9,0.3 -1.3,0.3 -2.7,0.3 -1.3,0 -1.8,-0.1 -2.8,-0.3 -2.3,-0.7 -3.8,-2 -6.2,-4.9 -0.8,-1 -2.1,-2.6 -2.8,-3.4 -3.3,-3.9 -4.1,-5.6 -4.4,-9 -0.6,-3.5 4.7,-6.3 7.3,-4.5 0.1,-0.1 -0.1,-1.3 -0.1,-2 -0.1,-1.1 -0.3,-1 0.3,-2.3 3,-3.6 5.6,-2.6 5.8,-1.9 -2.4,-5 -9.2,-20.9 2.2,-38.7 0.3,-0.4 3.6,-5 4.5,-7.3 0.8,-2.2 0.9,-3.8 0.9,-7.1 0,-4.4 -0.5,-5.9 -3,-14.1 -2.7,-8.9 -3.4,-12.1 -3.6,-17.2 -0.1,-2.4 0.1,-5.9 0.4,-6.8 0.6,-2.6 2.4,1.2 2.8,2.2 7.2,11.9 16.2,14.6 26.3,21.6 7.5,5.1 13.9,9.8 19.6,15 0.9,0.9 2.6,2.4 3.1,3 3.8,-1.1 6.4,1.1 7.6,3.2 0.5,0.9 0.9,2.3 0.9,3.2 v 0.7 c -0.3,-1.7 -1.8,-3.2 -3,-3.9 -1.1,-0.6 -2.2,-0.9 -3.4,-0.9 l 1,1.1 c 2.8,3.3 5.1,6.8 6.5,9.8 1.2,2.6 3.6,9.4 4.2,12.7 0.8,4 0.8,7.5 1.4,11.7 0.3,0.8 1.1,0.9 1.8,1.2 1.1,0.5 3.6,1 5.1,1.3 1.4,0.2 2.4,0.5 3,1 0.6,0.4 2.1,2.6 2.5,3.4 0.2,0.5 0.5,0.7 0.6,2.2 0,1.1 -0.1,1.5 -0.5,2.3 -0.8,1.5 -2.4,3.4 -4.6,5 -7.4,5.1 -7.6,2.4 -8.3,6.7 0,0.3 -0.1,0.9 1.1,0.7 0.8,-0.2 1,0.2 1.4,0.6 0.6,0.9 0.5,1.2 0.5,2 0,0.9 -1.1,2.4 -3,3.6 -2.6,1.7 -4.3,2.4 -5.8,2.4 -0.9,0 -1,-0.1 -3,-1 -3,-1.5 -4.5,-2.4 -4.9,-3.2 -0.2,-0.4 -0.3,-0.7 -0.2,-0.9 0.3,-0.5 0.3,-0.5 -1.9,0.7 -1.7,0.9 -2.6,1.3 -4.6,2.1 -3.6,1.3 -6.7,2.2 -11.5,2.4 -3.5,0.1 -3.7,0 -4.6,1.2 -1.2,1.6 -2.1,4 -5.8,16.3 -0.5,1.8 -1.3,3.9 -1.5,4.8 -0.3,0.9 -0.9,2.1 -0.9,2.2 0,0 1.3,-0.5 2,-0.6 2.7,-0.7 4.7,-0.7 8,-0.4 1.2,-0.3 2,-0.1 2.5,0.1 1.6,0.9 1.8,3.2 -0.1,5.4 -0.9,1 -2,2.2 -2.7,2.5 -0.7,0.3 -3.2,1.1 -4.1,1.3 -0.5,0.1 -1.6,0.2 -2.6,0.3 -1.9,0.1 -2.4,0 -2.9,0.5 -0.1,0.1 0.5,1 1,2.2 2,4.7 3,8.9 2.3,10.1 -0.6,0.9 -3.8,2 -7.1,2.1 -1.2,-0.2 -2.4,-0.2 -2.9,-0.2 z" />
      <path
         style="fill:#000a00"
         id="path1105"
         class="st22"
         d="m 122.9,10.6 c -0.5,-0.1 -0.9,0.7 -1.1,2.8 -2.2,21.6 14.3,34.3 1.1,50.4 -1.8,2.9 -5.7,9.8 -6.1,19.1 -0.1,2.4 0.3,14.8 3.5,19.6 -2.2,-0.5 -3.7,-0.2 -5.6,2.9 -0.7,2.4 0.1,2.1 0.1,3.4 -1.5,-1.2 -8,0.3 -7.3,4.8 0,2 0.6,4.6 2.5,6.8 0.9,1.6 1.5,1.9 2.8,3.5 0.9,0.9 1.9,2.6 2.5,3.2 2.2,2.8 4.7,4.1 7.2,4.4 2.8,0.3 5.7,-0.6 8.2,-2.8 1.3,-0.9 6.1,-3.5 6.5,-3.2 0,0 -0.8,2.8 -0.8,3.8 0,0.9 -0.6,14.6 -0.6,17.2 v 4.7 c -0.5,0.5 -0.8,1.1 -1.5,1.8 -2.3,3.2 -3.4,5.3 -4,8.7 -0.4,3 0.3,5 1.7,7.3 0.9,1.2 2.3,1.6 4.5,2.5 2.9,0.5 5.7,0.3 8.5,-0.5 2.3,-0.9 3,-0.7 3.1,-2.8 -0.4,-4.3 -1.6,-6.9 -2.8,-9.5 -0.3,-0.6 -0.7,-1.6 -0.7,-1.6 0,0 1,-0.3 2.3,-0.3 2,0 3.6,-0.3 6.2,-1.3 1.3,-0.4 3.4,-2.7 4.1,-3.7 1.6,-3.4 0.3,-5.7 -3.2,-5.1 -4.2,-0.3 -7.1,0 -9.7,1 1.4,-2.5 5.7,-19.1 7.1,-21.1 0.3,-0.6 0.7,-1.5 1.3,-2.2 l 1.2,-0.7 2.8,-0.1 c 5.5,-0.1 12.3,-2 16.1,-4.3 l 2.2,-1.2 c -0.7,1.1 0.7,2.4 2.1,2.9 0.7,0.9 2.5,1.5 3.2,1.7 1.9,1.6 3.7,1.3 7.1,-0.5 3.5,-1.9 4.5,-3.4 4.7,-4.8 0,-1.3 -0.4,-2.6 -1.7,-2.8 -0.7,0 -1.8,0.8 -1.1,-1.4 0.1,-0.8 0.3,-1.6 0.6,-1.6 0,0 0.9,-0.6 1.9,-0.9 3,-1.6 9.4,-4.6 10.7,-9.8 0.1,-2.6 -0.6,-3.2 -1.9,-5.1 -0.6,-0.9 -1.3,-2 -3.8,-2.4 -2.1,-0.2 -3.6,-0.7 -5.5,-1.3 -2.4,-1.3 -1.5,1 -2.7,-10.9 -0.6,-3.5 -1.9,-7.6 -3.4,-12.1 -1.6,-4.5 -4.7,-9.1 -8.6,-13.4 3.2,0.3 5.7,2.6 6.2,5.4 0.1,-0.3 0.1,-0.7 0.1,-1 0,-4 -3,-7.2 -6.6,-7.2 -0.7,0 -1.3,0.1 -2,0.3 -8,-8.1 -18.5,-15.4 -27.1,-20.9 -0.6,-0.6 -2.5,-1.6 -4.1,-2.6 -8.6,-5.1 -14.7,-10.3 -17.5,-15.8 -1.2,-1.7 -2.1,-3.2 -2.7,-3.3 z m -0.1,0.5 c 0.4,-0.1 1.1,0.7 2.4,3.1 0.8,1.8 3.4,4.9 5.1,6.9 3.4,3.2 9.1,7.6 13.2,9.8 11.5,7.7 21.5,14.3 29.8,22.9 -1.8,1 -3.2,3 -3.5,5.2 1.1,-1.8 3.2,-3 5.4,-3.2 2.6,2.8 5,5.9 7.2,9.3 1.9,3.8 2.5,4.8 3.8,9.2 1.9,5.4 1.8,7.1 2.2,8.8 0.9,4.4 0.7,8.7 0.3,13.1 -0.9,4.4 -1.9,6 -3.2,8.6 -2.5,4.1 -5.7,8.9 -9.8,12.1 -8.1,7.5 -25.6,7.9 -35,4.7 0.1,-2.3 1,-7.3 1.7,-6.7 4.2,-0.1 5.1,-5.7 3.2,-7.6 -1.1,-1.6 -5.7,-2.7 -5.8,-2.5 0.5,-1.5 2.3,-3 1.8,-4.7 0,0 0,-0.1 0,-0.1 -0.5,1.1 -1,2.8 -2.1,4.2 -0.6,0.9 -3.1,-0.1 -4.7,0.2 -1.1,0.3 -1.8,0.9 -1.9,-0.5 -0.4,-0.7 -0.8,-1.8 -1,-2.2 -1.6,-2.3 -1,-3 0.1,-4.2 5.2,-4.6 -1.3,-0.1 -1.6,1.3 -0.2,-0.6 -2.3,-3.5 -2.3,-9.4 -0.2,-9.6 -1.8,-10 -2.8,-10.5 -1.5,-0.9 -4,-0.9 -6.4,2.7 -2.1,6.2 2.2,8.7 3.2,16.3 0.8,3.8 0.1,5.7 -0.7,4.9 0,-0.1 -2.3,-3.7 -3.3,-11.6 -0.4,-3.7 -0.2,-8.9 -0.2,-9.1 0.1,-5.9 3.8,-12.9 5.7,-16.9 14.3,-19.1 -2.8,-30.2 -1.2,-50.9 -0.2,-1.6 -0.2,-3.1 0.4,-3.2 z m 29.9,39.1 c -3.6,0 -6.6,3.2 -6.6,7.2 0,0.3 0,0.7 0.1,1 0.5,-3.1 3.4,-5.5 6.9,-5.5 2.5,0 4.8,1.2 6.1,3.2 -0.6,-3.3 -3.4,-5.9 -6.5,-5.9 z m 1,7.4 c -3.2,-0.3 -5.3,4.7 -4.5,11.2 0.7,6.5 3.8,12 7.1,12.3 3.2,0.3 5.3,-4.7 4.5,-11.3 -0.7,-6.4 -3.9,-11.9 -7.1,-12.2 z m -0.4,0.3 h 0.4 c 3,0.3 6,5.6 6.7,11.9 0.1,0.7 0.1,1.3 0.1,2 -0.7,-4 -3.3,-7.3 -6.1,-7.5 -2.7,-0.2 -4.5,2.4 -4.6,5.9 -0.1,-0.4 -0.1,-0.9 -0.2,-1.3 -0.7,-6 0.9,-10.8 3.7,-11 z m 21.7,2.8 c -2.8,0 -5.5,4.8 -6.1,10.6 -0.5,5.9 1.3,10.6 4.2,10.6 2.8,0 5.5,-4.8 6.1,-10.6 0.4,-5.8 -1.4,-10.6 -4.2,-10.6 z m 0,0.3 c 2.6,0 4.3,4.7 3.7,10.4 -0.1,0.4 -0.1,0.8 -0.1,1.1 -0.1,-3.3 -1.8,-5.8 -4.1,-5.8 -2.5,0 -4.8,2.8 -5.3,6.4 0,-0.6 0.1,-1.1 0.1,-1.8 0.5,-5.6 3.1,-10.3 5.7,-10.3 z m -21.2,9.8 c 0.9,0.1 1.4,0.6 1.7,2.1 0.2,1.3 -0.2,1.9 -1,2 -0.9,-0.1 -1.6,-0.5 -2,-2.2 -0.2,-1.2 0.4,-2 1.3,-1.9 z m 21.2,1.9 c 0.7,0 1.3,0.8 1.1,1.8 -0.3,1.5 -0.9,1.9 -1.7,1.9 -0.7,-0.1 -1.1,-0.7 -0.9,-1.9 0.3,-1.3 0.8,-1.8 1.5,-1.8 z m -22.9,4.4 c 1.1,1.4 2.5,2.4 4,2.5 1.6,0.1 3,-0.8 3.8,-2.4 -0.7,2.4 -2,3.7 -3.6,3.6 -1.5,-0.1 -3,-1.5 -4.2,-3.7 z m 17.6,1.1 c 0.7,1.5 2,2.5 3.4,2.5 1.3,0 2.5,-0.7 3.5,-2 -1.1,2 -2.4,3 -3.6,3 -1.4,0.1 -2.6,-1.3 -3.3,-3.5 z m -46.3,0.7 c 1.3,0 2.2,0.7 3,1.9 0.5,0.7 0.9,4.1 1.2,10.8 0.3,2.2 0.6,3.2 0.9,4.4 0.3,0.7 0.6,1.3 0.6,1.6 0,0.3 0.6,1.6 1.3,2.8 1.2,1.8 2,3.9 2.5,5.7 0.3,0.9 0.9,1.6 1.3,1.9 0.3,0.3 0.9,0.8 0.9,0.8 l -1.2,1.5 c -0.5,0.7 -1.2,1.7 -1.6,2.4 -1.6,3.9 -1.3,5.3 -1.2,5.8 0.7,3.6 3,4.7 6.1,4 0.8,-0.2 2,-1.4 2.3,-2 0.9,-1.8 0.5,-0.2 0.5,-0.2 -0.9,3.4 -3.7,5.2 -7.2,6.5 -1.3,0.1 -1.5,0.1 -2.5,1.3 -0.9,0.9 -2.2,1.9 -2.8,2.2 -4.2,2 -9.8,-0.2 -11.9,-3.4 -0.8,-1.2 -6.3,-7.2 -5.2,-7.3 3.1,3.2 5.7,6.1 10.7,4.4 1.1,-0.5 1.5,-0.9 1.5,1 0,0.9 0.3,1.6 0.3,1.6 0.3,0 0.6,-0.6 0.9,-1.9 0.6,-2.2 0.2,-2.5 1.7,-4.9 0.9,-1 2.4,-1.1 3.6,-3.4 0.7,-1.5 0.7,-2.2 0.7,-3.4 -1.1,-4.6 -3.3,-6 -7.6,-9.4 0,-0.3 0.3,-2 0.3,-3.9 -0.2,-2 -0.7,-4 -1.2,-5.7 -0.3,-0.9 -0.9,-2.6 -1.5,-4.1 -0.9,-2.2 -1.3,-2.8 -1.3,-4.4 0,-2.8 0.9,-5.1 3.4,-6 0.7,-0.6 1.1,-0.6 1.5,-0.6 z m 31.3,5.4 c -1,0.1 -3.6,1.9 -3.2,2.2 0.3,0.2 1.2,-0.1 1.3,0.3 -0.3,11.3 3,19.6 10.2,19.6 5.7,0 10.8,-7.8 15.3,-16.3 1.5,-0.1 1.2,-0.7 1.1,-1.8 0,-1.8 -1.4,-2.8 -1.7,1.5 -4.2,4.2 -7.1,6.1 -11.7,6.2 -6.3,0.1 -8.8,-2 -12.1,-9.9 -0.3,-0.5 1.8,-0.9 0.9,-1.7 0.2,-0.1 0,-0.1 -0.1,-0.1 z m -0.8,3.9 c 1.3,4.7 6.2,9 11.2,8.5 1.3,-0.1 1.2,-0.1 2.7,-0.5 -1.6,2.4 -3.8,3.3 -6.1,3.3 -4.6,0.1 -7.5,-5.1 -7.8,-11.3 z m 35.7,3.8 c 0.5,0 1.4,0.5 2.8,1.1 1.4,0.5 3,0.5 5.5,1 1.3,0.2 2.2,1.5 4.1,4.8 0.7,1.8 -0.5,5.4 -4.6,8.2 -1.8,1.5 -6.5,3.7 -7.2,3.9 -0.4,0.1 -1.3,-0.3 -1.5,-0.5 -0.6,-1.3 -1.9,-0.6 -0.6,-0.3 1.9,0.9 1.3,4.1 -0.9,7.3 -0.9,1.9 -1.9,1.9 -1.3,1.9 0.6,0 1.5,-1.6 2.5,-3.2 1.3,-1.3 2.8,-1.9 3.4,0.3 0.9,2.6 -4.1,5.6 -6.2,5.9 -2.2,1.1 -4.2,0.9 -4.8,-0.3 -1.1,-0.2 -3,-1.1 -3,-1.5 0.1,-0.7 0.4,-1.1 -0.5,-0.4 -0.5,0.4 -0.7,-0.3 -1.3,-0.7 -0.9,-0.6 -0.5,-1.5 1.6,-4.1 3.8,-4.1 5,-5.9 7.1,-9.1 2.5,-4.2 3,-5.7 6,-7.5 5.5,-3.4 0.4,-1.1 -2,0.7 -1.5,1.2 0.4,-2.4 0.3,-5.3 -0.1,-1.6 0.1,-2.2 0.6,-2.2 z m -70,10.7 c 0.4,0 0.8,0.1 1.1,0.3 2.2,1.3 6,4.1 7.2,6 1.3,1.9 1.5,2.8 1.5,4.4 0,2.6 -1.3,4.1 -3.4,4.1 -1.3,0 -2.9,-0.5 -2.9,-0.7 0,-0.3 0.5,-0.3 1,-0.5 1.6,-0.9 0.5,-0.7 -0.6,-0.3 -1.1,0.5 -1.8,-0.4 -2.2,-0.6 -0.9,-0.6 -1.3,-0.6 -0.3,0.3 0.2,0.1 1.3,1.7 1.7,3 0.9,2.1 0.1,4.2 -2.4,4.9 -1.5,0.3 -2.6,0.3 -2.8,-0.1 0,0 0.6,0.1 1.3,-0.1 1.1,-0.5 1.5,-0.7 2.2,-1.6 0.4,-1.3 -0.9,1.1 -2.9,1.3 -3.8,0.7 -6.5,-2.3 -9,-6.3 -0.5,-0.8 -0.9,-1.3 -0.9,-2.6 -0.3,-3.2 2,-5.1 4.8,-5.1 1.3,0 1.3,0 2.2,0.6 1.3,1.3 1.6,0.9 0.6,-0.3 -1,-1.3 -1.3,-3.8 0.3,-5.1 0.6,-1.1 2.2,-1.7 3.5,-1.6 z m 15.7,1.9 c 1,0 2.2,0.1 3.6,0.5 3.4,0.6 5.1,1.3 6.1,2.5 1.6,1.3 1.5,4.7 -1.1,6.4 -1.5,0.6 -1.9,0.6 -2.2,0 -0.6,-2.6 -0.6,-2.2 -0.6,0.9 -0.3,1.4 -0.3,3 -1.3,4.4 -1.3,3.4 -4.4,3.7 -6.8,2 -0.9,-0.9 -2,-3.2 -1.3,-5.6 0.8,-3.4 2,-4.7 3.9,-7 l -0.5,-0.3 c -1,-0.4 -2.6,-2.9 -1.8,-3.3 0.3,-0.3 1,-0.5 2,-0.5 z m 7.2,18.2 c 0.5,0 0.9,0.1 1.5,0.1 2.7,-0.1 -2.1,21.1 -3.4,26.7 l -0.6,3.2 c 0.3,0 0.3,0.3 0.6,-2.6 l 0.7,-2.9 c 0.4,-2.3 1.7,-7.6 3.4,-17.4 0.5,-7.1 2.2,-6.3 3.4,-6.2 2.6,0.2 4.1,0.3 3.1,2.4 -0.3,0.6 -1.1,2.6 -1.8,4.6 -0.2,0.7 -3.8,14.1 -4.8,15.7 -0.3,0.6 -0.8,1.6 -1.1,2.3 -0.6,1.3 -0.3,1.1 -0.3,1.1 0,-0.6 0.5,-1.3 1.5,-1.7 0.9,-0.5 8.6,-1.6 6.7,-0.3 -1.8,2.1 -3.2,4.7 -4.1,6.1 l -1,1.6 h -1.6 c -1.6,0 -2,0.3 -2.3,0 -1,-0.3 -2,-2.2 -2,-1.9 l 1.6,2.2 c 2,2.8 1.7,3.2 0.7,4.1 -1.1,1.3 -3,3.2 -3.6,4.7 -1,1.6 -1.5,1.3 -1.9,0.7 -0.3,-0.3 -0.3,-0.6 -0.3,-0.6 0,0 -0.7,-0.6 -1,-1.3 -0.7,-1.3 -2.8,-2.2 -3.8,-2.6 -0.9,-0.1 -0.5,-1.8 -0.5,-1.8 0,-0.3 0.7,-2.1 1.3,-3.4 1,-1.8 2.1,-3.2 3.1,-4.6 -0.3,-0.9 0.6,-18.7 0.9,-22.5 l 0.3,-1.9 c 1.1,-3.2 2.1,-3.9 5.3,-3.8 z m 12.8,24.3 c 0.2,0 0.4,0 0.6,0 0.5,0.1 1.5,0.7 1.5,1.5 -0.1,0.5 -0.4,1.9 -0.5,0.9 0,-0.3 -0.8,-1.9 -3.2,-1.7 0,-0.3 0.9,-0.6 1.6,-0.7 z m -1,1.2 c 0.3,0 0.7,0.1 1.1,0.3 0.5,0.3 2.2,1.2 0.9,2.8 -0.7,0.9 -1.8,2.2 -3,2.5 -0.6,0.3 -1.3,0.6 -1.6,0.7 l -2.3,0.4 c -1.8,0.3 2.2,-6.5 4.9,-6.7 z m -14.8,4.4 c -0.1,0 -0.3,0.1 -0.6,0.4 0.3,-0.2 0.5,-0.3 0.9,-0.3 -0.1,-0.1 -0.1,-0.1 -0.3,-0.1 z m -0.8,0.7 c -1.7,0.6 -1.7,1.2 0,0 z m 6.4,6.3 c 1.1,2.1 1.7,4.1 2,6.3 0,2.2 0,3 -1.6,3.5 -1,0.3 -2,0.6 -3.9,0.6 -3.4,0 -2.9,0.5 -2.6,-1.6 0,-1.6 1,-3.8 3,-6.3 0.8,-1.3 2.4,-2.5 3.1,-2.5 z m -12.5,2.6 c 0.9,-0.1 2,0.9 2.7,1.8 0.7,0.6 2,3.2 2.3,4.4 0.9,2.6 -0.9,1.7 -3,0.9 -2.2,-0.8 -3.4,-4.4 -3,-6.3 0.3,-0.5 0.6,-0.8 1,-0.8 z" />
      <radialGradient
         id="radialGradient1111"
         cx="-6259.2109"
         cy="29183.807"
         r="2.8906"
         gradientTransform="matrix(0.1183,-0.05910112,-0.00243675,-0.3742,947.1281,10625.266)"
         gradientUnits="userSpaceOnUse">
        <stop
           offset="0"
           style="stop-color:#FFFFFF"
           id="stop1107" />
        <stop
           offset="1"
           style="stop-color:#FFFFFF;stop-opacity:0"
           id="stop1109" />
      </radialGradient>
      <path
         style="fill:url(#radialGradient1139)"
         id="path1113"
         class="st27"
         d="m 135.7,55.7 c 6.5,0 11.8,8.5 11.8,18.9 0,10.4 -5.3,18.9 -11.8,18.9 -6.5,0 -11.8,-8.5 -11.8,-18.9 0,-10.4 5.2,-18.9 11.8,-18.9 z" />
      <radialGradient
         id="radialGradient1119"
         cx="1898.124"
         cy="35898.184"
         r="2.0156"
         gradientTransform="matrix(0.1769,-0.04484312,-0.0305666,-0.2595,897.0822,9439.876)"
         gradientUnits="userSpaceOnUse">
        <stop
           offset="0"
           style="stop-color:#FFFFFF"
           id="stop1115" />
        <stop
           offset="1"
           style="stop-color:#FFFFFF;stop-opacity:0"
           id="stop1117" />
      </radialGradient>
      <path
         style="fill:url(#radialGradient1141)"
         id="path1121"
         class="st28"
         d="m 135.6,26.1 c 4.6,0 8.4,5.5 8.4,12.3 0,6.8 -3.8,12.3 -8.4,12.3 -4.6,0 -8.4,-5.5 -8.4,-12.3 0,-6.8 3.8,-12.3 8.4,-12.3 z" />
      <path
         style="fill:#000a00"
         id="path1123"
         class="st22"
         d="m 122.9,10.6 c -0.5,-0.1 -0.9,0.7 -1.1,2.8 -2.2,21.6 14.3,34.3 1.1,50.4 -1.8,2.9 -5.7,9.8 -6.1,19.1 -0.1,2.4 0.3,14.8 3.5,19.6 -2.2,-0.5 -3.7,-0.2 -5.6,2.9 -0.7,2.4 0.1,2.1 0.1,3.4 -1.5,-1.2 -8,0.3 -7.3,4.8 0,2 0.6,4.6 2.5,6.8 0.9,1.6 1.5,1.9 2.8,3.5 0.9,0.9 1.9,2.6 2.5,3.2 2.2,2.8 4.7,4.1 7.2,4.4 2.8,0.3 5.7,-0.6 8.2,-2.8 1.3,-0.9 6.1,-3.5 6.5,-3.2 0,0 -0.8,2.8 -0.8,3.8 0,0.9 -0.6,14.6 -0.6,17.2 v 4.7 c -0.5,0.5 -0.8,1.1 -1.5,1.8 -2.3,3.2 -3.4,5.3 -4,8.7 -0.4,3 0.3,5 1.7,7.3 0.9,1.2 2.3,1.6 4.5,2.5 2.9,0.5 5.7,0.3 8.5,-0.5 2.3,-0.9 3,-0.7 3.1,-2.8 -0.4,-4.3 -1.6,-6.9 -2.8,-9.5 -0.3,-0.6 -0.7,-1.6 -0.7,-1.6 0,0 1,-0.3 2.3,-0.3 2,0 3.6,-0.3 6.2,-1.3 1.3,-0.4 3.4,-2.7 4.1,-3.7 1.6,-3.4 0.3,-5.7 -3.2,-5.1 -4.2,-0.3 -7.1,0 -9.7,1 1.4,-2.5 5.7,-19.1 7.1,-21.1 0.3,-0.6 0.7,-1.5 1.3,-2.2 l 1.2,-0.7 2.8,-0.1 c 5.5,-0.1 12.3,-2 16.1,-4.3 l 2.2,-1.2 c -0.7,1.1 0.7,2.4 2.1,2.9 0.7,0.9 2.5,1.5 3.2,1.7 1.9,1.6 3.7,1.3 7.1,-0.5 3.5,-1.9 4.5,-3.4 4.7,-4.8 0,-1.3 -0.4,-2.6 -1.7,-2.8 -0.7,0 -1.8,0.8 -1.1,-1.4 0.1,-0.8 0.3,-1.6 0.6,-1.6 0,0 0.9,-0.6 1.9,-0.9 3,-1.6 9.4,-4.6 10.7,-9.8 0.1,-2.6 -0.6,-3.2 -1.9,-5.1 -0.6,-0.9 -1.3,-2 -3.8,-2.4 -2.1,-0.2 -3.6,-0.7 -5.5,-1.3 -2.4,-1.3 -1.5,1 -2.7,-10.9 -0.6,-3.5 -1.9,-7.6 -3.4,-12.1 -1.6,-4.5 -4.7,-9.1 -8.6,-13.4 3.2,0.3 5.7,2.6 6.2,5.4 0.1,-0.3 0.1,-0.7 0.1,-1 0,-4 -3,-7.2 -6.6,-7.2 -0.7,0 -1.3,0.1 -2,0.3 -8,-8.1 -18.5,-15.4 -27.1,-20.9 -0.6,-0.6 -2.5,-1.6 -4.1,-2.6 -8.6,-5.1 -14.7,-10.3 -17.5,-15.8 -1.2,-1.7 -2.1,-3.2 -2.7,-3.3 z m -0.1,0.5 c 0.4,-0.1 1.1,0.7 2.4,3.1 0.8,1.8 3.4,4.9 5.1,6.9 3.4,3.2 9.1,7.6 13.2,9.8 11.5,7.7 21.5,14.3 29.8,22.9 -1.8,1 -3.2,3 -3.5,5.2 1.1,-1.8 3.2,-3 5.4,-3.2 2.6,2.8 5,5.9 7.2,9.3 1.9,3.8 2.5,4.8 3.8,9.2 1.9,5.4 1.8,7.1 2.2,8.8 0.9,4.4 0.7,8.7 0.3,13.1 -0.9,4.4 -1.9,6 -3.2,8.6 -2.5,4.1 -5.7,8.9 -9.8,12.1 -8.1,7.5 -25.6,7.9 -35,4.7 0.1,-2.3 1,-7.3 1.7,-6.7 4.2,-0.1 5.1,-5.7 3.2,-7.6 -1.1,-1.6 -5.7,-2.7 -5.8,-2.5 0.5,-1.5 2.3,-3 1.8,-4.7 0,0 0,-0.1 0,-0.1 -0.5,1.1 -1,2.8 -2.1,4.2 -0.6,0.9 -3.1,-0.1 -4.7,0.2 -1.1,0.3 -1.8,0.9 -1.9,-0.5 -0.4,-0.7 -0.8,-1.8 -1,-2.2 -1.6,-2.3 -1,-3 0.1,-4.2 5.2,-4.6 -1.3,-0.1 -1.6,1.3 -0.2,-0.6 -2.3,-3.5 -2.3,-9.4 -0.2,-9.6 -1.8,-10 -2.8,-10.5 -1.5,-0.9 -4,-0.9 -6.4,2.7 -2.1,6.2 2.2,8.7 3.2,16.3 0.8,3.8 0.1,5.7 -0.7,4.9 0,-0.1 -2.3,-3.7 -3.3,-11.6 -0.4,-3.7 -0.2,-8.9 -0.2,-9.1 0.1,-5.9 3.8,-12.9 5.7,-16.9 14.3,-19.1 -2.8,-30.2 -1.2,-50.9 -0.2,-1.6 -0.2,-3.1 0.4,-3.2 z m 29.9,39.1 c -3.6,0 -6.6,3.2 -6.6,7.2 0,0.3 0,0.7 0.1,1 0.5,-3.1 3.4,-5.5 6.9,-5.5 2.5,0 4.8,1.2 6.1,3.2 -0.6,-3.3 -3.4,-5.9 -6.5,-5.9 z m 1,7.4 c -3.2,-0.3 -5.3,4.7 -4.5,11.2 0.7,6.5 3.8,12 7.1,12.3 3.2,0.3 5.3,-4.7 4.5,-11.3 -0.7,-6.4 -3.9,-11.9 -7.1,-12.2 z m -0.4,0.3 h 0.4 c 3,0.3 6,5.6 6.7,11.9 0.1,0.7 0.1,1.3 0.1,2 -0.7,-4 -3.3,-7.3 -6.1,-7.5 -2.7,-0.2 -4.5,2.4 -4.6,5.9 -0.1,-0.4 -0.1,-0.9 -0.2,-1.3 -0.7,-6 0.9,-10.8 3.7,-11 z m 21.7,2.8 c -2.8,0 -5.5,4.8 -6.1,10.6 -0.5,5.9 1.3,10.6 4.2,10.6 2.8,0 5.5,-4.8 6.1,-10.6 0.4,-5.8 -1.4,-10.6 -4.2,-10.6 z m 0,0.3 c 2.6,0 4.3,4.7 3.7,10.4 -0.1,0.4 -0.1,0.8 -0.1,1.1 -0.1,-3.3 -1.8,-5.8 -4.1,-5.8 -2.5,0 -4.8,2.8 -5.3,6.4 0,-0.6 0.1,-1.1 0.1,-1.8 0.5,-5.6 3.1,-10.3 5.7,-10.3 z m -21.2,9.8 c 0.9,0.1 1.4,0.6 1.7,2.1 0.2,1.3 -0.2,1.9 -1,2 -0.9,-0.1 -1.6,-0.5 -2,-2.2 -0.2,-1.2 0.4,-2 1.3,-1.9 z m 21.2,1.9 c 0.7,0 1.3,0.8 1.1,1.8 -0.3,1.5 -0.9,1.9 -1.7,1.9 -0.7,-0.1 -1.1,-0.7 -0.9,-1.9 0.3,-1.3 0.8,-1.8 1.5,-1.8 z m -22.9,4.4 c 1.1,1.4 2.5,2.4 4,2.5 1.6,0.1 3,-0.8 3.8,-2.4 -0.7,2.4 -2,3.7 -3.6,3.6 -1.5,-0.1 -3,-1.5 -4.2,-3.7 z m 17.6,1.1 c 0.7,1.5 2,2.5 3.4,2.5 1.3,0 2.5,-0.7 3.5,-2 -1.1,2 -2.4,3 -3.6,3 -1.4,0.1 -2.6,-1.3 -3.3,-3.5 z m -46.3,0.7 c 1.3,0 2.2,0.7 3,1.9 0.5,0.7 0.9,4.1 1.2,10.8 0.3,2.2 0.6,3.2 0.9,4.4 0.3,0.7 0.6,1.3 0.6,1.6 0,0.3 0.6,1.6 1.3,2.8 1.2,1.8 2,3.9 2.5,5.7 0.3,0.9 0.9,1.6 1.3,1.9 0.3,0.3 0.9,0.8 0.9,0.8 l -1.2,1.5 c -0.5,0.7 -1.2,1.7 -1.6,2.4 -1.6,3.9 -1.3,5.3 -1.2,5.8 0.7,3.6 3,4.7 6.1,4 0.8,-0.2 2,-1.4 2.3,-2 0.9,-1.8 0.5,-0.2 0.5,-0.2 -0.9,3.4 -3.7,5.2 -7.2,6.5 -1.3,0.1 -1.5,0.1 -2.5,1.3 -0.9,0.9 -2.2,1.9 -2.8,2.2 -4.2,2 -9.8,-0.2 -11.9,-3.4 -0.8,-1.2 -6.3,-7.2 -5.2,-7.3 3.1,3.2 5.7,6.1 10.7,4.4 1.1,-0.5 1.5,-0.9 1.5,1 0,0.9 0.3,1.6 0.3,1.6 0.3,0 0.6,-0.6 0.9,-1.9 0.6,-2.2 0.2,-2.5 1.7,-4.9 0.9,-1 2.4,-1.1 3.6,-3.4 0.7,-1.5 0.7,-2.2 0.7,-3.4 -1.1,-4.6 -3.3,-6 -7.6,-9.4 0,-0.3 0.3,-2 0.3,-3.9 -0.2,-2 -0.7,-4 -1.2,-5.7 -0.3,-0.9 -0.9,-2.6 -1.5,-4.1 -0.9,-2.2 -1.3,-2.8 -1.3,-4.4 0,-2.8 0.9,-5.1 3.4,-6 0.7,-0.6 1.1,-0.6 1.5,-0.6 z m 31.3,5.4 c -1,0.1 -3.6,1.9 -3.2,2.2 0.3,0.2 1.2,-0.1 1.3,0.3 -0.3,11.3 3,19.6 10.2,19.6 5.7,0 10.8,-7.8 15.3,-16.3 1.5,-0.1 1.2,-0.7 1.1,-1.8 0,-1.8 -1.4,-2.8 -1.7,1.5 -4.2,4.2 -7.1,6.1 -11.7,6.2 -6.3,0.1 -8.8,-2 -12.1,-9.9 -0.3,-0.5 1.8,-0.9 0.9,-1.7 0.2,-0.1 0,-0.1 -0.1,-0.1 z m -0.8,3.9 c 1.3,4.7 6.2,9 11.2,8.5 1.3,-0.1 1.2,-0.1 2.7,-0.5 -1.6,2.4 -3.8,3.3 -6.1,3.3 -4.6,0.1 -7.5,-5.1 -7.8,-11.3 z m 35.7,3.8 c 0.5,0 1.4,0.5 2.8,1.1 1.4,0.5 3,0.5 5.5,1 1.3,0.2 2.2,1.5 4.1,4.8 0.7,1.8 -0.5,5.4 -4.6,8.2 -1.8,1.5 -6.5,3.7 -7.2,3.9 -0.4,0.1 -1.3,-0.3 -1.5,-0.5 -0.6,-1.3 -1.9,-0.6 -0.6,-0.3 1.9,0.9 1.3,4.1 -0.9,7.3 -0.9,1.9 -1.9,1.9 -1.3,1.9 0.6,0 1.5,-1.6 2.5,-3.2 1.3,-1.3 2.8,-1.9 3.4,0.3 0.9,2.6 -4.1,5.6 -6.2,5.9 -2.2,1.1 -4.2,0.9 -4.8,-0.3 -1.1,-0.2 -3,-1.1 -3,-1.5 0.1,-0.7 0.4,-1.1 -0.5,-0.4 -0.5,0.4 -0.7,-0.3 -1.3,-0.7 -0.9,-0.6 -0.5,-1.5 1.6,-4.1 3.8,-4.1 5,-5.9 7.1,-9.1 2.5,-4.2 3,-5.7 6,-7.5 5.5,-3.4 0.4,-1.1 -2,0.7 -1.5,1.2 0.4,-2.4 0.3,-5.3 -0.1,-1.6 0.1,-2.2 0.6,-2.2 z m -70,10.7 c 0.4,0 0.8,0.1 1.1,0.3 2.2,1.3 6,4.1 7.2,6 1.3,1.9 1.5,2.8 1.5,4.4 0,2.6 -1.3,4.1 -3.4,4.1 -1.3,0 -2.9,-0.5 -2.9,-0.7 0,-0.3 0.5,-0.3 1,-0.5 1.6,-0.9 0.5,-0.7 -0.6,-0.3 -1.1,0.5 -1.8,-0.4 -2.2,-0.6 -0.9,-0.6 -1.3,-0.6 -0.3,0.3 0.2,0.1 1.3,1.7 1.7,3 0.9,2.1 0.1,4.2 -2.4,4.9 -1.5,0.3 -2.6,0.3 -2.8,-0.1 0,0 0.6,0.1 1.3,-0.1 1.1,-0.5 1.5,-0.7 2.2,-1.6 0.4,-1.3 -0.9,1.1 -2.9,1.3 -3.8,0.7 -6.5,-2.3 -9,-6.3 -0.5,-0.8 -0.9,-1.3 -0.9,-2.6 -0.3,-3.2 2,-5.1 4.8,-5.1 1.3,0 1.3,0 2.2,0.6 1.3,1.3 1.6,0.9 0.6,-0.3 -1,-1.3 -1.3,-3.8 0.3,-5.1 0.6,-1.1 2.2,-1.7 3.5,-1.6 z m 15.7,1.9 c 1,0 2.2,0.1 3.6,0.5 3.4,0.6 5.1,1.3 6.1,2.5 1.6,1.3 1.5,4.7 -1.1,6.4 -1.5,0.6 -1.9,0.6 -2.2,0 -0.6,-2.6 -0.6,-2.2 -0.6,0.9 -0.3,1.4 -0.3,3 -1.3,4.4 -1.3,3.4 -4.4,3.7 -6.8,2 -0.9,-0.9 -2,-3.2 -1.3,-5.6 0.8,-3.4 2,-4.7 3.9,-7 l -0.5,-0.3 c -1,-0.4 -2.6,-2.9 -1.8,-3.3 0.3,-0.3 1,-0.5 2,-0.5 z m 7.2,18.2 c 0.5,0 0.9,0.1 1.5,0.1 2.7,-0.1 -2.1,21.1 -3.4,26.7 l -0.6,3.2 c 0.3,0 0.3,0.3 0.6,-2.6 l 0.7,-2.9 c 0.4,-2.3 1.7,-7.6 3.4,-17.4 0.5,-7.1 2.2,-6.3 3.4,-6.2 2.6,0.2 4.1,0.3 3.1,2.4 -0.3,0.6 -1.1,2.6 -1.8,4.6 -0.2,0.7 -3.8,14.1 -4.8,15.7 -0.3,0.6 -0.8,1.6 -1.1,2.3 -0.6,1.3 -0.3,1.1 -0.3,1.1 0,-0.6 0.5,-1.3 1.5,-1.7 0.9,-0.5 8.6,-1.6 6.7,-0.3 -1.8,2.1 -3.2,4.7 -4.1,6.1 l -1,1.6 h -1.6 c -1.6,0 -2,0.3 -2.3,0 -1,-0.3 -2,-2.2 -2,-1.9 l 1.6,2.2 c 2,2.8 1.7,3.2 0.7,4.1 -1.1,1.3 -3,3.2 -3.6,4.7 -1,1.6 -1.5,1.3 -1.9,0.7 -0.3,-0.3 -0.3,-0.6 -0.3,-0.6 0,0 -0.7,-0.6 -1,-1.3 -0.7,-1.3 -2.8,-2.2 -3.8,-2.6 -0.9,-0.1 -0.5,-1.8 -0.5,-1.8 0,-0.3 0.7,-2.1 1.3,-3.4 1,-1.8 2.1,-3.2 3.1,-4.6 -0.3,-0.9 0.6,-18.7 0.9,-22.5 l 0.3,-1.9 c 1.1,-3.2 2.1,-3.9 5.3,-3.8 z m 12.8,24.3 c 0.2,0 0.4,0 0.6,0 0.5,0.1 1.5,0.7 1.5,1.5 -0.1,0.5 -0.4,1.9 -0.5,0.9 0,-0.3 -0.8,-1.9 -3.2,-1.7 0,-0.3 0.9,-0.6 1.6,-0.7 z m -1,1.2 c 0.3,0 0.7,0.1 1.1,0.3 0.5,0.3 2.2,1.2 0.9,2.8 -0.7,0.9 -1.8,2.2 -3,2.5 -0.6,0.3 -1.3,0.6 -1.6,0.7 l -2.3,0.4 c -1.8,0.3 2.2,-6.5 4.9,-6.7 z m -14.8,4.4 c -0.1,0 -0.3,0.1 -0.6,0.4 0.3,-0.2 0.5,-0.3 0.9,-0.3 -0.1,-0.1 -0.1,-0.1 -0.3,-0.1 z m -0.8,0.7 c -1.7,0.6 -1.7,1.2 0,0 z m 6.4,6.3 c 1.1,2.1 1.7,4.1 2,6.3 0,2.2 0,3 -1.6,3.5 -1,0.3 -2,0.6 -3.9,0.6 -3.4,0 -2.9,0.5 -2.6,-1.6 0,-1.6 1,-3.8 3,-6.3 0.8,-1.3 2.4,-2.5 3.1,-2.5 z m -12.5,2.6 c 0.9,-0.1 2,0.9 2.7,1.8 0.7,0.6 2,3.2 2.3,4.4 0.9,2.6 -0.9,1.7 -3,0.9 -2.2,-0.8 -3.4,-4.4 -3,-6.3 0.3,-0.5 0.6,-0.8 1,-0.8 z" />
    </g>
    <path
       style="fill:#572500"
       id="path1073"
       class="st24"
       d="m 381.43858,-45.463054 c 0,0 -0.10938,0.125781 -0.70941,0.825781 -0.9,1 -1.30937,1.509375 -1.30937,1.609375 0.01,0.06792 1.5791,0.560373 2.17188,0.735156 0.1,0 0.18437,-0.125 0.18437,-0.025 l 0.1,-0.3 c 0,-0.3 0.27031,-0.776562 0.37031,-1.176562 0.1,-0.3 0.28438,-1.121094 0.38438,-1.221094 0,0 -0.0922,-0.147656 -0.29216,-0.147656 -0.5,-0.2 -0.8,-0.3 -0.9,-0.3 z m 2.53747,0.945312 -0.0375,0.254688 c -0.18168,1.052336 -0.26641,1.644966 -0.53491,2.54971 2.04689,0.589967 3.29006,0.331822 5.10992,0.79335 0.008,-0.729068 0.41801,-1.985298 0.58124,-2.605555 -1.10705,-0.606283 -3.49166,-0.745691 -5.11878,-0.992193 z m 6.69141,0.947659 c -0.23146,0.893761 -0.27999,1.826337 -0.39941,2.738282 1.24181,0.139852 2.56307,0.448487 3.57053,0.268742 0.28012,-0.639919 0.32292,-1.328297 0.32714,-1.862498 0.0813,-0.398482 -0.0248,-0.69868 -0.0867,-0.976562 -1.15872,-0.03867 -2.35987,-0.09802 -3.41156,-0.167964 z" />
    <path
       id="path1071"
       d="m 381.63858,-45.963054 c -0.0864,0.271188 -0.13334,0.488886 -0.2,0.5 0.3,0.1 0.5,0.2 0.9,0.3 l 0.2,0.1 v 0.1 c -0.30334,0.863299 -0.53621,1.950718 -0.8,2.6 h -0.2 c -0.1,0 -0.2,-0.1 -0.4,-0.1 -0.3,-0.1 -1.3,-0.4 -1.3,-0.5 l -0.35703,-0.180469 1.95703,-2.319531 c 0,0.1 -2.1,2.4 -2.1,2.5 v 0 c 0.2,0.1 1.2,0.4 1.5,0.5 0.4,0.1 0.70313,0.254688 0.80313,0.254688 -0.4,2.2 -2.49688,4.08125 -4.49688,4.08125 0.17687,-1.098783 0.49195,-2.534669 0.69375,-3.635938 0,0 1.4,-1.1 1.5,-1.2 -0.1,0.1 -1.5,1.1 -1.5,1.1 h -0.3 c -0.73914,4.178316 -1.48353,9.024803 -1.5,12.8 0.2,1.2 0.6,1.927621 1.5,2.227621 1.87002,0.576814 6.3334,1.495856 6.74307,-0.317699 1.4035,0.715181 2.65856,0.969296 3.63096,1.046377 1.95925,0.155304 2.80307,-0.766683 3.2824,-2.242758 0.85811,-2.642542 1.93682,-6.491203 2.17951,-7.56901 0.26467,-1.525856 0.43098,-2.544424 0.53984,-3.340625 0.1,-0.5 0.15858,-1.003906 0.0586,-1.303906 l 0.0363,-0.183427 c 0.3,-0.9 0.23521,-1.788952 0.16411,-2.788952 l 0.14583,-0.327058 c -2.26033,0.74679 -9.29614,-0.600388 -12.68061,-2.100563 z m 2.3,1.1 c -0.12676,0.695451 -0.11825,1.028712 -0.35625,2.072656 -0.0423,0.53734 -0.31409,1.251352 -0.5046,1.52182 -0.50521,0.179562 -0.77407,0.0454 -1.03923,-0.294476 -0.3124,-0.690656 0.41319,-2.541864 0.7,-3.5 0.12464,-0.516617 1.28253,0.02418 1.20008,0.2 z m 0.1,0.4 v 0 c 0.9,0.3 2.1,0.5 2.6,0.6 0.73958,0.09386 1.84105,0.296492 2.3,0.4 -0.34085,0.815153 -0.51588,1.656519 -0.51953,2.450781 -0.73309,-0.14935 -0.9849,-0.215352 -1.38047,-0.250781 -1.4,-0.1 -2,-0.1 -3.6,-0.5 0.31963,-0.888744 0.45945,-1.899238 0.59977,-2.7 z m 6.39609,1.127344 c -0.0485,1.200572 -0.1779,1.984193 -0.45703,2.980469 -0.1,0.5 -1.44922,0.245392 -1.33906,-0.107813 -0.04,-1.041554 0.17862,-2.092459 0.45,-2.970313 0.57328,-0.55269 1.24976,-0.153814 1.34609,0.09766 z m 0.24454,-0.121094 c 0.58051,0.0604 0.94188,0.09375 1.45937,0.09375 h 0.4 0.7 0.3 0.2 0.3 c 0.19578,0.899297 0.0705,1.480369 -0.0547,2.203906 l -0.14531,0.596094 c -1.39116,0.05784 -2.35423,-0.0424 -3.45469,-0.342969 0.0326,-0.591018 0.26005,-1.802283 0.29539,-2.550781 z m -8.94063,1.49375 v 0 c 0,0.2 -0.0442,0.372379 0,0.6 0.42013,0.375998 1.30931,0.520559 1.46077,0.322097 0.21644,-0.149271 0.21452,-0.32464 0.33923,-0.522097 0.54106,0.09015 1.09726,0.210225 1.6,0.3 0.7,0.1 1.5,0.2 2.2,0.2 0.11848,2.064959 0.0731,4.227144 -0.4,6 h 0.4 c 0.4,-0.1 0.8,-0.2 1.1,-0.6 0.74568,-0.691571 1.32213,-2.610152 1,-2.2 -0.20189,0.43622 -0.47098,0.997036 -0.7,1.5 -0.46371,0.768319 -0.73457,0.985432 -1.57678,1.172942 0.27546,-1.717887 0.60603,-3.837145 0.33509,-5.814015 0.28764,0.04666 0.55701,0.190658 0.84169,0.241073 0.0141,0.216476 0.0871,0.522718 0.1,0.6 0.46012,0.298022 0.87632,0.296101 1.4,0.3 0.27155,-0.0056 0.30092,-0.442898 0.4,-0.6 -0.11658,-0.232472 0.70168,-9.73e-4 1.02734,-0.0016 0.21953,0.05859 0.54922,0.01406 0.96875,0.111719 0.1,2.2 0.36328,3.392969 1.0086,3.803906 -0.46126,2.139965 -1.22132,4.629657 -1.75313,6.476563 -0.89533,3.317162 -1.45254,3.039511 -2.3375,3.610156 -1.19167,0.436746 -3.24633,-0.404085 -4.80854,-0.878121 0.82837,-2.294299 1.50872,-4.881267 2.56948,-7.312504 0.1,-0.4 0.025,-0.510156 0.025,-0.410156 -1.09513,2.467991 -2.07111,5.698507 -2.9155,8.122319 -0.67358,1.242665 -6.85062,0.354609 -7.2845,-0.822319 -0.3,-0.4 -0.4,-1 -0.4,-1.7 0.25362,-3.071077 0.25526,-5.698951 0.8,-8.5 2.1,-0.1 4.2,-1.7 4.6,-4 z m 10.6,1.6 h 0.4 0.3 0.5 0.3 l -0.009,0.178125 c 0,0.3 0.009,0.821875 -0.0906,1.421875 0,0.3 -0.26641,1.164844 -0.36641,1.864844 -0.6,-0.1 -0.93359,-1.464844 -1.03359,-3.464844 z" />
  </g>
  <path
     d="M 8.0646236,0.00434209 C 7.8019757,-0.04818749 7.5918574,0.37204917 7.4867982,1.4751704 6.3311474,12.82156 15.261177,19.12511 8.0646236,27.95008 c 0,0 -0.9980621,-0.840473 -1.3132396,-0.998062 C 5.5957332,26.479252 4.9653782,26.479252 4.2824936,26.794429 3.8097274,27.109607 3.2844315,27.792491 3.1268428,28.475376 2.969254,28.632965 2.969254,29.315849 2.8116653,29.631027 c -0.6828846,2.679009 0.3151775,6.986434 0.7879437,8.982559 0.1575888,1.365769 1.5758875,3.414422 -0.7354141,9.140147 0.9980621,0.998062 1.891065,0.367707 0.9455325,1.996124 -0.1575888,1.365769 0.05253,1.103121 0.05253,1.786006 -0.7879438,-0.630355 -4.2023667,0.157589 -3.8346596,2.52142 0,1.050592 0.31517745,2.416361 1.3132396,3.572012 0.4727662,0.840473 0.7879437,0.998062 1.4708283,1.838535 0.4727662,0.472766 0.9980621,1.365769 1.3132396,1.680947 1.1556508,1.470828 2.4688904,2.153713 3.78213,2.311301 1.4708281,0.157589 2.9941857,-0.315177 4.3074257,-1.470828 0.682884,-0.472766 3.204304,-1.838535 3.414423,-1.680947 0,0 -0.420237,1.470829 -0.420237,1.996124 0,0.472767 -0.315177,7.66932 -0.315177,9.035089 v 2.416361 c -0.262648,0.262647 -0.420237,0.577825 -0.787944,0.945532 -1.208181,1.680947 -1.786006,2.784068 -2.101183,4.570074 -0.210119,1.575887 0.157588,2.626479 0.893002,3.834659 0.472767,0.630355 1.208181,0.840474 2.363832,1.31324 1.523358,0.262648 2.994186,0.157589 4.465014,-0.262648 1.208181,-0.472766 1.575888,-0.367707 1.628417,-1.470828 -0.210118,-2.258772 -0.840473,-3.624542 -1.470828,-4.990311 -0.157589,-0.315177 -0.367707,-0.840473 -0.367707,-0.840473 0,0 0.525296,-0.157589 1.20818,-0.157589 1.050592,0 1.891065,-0.157589 3.256834,-0.682884 0.682885,-0.210119 1.786006,-1.418299 2.153713,-1.943595 0.840474,-1.786006 0.157589,-2.994186 -1.680946,-2.679009 -2.206243,-0.157588 -3.729601,0 -5.09537,0.525296 0.735414,-1.313239 2.994186,-10.03315 3.729601,-11.083742 0.420236,-0.998062 0.472766,-1.523358 1.313239,-1.470828 l 1.470828,-0.05253 c 2.889128,-0.05253 6.461139,-1.050591 8.457263,-2.258772 l 1.155651,-0.630355 c -0.367707,0.577826 0.367707,1.26071 1.103121,1.523358 0.367707,0.472766 1.31324,0.787944 1.680947,0.893003 0.998062,0.840473 1.943595,0.682885 3.7296,-0.262648 1.838536,-0.998062 2.363832,-1.786006 2.468891,-2.52142 0,-0.682885 -0.210119,-1.365769 -0.893003,-1.470828 -0.367707,0 -0.945533,0.420236 -0.577826,-0.735414 0.05253,-0.420237 0.157589,-0.840474 0.315178,-0.840474 0,0 0.472766,-0.315177 0.998062,-0.472766 1.575888,-0.840473 4.937781,-2.416361 5.620665,-5.147899 0.05253,-1.365769 -0.315177,-1.680947 -0.998062,-2.679009 -0.315177,-0.472766 -0.682884,-1.050592 -1.996124,-1.26071 -1.103121,-0.105059 -1.891065,-0.367707 -2.889127,-0.682884 -1.26071,-0.682885 -0.787944,0.525295 -1.418299,-5.725725 -0.315177,-1.838535 -0.998062,-3.992248 -1.786005,-6.35608 -0.840474,-2.363831 -2.468891,-4.780192 -4.517545,-7.038964 1.680947,0.157589 2.994187,1.36577 3.256835,2.836598 0.05253,-0.157589 0.05253,-0.367707 0.05253,-0.525296 0,-2.101183 -1.575887,-3.78213 -3.466952,-3.78213 -0.367707,0 -0.682885,0.05253 -1.050592,0.157589 C 30.914992,18.074519 25.399386,14.239859 20.881842,11.350732 20.566665,11.035554 19.568602,10.510259 18.728129,9.9849629 14.210585,7.3059541 11.00628,4.5744158 9.5354521,1.6852888 8.8525673,0.79228584 8.3798011,0.00434209 8.0646236,0.00434209 Z m -0.05253,0.26264792 c 0.2101187,-0.0525296 0.5778258,0.36770708 1.2607108,1.62841709 0.4202367,0.9455325 1.7860056,2.5739496 2.6790086,3.6245412 1.786006,1.6809467 4.780192,3.9922483 6.933905,5.1478987 6.040902,4.044778 11.29386,7.56426 15.653816,12.029275 -0.945533,0.525296 -1.680947,1.575887 -1.838536,2.731538 0.577826,-0.945532 1.680947,-1.575887 2.836598,-1.680946 1.365769,1.470828 2.626479,3.099245 3.78213,4.885251 0.998062,1.996124 1.313239,2.52142 1.996124,4.832721 0.998062,2.836598 0.945532,3.729601 1.155651,4.622604 0.472766,2.311301 0.367707,4.570073 0.157588,6.881375 -0.472766,2.311302 -0.998062,3.151775 -1.680946,4.517544 -1.31324,2.153713 -2.994186,4.675133 -5.147899,6.35608 -4.254897,3.939718 -13.447574,4.202366 -18.385354,2.46889 0.05253,-1.20818 0.525295,-3.834659 0.893002,-3.519482 2.206243,-0.05253 2.679009,-2.994186 1.680947,-3.992248 0.157589,-0.472766 0.682885,-2.836598 1.996124,-5.358018 0.315178,-0.840473 0.682885,-1.470828 0.682885,-1.470828 0,-0.157589 -1.786006,-1.470828 -2.994186,-2.153713 C 17.677537,40.819828 16.679475,40.347062 15.733943,39.979355 13.58023,39.138881 12.424579,38.613586 11.951813,38.298408 11.794224,38.140819 10.533514,38.03576 10.375925,37.720583 10.218337,37.037698 10.060748,36.354813 9.0626854,35.829518 8.3798011,35.619399 7.4867982,35.671929 6.6463249,36.459873 L 6.3311474,35.304222 C 6.4887361,32.520154 7.3292094,30.52403 8.4323307,28.790553 15.944061,18.757403 6.9615024,12.769031 7.7494461,1.8428775 c 0,-0.7354142 0,-1.52335791 0.2626475,-1.57588749 z M 23.71844,20.806057 c -1.891065,0 -3.466953,1.680947 -3.466953,3.78213 0,0.157589 0,0.367707 0.05253,0.525296 0.262648,-1.628417 1.786005,-2.889127 3.624541,-2.889127 1.313239,0 2.573949,0.630355 3.204304,1.680946 -0.315177,-1.733476 -1.733476,-3.099245 -3.414422,-3.099245 z m 0.525295,3.887189 c -1.680946,-0.157589 -2.784068,2.46889 -2.363831,5.935843 v 0 c 0.367707,3.414423 1.996124,6.30355 3.729601,6.461139 v 0 c 1.680946,0.157588 2.784067,-2.468891 2.363831,-5.935843 v 0 c -0.367707,-3.466953 -1.996124,-6.30355 -3.729601,-6.461139 z m -0.210118,0.157589 h 0.210118 c 1.575888,0.157589 3.151775,2.941656 3.519482,6.25102 0.05253,0.367707 0.05253,0.682885 0.05253,1.050592 -0.367707,-2.101184 -1.733476,-3.83466 -3.204305,-3.939719 -1.418298,-0.105059 -2.363831,1.26071 -2.41636,3.099245 -0.05253,-0.210118 -0.05253,-0.472766 -0.10506,-0.682884 -0.367707,-3.151775 0.525296,-5.673195 1.943595,-5.778254 z m 11.39892,1.470828 c -1.470829,0 -2.889128,2.52142 -3.204305,5.568136 v 0 c -0.262648,3.099245 0.682885,5.568136 2.206242,5.568136 1.470829,0 2.889128,-2.52142 3.204305,-5.568136 v 0 c 0.262648,-3.046716 -0.735414,-5.568136 -2.206242,-5.568136 z m 0.05253,0.157589 c 1.365769,0 2.258772,2.416361 1.943595,5.463076 -0.05253,0.210119 -0.05253,0.420237 -0.05253,0.577826 -0.05253,-1.733476 -0.945532,-3.046716 -2.153713,-3.046716 -1.313239,0 -2.52142,1.470828 -2.784068,3.361893 0,-0.315177 0.05253,-0.577825 0.05253,-0.945532 0.210118,-2.994186 1.628417,-5.410547 2.994186,-5.410547 z M 4.4400824,27.477314 c 0.05253,0 0.1050591,0.05253 0.2101183,0.157589 0,0.157588 -0.1575887,0.157588 0,0 -0.1575887,0.157588 -0.3151775,0.157588 -0.1575887,0 -0.1050592,-0.05253 -0.1050592,-0.157589 -0.05253,-0.157589 z m -0.3677071,0.682884 c 0.05253,0 0.1575887,0.05253 0.2101183,0.157589 -0.3151775,0.157589 -0.3151775,0.157589 -0.3151775,0 0,-0.105059 0.05253,-0.157589 0.1050592,-0.157589 z m -0.1050592,0.735415 c 0.05253,0 0.1575888,0.05253 0.1575888,0.262648 0,0.210118 -0.1575888,0.157588 -0.1575888,0.157588 -0.1575887,0.157589 -0.1575887,0 -0.1575887,-0.157588 0,-0.157589 0.05253,-0.262648 0.1575887,-0.262648 z m -0.1575887,0.893003 c 0.3151775,0 0.3151775,0.157588 0.1575887,0.315177 0,0 -0.1575887,0.157589 -0.3151775,0.157589 -0.3677071,0.05253 -0.1575887,-0.472766 0.1575888,-0.472766 z m 0.1575887,0.840473 c 0.1575888,0 0.1575888,0.315177 0,0.472766 -0.3151775,0.157589 -0.4727662,0.157589 -0.4727662,-0.157589 0,-0.157588 0.1050591,-0.315177 0.4727662,-0.315177 z m 0.1575888,0.840473 c 0.1575887,0 0.1575887,0.315178 0,0.472766 -0.3151775,0.315178 -0.4727663,0.157589 -0.4727663,-0.157588 -0.05253,-0.157589 0.1575888,-0.315178 0.4727663,-0.315178 z m 20.1713601,0.105059 c 0.472766,0.05253 0.735414,0.315178 0.893003,1.103122 0.105059,0.682884 -0.105059,0.998062 -0.525296,1.050591 -0.472766,-0.05253 -0.787944,-0.262648 -1.050592,-1.155651 -0.05253,-0.577825 0.210119,-0.998062 0.682885,-0.998062 z M 4.1774345,32.415095 c 0.05253,0 0.1050591,0.05253 0.1575887,0.05253 0.1575888,0 0.1575888,0.157589 0,0.315178 -0.3151775,0.315177 -0.4727662,0.315177 -0.6828846,0 0.1050592,-0.210119 0.3151775,-0.420237 0.5252959,-0.367708 z m 31.3076315,0.210118 c 0.367707,0 0.682885,0.420237 0.577826,0.945533 -0.157589,0.787943 -0.472767,0.998062 -0.893003,0.998062 -0.367707,-0.05253 -0.577826,-0.367707 -0.472767,-0.998062 0.157589,-0.682885 0.367707,-0.945533 0.787944,-0.945533 z M 4.492612,33.097979 c 0.1575887,0 0.1575887,0.315178 0,0.472767 -0.1575888,0.315177 -0.4727663,0.157588 -0.4727663,0 -0.05253,-0.10506 0.2626479,-0.472767 0.4727663,-0.472767 z m 0.1050591,0.998062 c 0.05253,0 0.1050592,0.05253 0.1575888,0.05253 -0.1575888,0.157589 -0.1575888,0.157589 -0.3151775,0.157589 -0.1575888,0 -0.1575888,0 -0.1575888,-0.157589 0.1575888,0 0.1575888,-0.105059 0.3151775,-0.05253 z m 0.2101184,0.630355 c 0.05253,0 0.1050591,0.05253 0.1575887,0.05253 -0.1575887,0.315177 -0.3151775,0.315177 -0.4727662,0.157589 0,-0.105059 0.1575887,-0.210119 0.3151775,-0.210119 z m 18.5954725,0.210119 c 0.577825,0.735414 1.31324,1.26071 2.101183,1.313239 0.840474,0.05253 1.575888,-0.420236 1.996125,-1.26071 -0.367708,1.26071 -1.050592,1.943595 -1.891065,1.891065 -0.735415,-0.05253 -1.523358,-0.787943 -2.206243,-1.943594 z M 5.1754965,35.199163 c 0.05253,0 0.1050592,0.05253 0.1050592,0.157588 0,0.157589 -0.1575887,0.157589 -0.1575887,0.315178 -0.3151775,0.157589 -0.4727663,0 -0.1575888,-0.315178 0.05253,-0.157588 0.1575888,-0.157588 0.2101183,-0.157588 z M 32.700998,35.51434 c 0.367707,0.787944 1.050592,1.31324 1.786006,1.31324 0.682885,0 1.31324,-0.367707 1.838535,-1.050592 -0.577825,1.050592 -1.26071,1.575888 -1.891065,1.575888 -0.787943,0 -1.418298,-0.682885 -1.733476,-1.838536 z M 8.3798011,35.829518 c 0.6828843,0 1.155651,0.367707 1.575887,0.998062 0.2626489,0.367707 0.4727669,2.153713 0.6303559,5.673195 0,0.840473 0.157589,1.680946 0.157589,1.680946 0.157588,0 0.157588,0.315178 0.315177,0.682885 0.157589,0.367707 0.315178,0.682884 0.315178,0.840473 0,0.157589 0.315177,0.840474 0.682884,1.470829 0.630355,0.945532 1.050592,2.048653 1.31324,2.994186 0.157588,0.472766 0.472766,0.840473 0.682884,0.998062 0.157589,0.157589 0.472767,0.420237 0.472767,0.420237 l -0.630355,0.787943 c -0.262648,0.367707 -0.630355,0.893003 -0.787944,1.26071 -0.840474,2.048654 -0.682885,2.784068 -0.630355,3.046716 0.367707,1.891065 1.575887,2.46889 3.204304,2.101183 0.420237,-0.105059 1.050592,-0.735414 1.208181,-1.050591 0.472766,-0.945533 0.262648,-0.105059 0.262648,-0.105059 -0.472767,1.786005 -1.943595,2.731538 -3.78213,3.414422 -0.682885,0.05253 -0.787944,0.05253 -1.31324,0.682885 -0.472766,0.472766 -1.155651,0.998062 -1.470828,1.155651 -2.2062429,1.050592 -5.1478996,-0.105059 -6.2510208,-1.786006 -0.4202367,-0.630355 -3.3093637,-3.78213 -2.7315383,-3.83466 1.6284171,1.680947 2.9941862,3.204305 5.6206654,2.311302 0.5778254,-0.262648 0.7879437,-0.472766 0.7879437,0.525296 0,0.472766 0.1575888,0.840473 0.1575888,0.840473 0.1575887,0 0.3151775,-0.315177 0.4727662,-0.998062 0.3151774,-1.155651 0.1050592,-1.313239 0.8930031,-2.573949 0.4727659,-0.525296 1.2607099,-0.577826 1.8910649,-1.786006 0.367707,-0.787944 0.367707,-1.155651 0.367707,-1.786006 -0.577825,-2.416361 -1.733476,-3.151775 -3.9922483,-4.937781 0,-0.157589 0.1575887,-1.050591 0.1575887,-2.048654 0,-0.998062 -0.1575887,-1.365769 -0.3151775,-1.680946 C 7.4867982,44.812076 7.4867982,44.28678 7.3292094,43.761485 7.1716207,43.288718 6.8564432,42.395715 6.5412657,41.607772 6.0684994,40.452121 5.8583811,40.136943 5.8583811,39.29647 c 0,-1.470828 0.4727663,-2.679009 1.7860058,-3.151775 0.262648,-0.262648 0.5252959,-0.315177 0.7354142,-0.315177 z M 5.122967,35.934577 c 0.3151774,0 0.3151774,0 0.1575887,0.157589 -0.1575887,0.157588 -0.3151775,0.157588 -0.3151775,0 0,0.05253 0,-0.157589 0.1575888,-0.157589 z m 0.8404733,0.367707 -0.1575888,0.157589 C 5.6482628,36.617461 5.490674,36.617461 5.490674,36.617461 l 0.1575888,-0.157588 c 0.1575887,0 0.3151775,-0.157589 0.3151775,-0.157589 z m 18.8055907,2.363831 c -0.525296,0.05253 -1.891065,0.998062 -1.680946,1.155651 0.157588,0.105059 0.630355,-0.05253 0.682884,0.157589 -0.157589,5.935843 1.575888,10.295798 5.358018,10.295798 2.994186,0 5.673195,-4.097308 8.037026,-8.562322 0.787944,-0.05253 0.630355,-0.367707 0.577825,-0.945533 0,-0.945532 -0.735414,-1.470828 -0.893003,0.787944 -2.206242,2.206243 -3.7296,3.204305 -6.145961,3.256834 -3.309364,0.05253 -4.622603,-1.050591 -6.356079,-5.200428 -0.157589,-0.262648 0.945532,-0.472767 0.472766,-0.945533 0.105059,0.05253 0.05253,0 -0.05253,0 z m -14.025398,0.315178 c 0.157588,0 0.157588,0 0.157588,0.157588 l -0.157588,0.157589 c -0.157589,0 -0.157589,0 -0.157589,-0.157589 z m 0.630355,0.105059 c 0.105059,0.05253 0.157588,0.157589 0.157588,0.367707 0,0.315177 0,0.315177 -0.157588,0.315177 -0.315178,0 -0.315178,-0.157588 -0.315178,-0.472766 0.105059,-0.157589 0.210118,-0.210118 0.315178,-0.210118 z m 0.682884,0.367707 c 0.157589,0 0.157589,0.157589 0.157589,0.315177 0,0.157589 -0.157589,0.315178 -0.157589,0.315178 -0.157589,0 -0.157589,-0.157589 -0.157589,-0.315178 0,-0.157588 0.157589,-0.315177 0.157589,-0.315177 z m 0.840473,0 c 0.157589,0 0.157589,0.157589 0.157589,0.472766 0,0.472766 -0.315177,0.682885 -0.315177,0.315178 -0.210119,-0.315178 0,-0.787944 0.157588,-0.787944 z m 0.682885,0.472766 c 0.105059,0 0.157589,0.157589 0.157589,0.367707 0,0.315178 -0.157589,0.315178 -0.157589,0.315178 -0.157589,0 -0.315177,-0.157589 -0.157589,-0.472767 0,-0.105059 0.05253,-0.210118 0.157589,-0.210118 z m 1.103121,0.367707 c 0.157589,0 0.157589,0.315178 0.157589,0.472766 0,0.472767 0,0.472767 -0.157589,0.315178 -0.157588,-0.105059 -0.157588,-0.787944 0,-0.787944 z m -0.682884,0.210118 c 0.157588,0 0.157588,0 0.157588,0.157589 0,0.157589 0,0.315178 -0.157588,0.157589 -0.157589,0 -0.157589,-0.157589 -0.157589,-0.157589 z m 1.418298,0.210119 c 0.05253,0 0.05253,0.05253 0.10506,0.05253 v 0.472767 c -0.157589,0.157588 -0.157589,0.157588 -0.157589,-0.157589 0,-0.210118 0,-0.367707 0.05253,-0.367707 z m 8.93003,0.05253 c 0.682884,2.468891 3.256834,4.727663 5.883313,4.465015 0.682884,-0.05253 0.630355,-0.05253 1.418299,-0.262648 -0.840474,1.26071 -1.996125,1.733476 -3.204305,1.733476 -2.363831,0 -3.939719,-2.679008 -4.097307,-5.935843 z m -8.352204,0.210119 c 0,0 0.157589,0 0.157589,0.157588 0.157588,0.157589 0,0.472767 -0.157589,0.472767 -0.105059,0 -0.105059,-0.630355 0,-0.630355 z m 0.577825,0.105059 c 0.157589,-0.05253 0.420237,0.262648 0.420237,0.525296 0,0.315177 0,0.472766 -0.472766,0.315177 0,-0.157589 -0.157589,-0.682884 0,-0.840473 0,0.05253 0,0 0.05253,0 z m 0.787944,0.472766 c 0.05253,0 0.05253,0.05253 0.105059,0.05253 0.157589,0 0.157589,0.157588 0.157589,0.315177 0,0.157589 0,0.157589 -0.157589,0.157589 -0.157589,0 -0.157589,-0.157589 -0.157589,-0.315178 0,-0.157588 0,-0.210118 0.05253,-0.210118 z m 0.735414,0.472766 c 0.05253,0 0.05253,0.05253 0.05253,0.157589 -0.105059,-0.157589 -0.105059,-0.157589 -0.05253,-0.157589 z m 0.682885,0.210119 c 0.105059,0.05253 0.157588,0.262648 0.05253,0.525296 0,0.157588 -0.157588,0.157588 -0.315177,0.315177 -0.157589,0 0,-0.840473 0.157589,-0.840473 0.05253,0 0.05253,0 0.105059,0 -0.05253,0 0,0 0,0 z m 0.735414,0.157588 c 0.05253,0 0.05253,0.05253 0.105059,0.05253 v 0.472766 c -0.157589,0.157589 -0.315177,0.315178 -0.157589,0.315178 -0.157588,0 -0.157588,0 -0.157588,-0.315178 0,-0.315177 0.105059,-0.525296 0.210118,-0.525296 z m 23.585783,0.367708 c 0.262648,0 0.735414,0.262647 1.470828,0.577825 0.735414,0.262648 1.575887,0.262648 2.889127,0.525296 0.682885,0.105059 1.155651,0.787944 2.153713,2.52142 0.367707,0.945532 -0.262648,2.836597 -2.416361,4.307426 -0.945532,0.787943 -3.414423,1.943594 -3.78213,2.048653 -0.210118,0.05253 -0.682884,-0.157588 -0.787944,-0.262648 -0.315177,-0.682884 -0.998062,-0.315177 -0.315177,-0.157588 0.998062,0.472766 0.682884,2.153713 -0.472766,3.834659 -0.472767,0.998062 -0.998062,0.998062 -0.682885,0.998062 0.315178,0 0.787944,-0.840473 1.31324,-1.680946 0.682884,-0.682885 1.470828,-0.998062 1.786005,0.157588 0.472767,1.36577 -2.153712,2.941657 -3.256834,3.099246 -1.15565,0.577825 -2.206242,0.472766 -2.52142,-0.157589 -0.577825,-0.105059 -1.575887,-0.577825 -1.575887,-0.787944 0.05253,-0.367707 0.210118,-0.577825 -0.262648,-0.210118 -0.262648,0.210118 -0.367707,-0.157589 -0.682885,-0.367707 -0.472766,-0.315178 -0.262648,-0.787944 0.840474,-2.153713 1.996124,-2.153713 2.626479,-3.099245 3.7296,-4.780192 1.31324,-2.206243 1.575888,-2.994186 3.151775,-3.939719 2.889127,-1.786006 0.210118,-0.577825 -1.050592,0.367707 -0.787943,0.630355 0.210119,-1.26071 0.157589,-2.784068 0,-0.840473 0.05253,-1.15565 0.315178,-1.15565 z m -22.955428,0.210118 c 0.157589,0 0.157589,0.157589 0,0.472766 -0.157589,0.315178 -0.315178,0.315178 -0.157589,0 V 43.13113 c 0,-0.157589 0,-0.157589 0.157589,-0.157588 z m -5.463077,0.630355 c 0.05253,0 0.105059,0 0.157589,0.05253 v 0.315178 c -0.157589,0.157589 -0.315177,0.157589 -0.315177,0 -0.10506,-0.105059 0.05253,-0.315178 0.157588,-0.367708 z M 13.5277,43.814014 c 0.157589,0 0.157589,0 0.157589,0.157589 0,0.157589 -0.157589,0.157589 -0.157589,0.157589 -0.157588,0 -0.157588,0 -0.157588,-0.157589 z m 1.838536,0 h 0.157589 c 0,0.157589 -0.315178,0.472766 -0.315178,0.315178 0,-0.157589 0,-0.315178 0.157589,-0.315178 z m -2.52142,0.262648 c 0.05253,0 0.105059,0.05253 0.157589,0.05253 0,0.157588 -0.157589,0.157588 -0.315178,0.157588 0.05253,-0.105059 0.05253,-0.210118 0.157589,-0.210118 z m 3.046716,0 c 0.05253,0 0.05253,0.05253 0.105059,0.05253 0,0.157588 0,0.315177 -0.157589,0.315177 -0.157589,0 -0.157589,0 -0.157589,-0.157589 0,-0.105059 0.10506,-0.210118 0.210119,-0.210118 z m -3.624542,0.105059 c 0.05253,0.05253 0.10506,0.105059 0.10506,0.262648 0,0.157589 0,0.315178 -0.157589,0.315178 -0.157589,0 -0.315178,-0.315178 -0.157589,-0.472767 0.105059,-0.105059 0.157589,-0.105059 0.210118,-0.105059 z m 4.149837,0.157589 0.157589,0.157589 c 0.05253,0 -0.105059,0.105059 -0.05253,0.157589 h -0.157589 c -0.157589,-0.05253 -0.05253,-0.315178 0.05253,-0.315178 z m -1.523357,0.262648 c 1.313239,0.157589 2.311301,0.998062 2.679008,2.153713 0.157589,0.840473 0,1.365769 -0.787943,2.311302 -0.315178,0.472766 -1.628417,-0.05253 -2.468891,0.105059 -0.577825,0.157588 -0.945532,0.472766 -0.998062,-0.262648 -0.210118,-0.367707 -0.420237,-0.945533 -0.525296,-1.155651 -0.840473,-1.20818 -0.525296,-1.575888 0.05253,-2.206243 0.367707,-0.735414 1.050592,-0.945532 2.048654,-0.945532 z m 2.101183,0.210118 c 0,0.157589 -0.157589,0.315178 -0.157589,0.315178 -0.157589,0 -0.157589,-0.157589 0.157589,-0.315178 z m -5.252958,0.157589 c 0.157588,0 0.157588,0.157589 0.157588,0.157589 h -0.315177 c -0.05253,-0.157589 0.157589,-0.157589 0.157589,-0.157589 z m 5.778254,0.315178 c 0.05253,0 0.210118,0.105059 0,0.315177 -0.157589,0 -0.157589,0 -0.157589,-0.157589 -0.05253,-0.157588 0,-0.157588 0.157589,-0.157588 z m 0.210118,0.945532 c 0.05253,0 0.05253,0.05253 0.105059,0.05253 0.157589,0 0.157589,0 -0.157589,0.157588 h -0.157588 c 0,-0.105059 0.105059,-0.210118 0.210118,-0.210118 z M 6.3311474,48.331558 v 0 c 0.2101183,0 0.4202366,0.05253 0.5778254,0.157589 1.1556508,0.682885 3.1517752,2.153713 3.7821302,3.151775 0.682885,0.998062 0.787944,1.470828 0.787944,2.311302 0,1.365769 -0.682885,2.153713 -1.7860059,2.153713 -0.6828847,0 -1.5233583,-0.262648 -1.5233583,-0.367707 0,-0.157589 0.2626479,-0.157589 0.5252958,-0.262648 C 9.5354521,55.002815 8.9576264,55.107875 8.3798011,55.317993 7.8019757,55.580641 7.4342686,55.107875 7.2241503,55.002815 6.751384,54.687638 6.5412657,54.687638 7.0665615,55.160404 c 0.1050592,0.05253 0.6828846,0.893003 0.9455325,1.575888 0.4727663,1.103121 0.05253,2.206242 -1.26071,2.573949 -0.7879437,0.157589 -1.3657691,0.157589 -1.4708283,-0.05253 0,0 0.3151775,0.05253 0.6828846,-0.05253 C 6.5412657,58.942534 6.751384,58.837475 7.1190911,58.417238 7.3292094,57.734354 6.6463249,58.995064 5.5957332,59.100123 3.599609,59.46783 2.1813103,57.891942 0.8680707,55.790759 0.6054228,55.370522 0.39530445,55.107875 0.39530445,54.42499 0.23771565,52.744043 1.4458961,51.745981 2.9167245,51.745981 c 0.6828845,0 0.6828845,0 1.1556508,0.315178 0.6828846,0.682884 0.7879437,0.472766 0.3151775,-0.157589 -0.4727663,-0.682885 -0.4727663,-1.996124 0.1575887,-2.679009 0.262648,-0.577825 1.1031213,-0.945532 1.7860059,-0.893003 z m 8.2471446,1.050592 c 0.525296,0 1.155651,0.05253 1.891065,0.262648 1.786006,0.315177 2.679009,0.682885 3.151775,1.365769 0.945533,0.630355 0.840473,2.416361 -0.472766,3.309364 -0.787944,0.315177 -0.998062,0.315177 -1.155651,0 -0.315178,-1.365769 -0.315178,-1.155651 -0.315178,0.472766 -0.157588,0.735414 -0.157588,1.575888 -0.682884,2.311302 -0.682885,1.786006 -2.311302,1.943594 -3.572012,1.050591 -0.472766,-0.472766 -1.050591,-1.680946 -0.682884,-2.941656 0.420236,-1.786006 1.050591,-2.468891 2.048653,-3.677071 l -0.262647,-0.157589 c -0.525296,-0.210118 -1.36577,-1.523358 -0.945533,-1.733476 0.105059,-0.157589 0.472766,-0.262648 0.998062,-0.262648 z m 3.78213,9.560384 c 0.262648,0 0.472766,0.05253 0.787944,0.05253 1.418299,-0.05253 -1.103121,11.083742 -1.786006,14.025398 l -0.315178,1.680947 c 0.157589,0 0.157589,0.157589 0.315178,-1.365769 l 0.367707,-1.523358 c 0.210118,-1.20818 0.893003,-3.992248 1.786006,-9.192677 0.262648,-3.7296 1.155651,-3.309364 1.786006,-3.256834 1.365769,0.105059 2.153713,0.157589 1.628417,1.26071 -0.157589,0.315177 -0.577826,1.365769 -0.945533,2.416361 -0.105059,0.367707 -1.996124,7.406671 -2.52142,8.247144 -0.157588,0.315178 -0.420236,0.840473 -0.577825,1.208181 -0.315178,0.682884 -0.157589,0.577825 -0.157589,0.577825 0,-0.315178 0.262648,-0.682885 0.787944,-0.893003 0.472766,-0.262648 4.517544,-0.787944 3.519482,-0.157589 -0.945533,1.103122 -1.680947,2.468891 -2.153713,3.204305 l -0.525296,0.840473 h -0.840473 c -0.840473,0 -1.050592,0.157589 -1.208181,0 -0.525295,-0.157589 -1.050591,-1.155651 -1.050591,-0.998062 l 0.840473,1.155651 c 1.050592,1.470828 0.893003,1.680947 0.367707,2.153713 -0.577825,0.682884 -1.575887,1.680946 -1.891065,2.46889 -0.525296,0.840474 -0.787943,0.682885 -0.998062,0.367707 -0.157589,-0.157588 -0.157589,-0.315177 -0.157589,-0.315177 0,0 -0.367707,-0.315178 -0.525295,-0.682885 -0.367707,-0.682884 -1.470829,-1.155651 -1.996125,-1.365769 -0.472766,-0.05253 -0.262647,-0.945532 -0.262647,-0.945532 0,-0.157589 0.367707,-1.103122 0.682884,-1.786006 0.525296,-0.945533 1.103121,-1.680947 1.628417,-2.416361 -0.157589,-0.472766 0.315178,-9.823032 0.472766,-11.819156 l 0.157589,-0.998062 c 0.630355,-1.628417 1.155651,-1.996124 2.784068,-1.943595 z m -1.365769,15.706345 c -0.157589,0 -0.157589,-0.105059 -0.472766,0.157589 0.105059,-0.105059 0.262648,-0.157589 0.472766,-0.157589 z m 8.404733,-2.941656 c 0.262648,0.05253 0.787944,0.367707 0.787944,0.787944 -0.05253,0.262647 -0.210118,0.998062 -0.262648,0.472766 0,-0.157589 -0.420237,-0.998062 -1.680947,-0.893003 0,-0.210118 0.893003,-0.472766 1.155651,-0.367707 z m -0.840473,0.577825 c 0.157589,0 0.367707,0.05253 0.577825,0.157589 0.262648,0.157589 1.155651,0.630355 0.472767,1.470828 -0.367708,0.472767 -0.945533,1.155651 -1.575888,1.31324 -0.315177,0.157589 -0.682885,0.315177 -0.840473,0.367707 l -1.208181,0.210118 c -0.945532,0.210119 1.155651,-3.414423 2.57395,-3.519482 z m -8.194615,2.679009 c -0.840473,0.367707 -0.840473,0.682885 0,0 z m 3.361893,3.309364 c 0.577826,1.103121 0.893003,2.153713 1.050592,3.309363 0,1.155651 0,1.575888 -0.840473,1.838536 -0.525296,0.157589 -1.050592,0.315177 -2.048654,0.315177 -1.786006,0 -1.523358,0.262648 -1.365769,-0.840473 0,-0.840473 0.525295,-1.996124 1.575887,-3.309364 0.420237,-0.682884 1.26071,-1.313239 1.628417,-1.313239 z m -6.566198,1.365769 c 0.472767,-0.05253 1.050592,0.472766 1.418299,0.945532 0.367707,0.315178 1.050592,1.680947 1.208181,2.311302 0.472766,1.365769 -0.472767,0.893003 -1.575888,0.472766 -1.155651,-0.420236 -1.786006,-2.311301 -1.575887,-3.309364 0.157588,-0.262647 0.315177,-0.420236 0.525295,-0.420236 z"
     class="st22"
     id="path1065"
     style="fill:#000000;stroke-width:0.525296;fill-opacity:1" />
</svg>
